<svg width="25" height="17" viewBox="0 0 25 17" fill="none" xmlns="http://www.w3.org/2000/svg">
<path d="M6.66028 5.69458H1.46497V-4.10815H6.44153V-3.06909H2.6134V0.19165H6.15442V1.22388H2.6134V4.65552H6.66028V5.69458ZM9.54504 4.68286H9.5177V8.91431H8.39661V-1.30542H9.5177V-0.0749512H9.54504C10.0965 -1.00464 10.9031 -1.46948 11.965 -1.46948C12.8673 -1.46948 13.5714 -1.15503 14.0773 -0.526123C14.5831 0.0982259 14.8361 0.936768 14.8361 1.9895C14.8361 3.16073 14.5512 4.09953 13.9816 4.80591C13.4119 5.50773 12.6326 5.85864 11.6437 5.85864C10.7368 5.85864 10.0372 5.46672 9.54504 4.68286ZM9.5177 1.85962V2.83716C9.5177 3.41593 9.70455 3.90812 10.0782 4.31372C10.4565 4.71476 10.935 4.91528 11.5138 4.91528C12.1928 4.91528 12.7238 4.65552 13.1066 4.13599C13.4939 3.61646 13.6876 2.89412 13.6876 1.96899C13.6876 1.1897 13.5076 0.57902 13.1476 0.136963C12.7876 -0.305094 12.2999 -0.526123 11.6847 -0.526123C11.033 -0.526123 10.5089 -0.298258 10.1124 0.157471C9.71594 0.608643 9.5177 1.17603 9.5177 1.85962ZM17.2013 -3.08276C17.0008 -3.08276 16.8299 -3.15112 16.6886 -3.28784C16.5473 -3.42456 16.4767 -3.59774 16.4767 -3.80737C16.4767 -4.01701 16.5473 -4.19019 16.6886 -4.3269C16.8299 -4.46818 17.0008 -4.53882 17.2013 -4.53882C17.4064 -4.53882 17.5795 -4.46818 17.7208 -4.3269C17.8667 -4.19019 17.9396 -4.01701 17.9396 -3.80737C17.9396 -3.60685 17.8667 -3.43595 17.7208 -3.29468C17.5795 -3.1534 17.4064 -3.08276 17.2013 -3.08276ZM17.7482 5.69458H16.6271V-1.30542H17.7482V5.69458ZM24.7892 5.37329C24.2514 5.69686 23.6134 5.85864 22.8751 5.85864C21.8771 5.85864 21.0704 5.53507 20.4552 4.88794C19.8445 4.23625 19.5392 3.39315 19.5392 2.35864C19.5392 1.20565 19.8696 0.280518 20.5304 -0.416748C21.1912 -1.11857 22.073 -1.46948 23.1759 -1.46948C23.7911 -1.46948 24.3335 -1.35555 24.8029 -1.12769V0.020752C24.2833 -0.343831 23.7273 -0.526123 23.1349 -0.526123C22.4194 -0.526123 21.8315 -0.268636 21.3712 0.246338C20.9155 0.756755 20.6876 1.42896 20.6876 2.26294C20.6876 3.08325 20.9018 3.73039 21.3302 4.20435C21.7631 4.6783 22.3419 4.91528 23.0665 4.91528C23.6772 4.91528 24.2514 4.71248 24.7892 4.30688V5.37329ZM0.17981 22.6746H14.1798V8.67458H0.17981V22.6746Z" fill="#1C3829"/>
</svg>
