<svg width="26" height="18" viewBox="0 0 26 18" fill="none" xmlns="http://www.w3.org/2000/svg">
<path d="M7.21423 6.44873H2.01892V-3.354H6.99548V-2.31494H3.16736V0.945801H6.70837V1.97803H3.16736V5.40967H7.21423V6.44873ZM10.099 5.43701H10.0717V9.66846H8.95056V-0.55127H10.0717V0.679199H10.099C10.6504 -0.250488 11.4571 -0.715332 12.5189 -0.715332C13.4213 -0.715332 14.1254 -0.400879 14.6312 0.228027C15.1371 0.852376 15.39 1.69092 15.39 2.74365C15.39 3.91488 15.1052 4.85368 14.5355 5.56006C13.9659 6.26188 13.1866 6.61279 12.1976 6.61279C11.2907 6.61279 10.5912 6.22087 10.099 5.43701ZM10.0717 2.61377V3.59131C10.0717 4.17008 10.2585 4.66227 10.6322 5.06787C11.0105 5.46891 11.489 5.66943 12.0677 5.66943C12.7468 5.66943 13.2777 5.40967 13.6605 4.89014C14.0479 4.37061 14.2416 3.64827 14.2416 2.72314C14.2416 1.94385 14.0616 1.33317 13.7015 0.891113C13.3415 0.449056 12.8539 0.228027 12.2386 0.228027C11.587 0.228027 11.0629 0.455892 10.6664 0.911621C10.2699 1.36279 10.0717 1.93018 10.0717 2.61377ZM17.7552 -2.32861C17.5547 -2.32861 17.3838 -2.39697 17.2426 -2.53369C17.1013 -2.67041 17.0306 -2.84359 17.0306 -3.05322C17.0306 -3.26286 17.1013 -3.43604 17.2426 -3.57275C17.3838 -3.71403 17.5547 -3.78467 17.7552 -3.78467C17.9603 -3.78467 18.1335 -3.71403 18.2748 -3.57275C18.4206 -3.43604 18.4935 -3.26286 18.4935 -3.05322C18.4935 -2.8527 18.4206 -2.6818 18.2748 -2.54053C18.1335 -2.39925 17.9603 -2.32861 17.7552 -2.32861ZM18.3021 6.44873H17.181V-0.55127H18.3021V6.44873ZM25.3431 6.12744C24.8054 6.45101 24.1674 6.61279 23.4291 6.61279C22.431 6.61279 21.6244 6.28923 21.0092 5.64209C20.3985 4.9904 20.0931 4.1473 20.0931 3.11279C20.0931 1.9598 20.4235 1.03467 21.0844 0.337402C21.7452 -0.364421 22.627 -0.715332 23.7299 -0.715332C24.3451 -0.715332 24.8874 -0.6014 25.3568 -0.373535V0.774902C24.8373 0.410319 24.2813 0.228027 23.6888 0.228027C22.9733 0.228027 22.3855 0.485514 21.9252 1.00049C21.4694 1.5109 21.2416 2.18311 21.2416 3.01709C21.2416 3.8374 21.4558 4.48454 21.8842 4.9585C22.3171 5.43245 22.8959 5.66943 23.6205 5.66943C24.2312 5.66943 24.8054 5.46663 25.3431 5.06104V6.12744ZM0.733765 23.4287H14.7338V9.42873H0.733765V23.4287Z" fill="#1C3829"/>
</svg>
