<svg width="27" height="11" viewBox="0 0 27 11" fill="none" xmlns="http://www.w3.org/2000/svg">
<path d="M7.95459 10.2275H6.54639L1.50146 2.41406C1.37386 2.2181 1.26904 2.01302 1.18701 1.79883H1.146C1.18245 2.00846 1.20068 2.45736 1.20068 3.14551V10.2275H0.0522461V0.424805H1.54248L6.45068 8.11523C6.65576 8.43424 6.78792 8.65299 6.84717 8.77148H6.87451C6.82894 8.48893 6.80615 8.00814 6.80615 7.3291V0.424805H7.95459V10.2275ZM16.0005 7.00781H11.0581C11.0763 7.78711 11.286 8.38867 11.687 8.8125C12.0881 9.23633 12.6395 9.44824 13.3413 9.44824C14.1297 9.44824 14.8543 9.18848 15.5151 8.66895V9.72168C14.8999 10.1683 14.0864 10.3916 13.0747 10.3916C12.0858 10.3916 11.3088 10.0749 10.7437 9.44141C10.1785 8.80339 9.896 7.90788 9.896 6.75488C9.896 5.66569 10.2036 4.7793 10.8188 4.0957C11.4386 3.40755 12.2065 3.06348 13.1226 3.06348C14.0386 3.06348 14.7472 3.3597 15.2485 3.95215C15.7498 4.5446 16.0005 5.36719 16.0005 6.41992V7.00781ZM14.8521 6.05762C14.8475 5.41048 14.6903 4.9069 14.3804 4.54688C14.075 4.18685 13.6489 4.00684 13.1021 4.00684C12.5734 4.00684 12.1245 4.19596 11.7554 4.57422C11.3862 4.95247 11.1584 5.44694 11.0718 6.05762H14.8521ZM26.521 3.22754L24.4224 10.2275H23.2603L21.8179 5.2168C21.7632 5.02539 21.7267 4.80892 21.7085 4.56738H21.6812C21.6675 4.73145 21.6196 4.94336 21.5376 5.20312L19.9722 10.2275H18.8511L16.7319 3.22754H17.9077L19.3569 8.49121C19.4025 8.65072 19.4344 8.86035 19.4526 9.12012H19.5073C19.521 8.9196 19.562 8.7054 19.6304 8.47754L21.2437 3.22754H22.269L23.7183 8.50488C23.7638 8.6735 23.798 8.88314 23.8208 9.13379H23.8755C23.8846 8.95605 23.9233 8.74642 23.9917 8.50488L25.4136 3.22754H26.521Z" fill="#37352F" fill-opacity="0.65"/>
</svg>
