<svg width="28" height="11" viewBox="0 0 28 11" fill="none" xmlns="http://www.w3.org/2000/svg">
<path d="M8.495 10.7439H7.08679L2.04187 2.93042C1.91427 2.73446 1.80945 2.52938 1.72742 2.31519H1.6864C1.72286 2.52482 1.74109 2.97371 1.74109 3.66187V10.7439H0.592651V0.941162H2.08289L6.99109 8.63159C7.19617 8.9506 7.32833 9.16935 7.38757 9.28784H7.41492C7.36934 9.00529 7.34656 8.5245 7.34656 7.84546V0.941162H8.495V10.7439ZM16.5409 7.52417H11.5985C11.6167 8.30347 11.8264 8.90503 12.2274 9.32886C12.6285 9.75269 13.1799 9.9646 13.8817 9.9646C14.6701 9.9646 15.3947 9.70483 16.0555 9.1853V10.238C15.4403 10.6847 14.6268 10.908 13.6151 10.908C12.6262 10.908 11.8492 10.5912 11.2841 9.95776C10.719 9.31974 10.4364 8.42424 10.4364 7.27124C10.4364 6.18205 10.744 5.29565 11.3593 4.61206C11.979 3.92391 12.7469 3.57983 13.663 3.57983C14.579 3.57983 15.2876 3.87606 15.7889 4.46851C16.2902 5.06095 16.5409 5.88354 16.5409 6.93628V7.52417ZM15.3925 6.57397C15.3879 5.92684 15.2307 5.42326 14.9208 5.06323C14.6154 4.70321 14.1893 4.52319 13.6425 4.52319C13.1138 4.52319 12.6649 4.71232 12.2958 5.09058C11.9266 5.46883 11.6988 5.9633 11.6122 6.57397H15.3925ZM27.0614 3.7439L24.9628 10.7439H23.8007L22.3583 5.73315C22.3036 5.54175 22.2671 5.32528 22.2489 5.08374H22.2216C22.2079 5.2478 22.16 5.45972 22.078 5.71948L20.5126 10.7439H19.3915L17.2723 3.7439H18.4481L19.8973 9.00757C19.9429 9.16707 19.9748 9.37671 19.993 9.63647H20.0477C20.0614 9.43595 20.1024 9.22176 20.1708 8.9939L21.7841 3.7439H22.8094L24.2587 9.02124C24.3042 9.18986 24.3384 9.3995 24.3612 9.65015H24.4159C24.425 9.47241 24.4637 9.26278 24.5321 9.02124L25.954 3.7439H27.0614Z" fill="white"/>
</svg>
