<svg width="9" height="12" viewBox="0 0 9 12" fill="none" xmlns="http://www.w3.org/2000/svg">
<path d="M4.43413 1.83972L4.91165 1.2826L4.43413 0.873291L3.9566 1.2826L4.43413 1.83972ZM4.43413 10.6449L3.9566 11.202L4.43413 11.6113L4.91165 11.202L4.43413 10.6449ZM1.48741 5.3319L4.91165 2.39683L3.9566 1.2826L0.532349 4.21767L1.48741 5.3319ZM3.9566 2.39683L7.38085 5.3319L8.3359 4.21767L4.91165 1.2826L3.9566 2.39683ZM0.532349 8.26696L3.9566 11.202L4.91165 10.0878L1.48741 7.15273L0.532349 8.26696ZM4.91165 11.202L8.3359 8.26696L7.38085 7.15273L3.9566 10.0878L4.91165 11.202Z" fill="#37352F" fill-opacity="0.45"/>
</svg>
