<svg width="55" height="14" viewBox="0 0 55 14" fill="none" xmlns="http://www.w3.org/2000/svg">
<path d="M0.783905 10.8062V9.45264C0.938853 9.58936 1.12342 9.7124 1.33762 9.82178C1.55637 9.93115 1.78423 10.0246 2.02121 10.1021C2.26275 10.175 2.50428 10.2319 2.74582 10.2729C2.98736 10.314 3.21066 10.3345 3.41574 10.3345C4.12212 10.3345 4.64849 10.2046 4.99484 9.94482C5.34575 9.6805 5.52121 9.30225 5.52121 8.81006C5.52121 8.54574 5.46196 8.31559 5.34348 8.11963C5.22954 7.92367 5.07004 7.74593 4.86496 7.58643C4.65988 7.42236 4.41607 7.26742 4.13351 7.12158C3.85552 6.97119 3.55474 6.81396 3.23117 6.6499C2.88937 6.47673 2.57036 6.30127 2.27414 6.12354C1.97792 5.9458 1.72043 5.74984 1.50168 5.53564C1.28293 5.32145 1.10975 5.07992 0.982147 4.81104C0.8591 4.5376 0.797577 4.21859 0.797577 3.854C0.797577 3.40739 0.895559 3.02002 1.09152 2.69189C1.28749 2.35921 1.54497 2.08577 1.86398 1.87158C2.18299 1.65739 2.5453 1.49788 2.9509 1.39307C3.36105 1.28825 3.77805 1.23584 4.20187 1.23584C5.16802 1.23584 5.87212 1.35205 6.31418 1.58447V2.87646C5.7354 2.47542 4.99256 2.2749 4.08566 2.2749C3.83501 2.2749 3.58436 2.30225 3.33371 2.35693C3.08306 2.40706 2.85975 2.49137 2.66379 2.60986C2.46782 2.72835 2.30832 2.88102 2.18527 3.06787C2.06223 3.25472 2.0007 3.48258 2.0007 3.75146C2.0007 4.00212 2.04627 4.21859 2.13742 4.40088C2.23312 4.58317 2.37212 4.74951 2.55441 4.8999C2.7367 5.05029 2.95773 5.19613 3.2175 5.3374C3.48182 5.47868 3.78488 5.63363 4.12668 5.80225C4.47759 5.97542 4.81027 6.15771 5.12473 6.34912C5.43918 6.54053 5.71489 6.75244 5.95187 6.98486C6.18885 7.21729 6.3757 7.47477 6.51242 7.75732C6.6537 8.03988 6.72433 8.36344 6.72433 8.72803C6.72433 9.2111 6.62863 9.62126 6.43723 9.9585C6.25038 10.2912 5.99517 10.5623 5.6716 10.772C5.35259 10.9816 4.98345 11.132 4.56418 11.2231C4.14491 11.3188 3.70285 11.3667 3.23801 11.3667C3.08306 11.3667 2.89165 11.353 2.66379 11.3257C2.43592 11.3029 2.2035 11.2664 1.96652 11.2163C1.72954 11.1707 1.50396 11.1138 1.28976 11.0454C1.08013 10.9725 0.911509 10.8927 0.783905 10.8062ZM9.67746 10.1909H9.65012V14.4224H8.52902V4.20264H9.65012V5.43311H9.67746C10.2289 4.50342 11.0355 4.03857 12.0974 4.03857C12.9997 4.03857 13.7038 4.35303 14.2097 4.98193C14.7155 5.60628 14.9685 6.44482 14.9685 7.49756C14.9685 8.66878 14.6836 9.60758 14.114 10.314C13.5443 11.0158 12.765 11.3667 11.7761 11.3667C10.8692 11.3667 10.1696 10.9748 9.67746 10.1909ZM9.65012 7.36768V8.34521C9.65012 8.92399 9.83696 9.41618 10.2107 9.82178C10.5889 10.2228 11.0674 10.4233 11.6462 10.4233C12.3252 10.4233 12.8562 10.1636 13.239 9.64404C13.6264 9.12451 13.82 8.40218 13.82 7.47705C13.82 6.69775 13.64 6.08708 13.28 5.64502C12.92 5.20296 12.4323 4.98193 11.8171 4.98193C11.1654 4.98193 10.6413 5.2098 10.2448 5.66553C9.84836 6.1167 9.65012 6.68408 9.65012 7.36768ZM20.4099 5.3374C20.2139 5.18701 19.9314 5.11182 19.5622 5.11182C19.0837 5.11182 18.6827 5.3374 18.3591 5.78857C18.0401 6.23975 17.8806 6.85498 17.8806 7.63428V11.2026H16.7595V4.20264H17.8806V5.64502H17.9079C18.0674 5.15283 18.3112 4.77002 18.6394 4.49658C18.9675 4.21859 19.3344 4.07959 19.74 4.07959C20.0316 4.07959 20.2549 4.11149 20.4099 4.17529V5.3374ZM22.2009 2.42529C22.0004 2.42529 21.8295 2.35693 21.6882 2.22021C21.5469 2.0835 21.4763 1.91032 21.4763 1.70068C21.4763 1.49105 21.5469 1.31787 21.6882 1.18115C21.8295 1.03988 22.0004 0.969238 22.2009 0.969238C22.406 0.969238 22.5792 1.03988 22.7204 1.18115C22.8663 1.31787 22.9392 1.49105 22.9392 1.70068C22.9392 1.9012 22.8663 2.0721 22.7204 2.21338C22.5792 2.35465 22.406 2.42529 22.2009 2.42529ZM22.7478 11.2026H21.6267V4.20264H22.7478V11.2026ZM30.8279 11.2026H29.7068V7.21045C29.7068 5.72477 29.1644 4.98193 28.0798 4.98193C27.5193 4.98193 27.0544 5.19385 26.6853 5.61768C26.3207 6.03695 26.1384 6.56787 26.1384 7.21045V11.2026H25.0173V4.20264H26.1384V5.36475H26.1657C26.6944 4.48063 27.46 4.03857 28.4626 4.03857C29.2282 4.03857 29.8139 4.28695 30.2195 4.78369C30.6251 5.27588 30.8279 5.9891 30.8279 6.92334V11.2026ZM36.1941 11.1343C35.9297 11.2801 35.5811 11.353 35.1482 11.353C33.9223 11.353 33.3093 10.6694 33.3093 9.30225V5.15967H32.1062V4.20264H33.3093V2.49365L34.4304 2.13135V4.20264H36.1941V5.15967H34.4304V9.104C34.4304 9.5734 34.5101 9.90837 34.6696 10.1089C34.8292 10.3094 35.0935 10.4097 35.4626 10.4097C35.7452 10.4097 35.989 10.3322 36.1941 10.1772V11.1343ZM45.6755 3.97021C45.6755 3.66943 45.6277 3.40739 45.532 3.18408C45.4408 2.96077 45.3132 2.7762 45.1491 2.63037C44.9896 2.47998 44.8005 2.36833 44.5818 2.29541C44.363 2.22249 44.126 2.18604 43.8708 2.18604C43.6521 2.18604 43.4379 2.21566 43.2282 2.2749C43.0186 2.33415 42.8135 2.41618 42.613 2.521C42.417 2.62581 42.2256 2.75114 42.0388 2.89697C41.8565 3.04281 41.6856 3.20459 41.5261 3.38232V2.1792C41.8405 1.87386 42.1915 1.64144 42.5788 1.48193C42.9708 1.31787 43.447 1.23584 44.0075 1.23584C44.4086 1.23584 44.78 1.29508 45.1218 1.41357C45.4636 1.52751 45.7598 1.69613 46.0105 1.91943C46.2611 2.14274 46.4571 2.41846 46.5984 2.74658C46.7442 3.07471 46.8171 3.45068 46.8171 3.87451C46.8171 4.26188 46.7715 4.61279 46.6804 4.92725C46.5938 5.2417 46.4594 5.53792 46.2771 5.81592C46.0993 6.09391 45.8737 6.36051 45.6003 6.61572C45.3269 6.87093 45.0056 7.1307 44.6364 7.39502C44.1762 7.72314 43.7956 8.00342 43.4948 8.23584C43.1986 8.46826 42.9616 8.68701 42.7839 8.89209C42.6107 9.09261 42.4877 9.29541 42.4148 9.50049C42.3464 9.70101 42.3122 9.93343 42.3122 10.1978H47.1931V11.2026H41.1433V10.7173C41.1433 10.298 41.1889 9.92887 41.28 9.60986C41.3711 9.29085 41.5215 8.98779 41.7312 8.70068C41.9408 8.41357 42.2142 8.12646 42.5515 7.83936C42.8933 7.55225 43.3103 7.22868 43.8025 6.86865C44.1579 6.61344 44.4542 6.36963 44.6911 6.13721C44.9327 5.90479 45.1264 5.67236 45.2722 5.43994C45.418 5.20752 45.5206 4.97282 45.5798 4.73584C45.6436 4.4943 45.6755 4.2391 45.6755 3.97021ZM53.2224 3.97021C53.2224 3.66943 53.1745 3.40739 53.0788 3.18408C52.9877 2.96077 52.8601 2.7762 52.696 2.63037C52.5365 2.47998 52.3474 2.36833 52.1286 2.29541C51.9099 2.22249 51.6729 2.18604 51.4177 2.18604C51.1989 2.18604 50.9848 2.21566 50.7751 2.2749C50.5655 2.33415 50.3604 2.41618 50.1599 2.521C49.9639 2.62581 49.7725 2.75114 49.5857 2.89697C49.4034 3.04281 49.2325 3.20459 49.073 3.38232V2.1792C49.3874 1.87386 49.7383 1.64144 50.1257 1.48193C50.5176 1.31787 50.9939 1.23584 51.5544 1.23584C51.9555 1.23584 52.3269 1.29508 52.6687 1.41357C53.0105 1.52751 53.3067 1.69613 53.5573 1.91943C53.808 2.14274 54.004 2.41846 54.1452 2.74658C54.2911 3.07471 54.364 3.45068 54.364 3.87451C54.364 4.26188 54.3184 4.61279 54.2273 4.92725C54.1407 5.2417 54.0062 5.53792 53.8239 5.81592C53.6462 6.09391 53.4206 6.36051 53.1472 6.61572C52.8737 6.87093 52.5525 7.1307 52.1833 7.39502C51.723 7.72314 51.3425 8.00342 51.0417 8.23584C50.7455 8.46826 50.5085 8.68701 50.3308 8.89209C50.1576 9.09261 50.0346 9.29541 49.9616 9.50049C49.8933 9.70101 49.8591 9.93343 49.8591 10.1978H54.74V11.2026H48.6902V10.7173C48.6902 10.298 48.7357 9.92887 48.8269 9.60986C48.918 9.29085 49.0684 8.98779 49.278 8.70068C49.4877 8.41357 49.7611 8.12646 50.0984 7.83936C50.4402 7.55225 50.8571 7.22868 51.3493 6.86865C51.7048 6.61344 52.001 6.36963 52.238 6.13721C52.4795 5.90479 52.6732 5.67236 52.8191 5.43994C52.9649 5.20752 53.0674 4.97282 53.1267 4.73584C53.1905 4.4943 53.2224 4.2391 53.2224 3.97021Z" fill="#32302C"/>
</svg>
