<svg width="55" height="14" viewBox="0 0 55 14" fill="none" xmlns="http://www.w3.org/2000/svg">
<path d="M0.643921 10.0522V8.69873C0.798869 8.83545 0.983439 8.9585 1.19763 9.06787C1.41638 9.17725 1.64425 9.27067 1.88123 9.34814C2.12276 9.42106 2.3643 9.47803 2.60583 9.51904C2.84737 9.56006 3.07068 9.58057 3.27576 9.58057C3.98214 9.58057 4.5085 9.45068 4.85486 9.19092C5.20577 8.9266 5.38123 8.54834 5.38123 8.05615C5.38123 7.79183 5.32198 7.56169 5.20349 7.36572C5.08956 7.16976 4.93005 6.99202 4.72498 6.83252C4.5199 6.66846 4.27608 6.51351 3.99353 6.36768C3.71554 6.21729 3.41475 6.06006 3.09119 5.896C2.74939 5.72282 2.43038 5.54736 2.13416 5.36963C1.83793 5.19189 1.58044 4.99593 1.36169 4.78174C1.14294 4.56755 0.969767 4.32601 0.842163 4.05713C0.719116 3.78369 0.657593 3.46468 0.657593 3.1001C0.657593 2.65348 0.755575 2.26611 0.951538 1.93799C1.1475 1.60531 1.40499 1.33187 1.724 1.11768C2.04301 0.903483 2.40531 0.743978 2.81091 0.63916C3.22107 0.534342 3.63806 0.481934 4.06189 0.481934C5.02804 0.481934 5.73214 0.598145 6.17419 0.830566V2.12256C5.59542 1.72152 4.85258 1.521 3.94568 1.521C3.69503 1.521 3.44438 1.54834 3.19373 1.60303C2.94307 1.65316 2.71977 1.73747 2.5238 1.85596C2.32784 1.97445 2.16833 2.12712 2.04529 2.31396C1.92224 2.50081 1.86072 2.72868 1.86072 2.99756C1.86072 3.24821 1.90629 3.46468 1.99744 3.64697C2.09314 3.82926 2.23214 3.99561 2.41443 4.146C2.59672 4.29639 2.81775 4.44222 3.07751 4.5835C3.34184 4.72477 3.6449 4.87972 3.98669 5.04834C4.33761 5.22152 4.67029 5.40381 4.98474 5.59521C5.29919 5.78662 5.57491 5.99854 5.81189 6.23096C6.04887 6.46338 6.23572 6.72087 6.37244 7.00342C6.51371 7.28597 6.58435 7.60954 6.58435 7.97412C6.58435 8.45719 6.48865 8.86735 6.29724 9.20459C6.11039 9.53727 5.85518 9.80843 5.53162 10.0181C5.21261 10.2277 4.84347 10.3781 4.42419 10.4692C4.00492 10.5649 3.56287 10.6128 3.09802 10.6128C2.94307 10.6128 2.75167 10.5991 2.5238 10.5718C2.29594 10.549 2.06352 10.5125 1.82654 10.4624C1.58956 10.4168 1.36397 10.3599 1.14978 10.2915C0.940145 10.2186 0.771525 10.1388 0.643921 10.0522ZM9.53748 9.43701H9.51013V13.6685H8.38904V3.44873H9.51013V4.6792H9.53748C10.0889 3.74951 10.8955 3.28467 11.9574 3.28467C12.8597 3.28467 13.5638 3.59912 14.0697 4.22803C14.5756 4.85238 14.8285 5.69092 14.8285 6.74365C14.8285 7.91488 14.5437 8.85368 13.974 9.56006C13.4043 10.2619 12.625 10.6128 11.6361 10.6128C10.7292 10.6128 10.0297 10.2209 9.53748 9.43701ZM9.51013 6.61377V7.59131C9.51013 8.17008 9.69698 8.66227 10.0707 9.06787C10.4489 9.46891 10.9274 9.66943 11.5062 9.66943C12.1853 9.66943 12.7162 9.40967 13.099 8.89014C13.4864 8.37061 13.6801 7.64827 13.6801 6.72314C13.6801 5.94385 13.5 5.33317 13.14 4.89111C12.78 4.44906 12.2924 4.22803 11.6771 4.22803C11.0254 4.22803 10.5013 4.45589 10.1049 4.91162C9.70837 5.36279 9.51013 5.93018 9.51013 6.61377ZM20.2699 4.5835C20.0739 4.43311 19.7914 4.35791 19.4222 4.35791C18.9437 4.35791 18.5427 4.5835 18.2191 5.03467C17.9001 5.48584 17.7406 6.10107 17.7406 6.88037V10.4487H16.6195V3.44873H17.7406V4.89111H17.7679C17.9274 4.39893 18.1713 4.01611 18.4994 3.74268C18.8275 3.46468 19.1944 3.32568 19.6 3.32568C19.8916 3.32568 20.1149 3.35758 20.2699 3.42139V4.5835ZM22.0609 1.67139C21.8604 1.67139 21.6895 1.60303 21.5482 1.46631C21.4069 1.32959 21.3363 1.15641 21.3363 0.946777C21.3363 0.737142 21.4069 0.563965 21.5482 0.427246C21.6895 0.28597 21.8604 0.215332 22.0609 0.215332C22.266 0.215332 22.4392 0.28597 22.5804 0.427246C22.7263 0.563965 22.7992 0.737142 22.7992 0.946777C22.7992 1.1473 22.7263 1.3182 22.5804 1.45947C22.4392 1.60075 22.266 1.67139 22.0609 1.67139ZM22.6078 10.4487H21.4867V3.44873H22.6078V10.4487ZM30.6879 10.4487H29.5668V6.45654C29.5668 4.97087 29.0245 4.22803 27.9398 4.22803C27.3793 4.22803 26.9144 4.43994 26.5453 4.86377C26.1807 5.28304 25.9984 5.81396 25.9984 6.45654V10.4487H24.8773V3.44873H25.9984V4.61084H26.0258C26.5544 3.72673 27.32 3.28467 28.3226 3.28467C29.0883 3.28467 29.6739 3.53304 30.0795 4.02979C30.4851 4.52197 30.6879 5.23519 30.6879 6.16943V10.4487ZM36.0541 10.3804C35.7898 10.5262 35.4411 10.5991 35.0082 10.5991C33.7823 10.5991 33.1693 9.91553 33.1693 8.54834V4.40576H31.9662V3.44873H33.1693V1.73975L34.2904 1.37744V3.44873H36.0541V4.40576H34.2904V8.3501C34.2904 8.8195 34.3702 9.15446 34.5297 9.35498C34.6892 9.5555 34.9535 9.65576 35.3226 9.65576C35.6052 9.65576 35.849 9.57829 36.0541 9.42334V10.3804ZM45.5355 3.21631C45.5355 2.91553 45.4877 2.65348 45.392 2.43018C45.3008 2.20687 45.1732 2.0223 45.0092 1.87646C44.8497 1.72607 44.6605 1.61442 44.4418 1.5415C44.223 1.46859 43.986 1.43213 43.7308 1.43213C43.5121 1.43213 43.2979 1.46175 43.0883 1.521C42.8786 1.58024 42.6735 1.66227 42.473 1.76709C42.2771 1.87191 42.0857 1.99723 41.8988 2.14307C41.7165 2.2889 41.5456 2.45068 41.3861 2.62842V1.42529C41.7006 1.11995 42.0515 0.887533 42.4388 0.728027C42.8308 0.563965 43.307 0.481934 43.8676 0.481934C44.2686 0.481934 44.64 0.541178 44.9818 0.659668C45.3236 0.7736 45.6198 0.94222 45.8705 1.16553C46.1211 1.38883 46.3171 1.66455 46.4584 1.99268C46.6042 2.3208 46.6771 2.69678 46.6771 3.12061C46.6771 3.50798 46.6316 3.85889 46.5404 4.17334C46.4538 4.48779 46.3194 4.78402 46.1371 5.06201C45.9594 5.34001 45.7338 5.60661 45.4603 5.86182C45.1869 6.11702 44.8656 6.37679 44.4965 6.64111C44.0362 6.96924 43.6556 7.24951 43.3549 7.48193C43.0586 7.71436 42.8217 7.93311 42.6439 8.13818C42.4707 8.3387 42.3477 8.5415 42.2748 8.74658C42.2064 8.9471 42.1722 9.17952 42.1722 9.44385H47.0531V10.4487H41.0033V9.96338C41.0033 9.54411 41.0489 9.17497 41.14 8.85596C41.2312 8.53695 41.3816 8.23389 41.5912 7.94678C41.8008 7.65967 42.0743 7.37256 42.4115 7.08545C42.7533 6.79834 43.1703 6.47477 43.6625 6.11475C44.0179 5.85954 44.3142 5.61572 44.5511 5.3833C44.7927 5.15088 44.9864 4.91846 45.1322 4.68604C45.278 4.45361 45.3806 4.21891 45.4398 3.98193C45.5036 3.7404 45.5355 3.48519 45.5355 3.21631ZM53.0824 3.21631C53.0824 2.91553 53.0345 2.65348 52.9388 2.43018C52.8477 2.20687 52.7201 2.0223 52.556 1.87646C52.3965 1.72607 52.2074 1.61442 51.9886 1.5415C51.7699 1.46859 51.5329 1.43213 51.2777 1.43213C51.059 1.43213 50.8448 1.46175 50.6351 1.521C50.4255 1.58024 50.2204 1.66227 50.0199 1.76709C49.8239 1.87191 49.6325 1.99723 49.4457 2.14307C49.2634 2.2889 49.0925 2.45068 48.933 2.62842V1.42529C49.2474 1.11995 49.5983 0.887533 49.9857 0.728027C50.3776 0.563965 50.8539 0.481934 51.4144 0.481934C51.8155 0.481934 52.1869 0.541178 52.5287 0.659668C52.8705 0.7736 53.1667 0.94222 53.4174 1.16553C53.668 1.38883 53.864 1.66455 54.0052 1.99268C54.1511 2.3208 54.224 2.69678 54.224 3.12061C54.224 3.50798 54.1784 3.85889 54.0873 4.17334C54.0007 4.48779 53.8663 4.78402 53.684 5.06201C53.5062 5.34001 53.2806 5.60661 53.0072 5.86182C52.7338 6.11702 52.4125 6.37679 52.0433 6.64111C51.583 6.96924 51.2025 7.24951 50.9017 7.48193C50.6055 7.71436 50.3685 7.93311 50.1908 8.13818C50.0176 8.3387 49.8946 8.5415 49.8217 8.74658C49.7533 8.9471 49.7191 9.17952 49.7191 9.44385H54.6V10.4487H48.5502V9.96338C48.5502 9.54411 48.5957 9.17497 48.6869 8.85596C48.778 8.53695 48.9284 8.23389 49.1381 7.94678C49.3477 7.65967 49.6211 7.37256 49.9584 7.08545C50.3002 6.79834 50.7172 6.47477 51.2094 6.11475C51.5648 5.85954 51.861 5.61572 52.098 5.3833C52.3396 5.15088 52.5332 4.91846 52.6791 4.68604C52.8249 4.45361 52.9274 4.21891 52.9867 3.98193C53.0505 3.7404 53.0824 3.48519 53.0824 3.21631Z" fill="#32302C"/>
</svg>
