<svg width="53" height="14" viewBox="0 0 53 14" fill="none" xmlns="http://www.w3.org/2000/svg">
<path d="M0.030365 10.0522V8.69873C0.185313 8.83545 0.369883 8.9585 0.584076 9.06787C0.802826 9.17725 1.03069 9.27067 1.26767 9.34814C1.50921 9.42106 1.75074 9.47803 1.99228 9.51904C2.23382 9.56006 2.45712 9.58057 2.6622 9.58057C3.36858 9.58057 3.89495 9.45068 4.2413 9.19092C4.59221 8.9266 4.76767 8.54834 4.76767 8.05615C4.76767 7.79183 4.70842 7.56169 4.58994 7.36572C4.476 7.16976 4.3165 6.99202 4.11142 6.83252C3.90634 6.66846 3.66253 6.51351 3.37997 6.36768C3.10198 6.21729 2.8012 6.06006 2.47763 5.896C2.13583 5.72282 1.81682 5.54736 1.5206 5.36963C1.22438 5.19189 0.966888 4.99593 0.748138 4.78174C0.529388 4.56755 0.356211 4.32601 0.228607 4.05713C0.10556 3.78369 0.0440369 3.46468 0.0440369 3.1001C0.0440369 2.65348 0.142019 2.26611 0.337982 1.93799C0.533946 1.60531 0.791433 1.33187 1.11044 1.11768C1.42945 0.903483 1.79176 0.743978 2.19736 0.63916C2.60751 0.534342 3.02451 0.481934 3.44833 0.481934C4.41448 0.481934 5.11858 0.598145 5.56064 0.830566V2.12256C4.98186 1.72152 4.23902 1.521 3.33212 1.521C3.08147 1.521 2.83082 1.54834 2.58017 1.60303C2.32952 1.65316 2.10621 1.73747 1.91025 1.85596C1.71428 1.97445 1.55478 2.12712 1.43173 2.31396C1.30869 2.50081 1.24716 2.72868 1.24716 2.99756C1.24716 3.24821 1.29273 3.46468 1.38388 3.64697C1.47958 3.82926 1.61858 3.99561 1.80087 4.146C1.98316 4.29639 2.20419 4.44222 2.46396 4.5835C2.72828 4.72477 3.03134 4.87972 3.37314 5.04834C3.72405 5.22152 4.05673 5.40381 4.37119 5.59521C4.68564 5.78662 4.96135 5.99854 5.19833 6.23096C5.43531 6.46338 5.62216 6.72087 5.75888 7.00342C5.90016 7.28597 5.97079 7.60954 5.97079 7.97412C5.97079 8.45719 5.87509 8.86735 5.68369 9.20459C5.49684 9.53727 5.24163 9.80843 4.91806 10.0181C4.59905 10.2277 4.22991 10.3781 3.81064 10.4692C3.39137 10.5649 2.94931 10.6128 2.48447 10.6128C2.32952 10.6128 2.13811 10.5991 1.91025 10.5718C1.68238 10.549 1.44996 10.5125 1.21298 10.4624C0.976003 10.4168 0.750417 10.3599 0.536224 10.2915C0.326589 10.2186 0.157969 10.1388 0.030365 10.0522ZM8.92392 9.43701H8.89658V13.6685H7.77548V3.44873H8.89658V4.6792H8.92392C9.47535 3.74951 10.282 3.28467 11.3438 3.28467C12.2462 3.28467 12.9503 3.59912 13.4561 4.22803C13.962 4.85238 14.2149 5.69092 14.2149 6.74365C14.2149 7.91488 13.9301 8.85368 13.3604 9.56006C12.7908 10.2619 12.0115 10.6128 11.0226 10.6128C10.1157 10.6128 9.41611 10.2209 8.92392 9.43701ZM8.89658 6.61377V7.59131C8.89658 8.17008 9.08342 8.66227 9.45712 9.06787C9.83538 9.46891 10.3139 9.66943 10.8927 9.66943C11.5717 9.66943 12.1026 9.40967 12.4854 8.89014C12.8728 8.37061 13.0665 7.64827 13.0665 6.72314C13.0665 5.94385 12.8865 5.33317 12.5265 4.89111C12.1664 4.44906 11.6788 4.22803 11.0636 4.22803C10.4119 4.22803 9.88779 4.45589 9.4913 4.91162C9.09482 5.36279 8.89658 5.93018 8.89658 6.61377ZM19.6563 4.5835C19.4604 4.43311 19.1778 4.35791 18.8087 4.35791C18.3302 4.35791 17.9291 4.5835 17.6056 5.03467C17.2865 5.48584 17.127 6.10107 17.127 6.88037V10.4487H16.006V3.44873H17.127V4.89111H17.1544C17.3139 4.39893 17.5577 4.01611 17.8858 3.74268C18.214 3.46468 18.5808 3.32568 18.9864 3.32568C19.2781 3.32568 19.5014 3.35758 19.6563 3.42139V4.5835ZM21.4474 1.67139C21.2468 1.67139 21.0759 1.60303 20.9347 1.46631C20.7934 1.32959 20.7227 1.15641 20.7227 0.946777C20.7227 0.737142 20.7934 0.563965 20.9347 0.427246C21.0759 0.28597 21.2468 0.215332 21.4474 0.215332C21.6524 0.215332 21.8256 0.28597 21.9669 0.427246C22.1127 0.563965 22.1856 0.737142 22.1856 0.946777C22.1856 1.1473 22.1127 1.3182 21.9669 1.45947C21.8256 1.60075 21.6524 1.67139 21.4474 1.67139ZM21.9942 10.4487H20.8731V3.44873H21.9942V10.4487ZM30.0743 10.4487H28.9532V6.45654C28.9532 4.97087 28.4109 4.22803 27.3263 4.22803C26.7657 4.22803 26.3009 4.43994 25.9317 4.86377C25.5671 5.28304 25.3849 5.81396 25.3849 6.45654V10.4487H24.2638V3.44873H25.3849V4.61084H25.4122C25.9408 3.72673 26.7065 3.28467 27.7091 3.28467C28.4747 3.28467 29.0603 3.53304 29.4659 4.02979C29.8715 4.52197 30.0743 5.23519 30.0743 6.16943V10.4487ZM35.4405 10.3804C35.1762 10.5262 34.8276 10.5991 34.3946 10.5991C33.1687 10.5991 32.5558 9.91553 32.5558 8.54834V4.40576H31.3526V3.44873H32.5558V1.73975L33.6768 1.37744V3.44873H35.4405V4.40576H33.6768V8.3501C33.6768 8.8195 33.7566 9.15446 33.9161 9.35498C34.0756 9.5555 34.3399 9.65576 34.7091 9.65576C34.9916 9.65576 35.2354 9.57829 35.4405 9.42334V10.3804ZM44.922 3.21631C44.922 2.91553 44.8741 2.65348 44.7784 2.43018C44.6873 2.20687 44.5597 2.0223 44.3956 1.87646C44.2361 1.72607 44.047 1.61442 43.8282 1.5415C43.6095 1.46859 43.3725 1.43213 43.1173 1.43213C42.8985 1.43213 42.6843 1.46175 42.4747 1.521C42.2651 1.58024 42.06 1.66227 41.8595 1.76709C41.6635 1.87191 41.4721 1.99723 41.2852 2.14307C41.103 2.2889 40.9321 2.45068 40.7726 2.62842V1.42529C41.087 1.11995 41.4379 0.887533 41.8253 0.728027C42.2172 0.563965 42.6935 0.481934 43.254 0.481934C43.655 0.481934 44.0265 0.541178 44.3683 0.659668C44.7101 0.7736 45.0063 0.94222 45.2569 1.16553C45.5076 1.38883 45.7035 1.66455 45.8448 1.99268C45.9907 2.3208 46.0636 2.69678 46.0636 3.12061C46.0636 3.50798 46.018 3.85889 45.9268 4.17334C45.8403 4.48779 45.7058 4.78402 45.5235 5.06201C45.3458 5.34001 45.1202 5.60661 44.8468 5.86182C44.5733 6.11702 44.252 6.37679 43.8829 6.64111C43.4226 6.96924 43.0421 7.24951 42.7413 7.48193C42.4451 7.71436 42.2081 7.93311 42.0304 8.13818C41.8572 8.3387 41.7341 8.5415 41.6612 8.74658C41.5929 8.9471 41.5587 9.17952 41.5587 9.44385H46.4395V10.4487H40.3897V9.96338C40.3897 9.54411 40.4353 9.17497 40.5265 8.85596C40.6176 8.53695 40.768 8.23389 40.9776 7.94678C41.1873 7.65967 41.4607 7.37256 41.7979 7.08545C42.1397 6.79834 42.5567 6.47477 43.0489 6.11475C43.4044 5.85954 43.7006 5.61572 43.9376 5.3833C44.1791 5.15088 44.3728 4.91846 44.5186 4.68604C44.6645 4.45361 44.767 4.21891 44.8263 3.98193C44.8901 3.7404 44.922 3.48519 44.922 3.21631ZM52.1407 10.4487H51.0196V1.979C50.933 2.06559 50.8054 2.16585 50.6368 2.27979C50.4727 2.38916 50.2859 2.49854 50.0763 2.60791C49.8712 2.71729 49.6524 2.81982 49.42 2.91553C49.1921 3.01123 48.9688 3.08643 48.7501 3.14111V2.00635C48.9962 1.93799 49.256 1.84684 49.5294 1.73291C49.8074 1.61442 50.0785 1.48454 50.3429 1.34326C50.6117 1.19743 50.8647 1.04704 51.1017 0.89209C51.3386 0.732585 51.5437 0.577637 51.7169 0.427246H52.1407V10.4487Z" fill="#32302C"/>
</svg>
