<svg width="27" height="17" viewBox="0 0 27 17" fill="none" xmlns="http://www.w3.org/2000/svg">
<path d="M7.8158 -2.56104H4.98572V6.20264H3.83728V-2.56104H1.01404V-3.6001H7.8158V-2.56104ZM12.6488 6.20264H11.5277V5.10889H11.5004C11.0127 5.94743 10.295 6.3667 9.34705 6.3667C8.64978 6.3667 8.10291 6.18213 7.70642 5.81299C7.31449 5.44385 7.11853 4.95394 7.11853 4.34326C7.11853 3.03532 7.88871 2.27425 9.42908 2.06006L11.5277 1.76611C11.5277 0.57666 11.0469 -0.0180664 10.0853 -0.0180664C9.24223 -0.0180664 8.48116 0.269043 7.80212 0.843262V-0.305176C8.49028 -0.742676 9.28324 -0.961426 10.181 -0.961426C11.8262 -0.961426 12.6488 -0.0909831 12.6488 1.6499V6.20264ZM11.5277 2.66162L9.83923 2.89404C9.3197 2.96696 8.92778 3.09684 8.66345 3.28369C8.39913 3.46598 8.26697 3.79183 8.26697 4.26123C8.26697 4.60303 8.38774 4.8833 8.62927 5.10205C8.87537 5.31624 9.20121 5.42334 9.60681 5.42334C10.1628 5.42334 10.6208 5.22965 10.9808 4.84229C11.3454 4.45036 11.5277 3.95589 11.5277 3.35889V2.66162ZM14.3373 5.94971V4.74658C14.948 5.19775 15.6202 5.42334 16.3539 5.42334C17.3383 5.42334 17.8304 5.09521 17.8304 4.43896C17.8304 4.25212 17.7872 4.09489 17.7006 3.96729C17.6185 3.83512 17.5046 3.71891 17.3588 3.61865C17.2175 3.51839 17.0489 3.42952 16.8529 3.35205C16.6615 3.27002 16.4541 3.18571 16.2308 3.09912C15.9209 2.97607 15.6475 2.85303 15.4105 2.72998C15.1781 2.60238 14.9821 2.4611 14.8226 2.30615C14.6677 2.14665 14.5492 1.96663 14.4672 1.76611C14.3897 1.56559 14.351 1.33089 14.351 1.06201C14.351 0.733887 14.4261 0.444499 14.5765 0.193848C14.7269 -0.0613607 14.9274 -0.273275 15.1781 -0.441895C15.4288 -0.615072 15.7136 -0.744954 16.0326 -0.831543C16.3562 -0.918132 16.6888 -0.961426 17.0306 -0.961426C17.6368 -0.961426 18.1791 -0.856608 18.6576 -0.646973V0.487793C18.1426 0.150553 17.5502 -0.0180664 16.8802 -0.0180664C16.6706 -0.0180664 16.4815 0.0069987 16.3129 0.0571289C16.1442 0.102702 15.9984 0.168783 15.8754 0.255371C15.7569 0.34196 15.6635 0.446777 15.5951 0.569824C15.5313 0.688314 15.4994 0.820475 15.4994 0.966309C15.4994 1.1486 15.5313 1.30127 15.5951 1.42432C15.6635 1.54736 15.7614 1.65674 15.889 1.75244C16.0166 1.84814 16.1716 1.93473 16.3539 2.01221C16.5362 2.08968 16.7435 2.17399 16.976 2.26514C17.2858 2.38363 17.5638 2.50667 17.8099 2.63428C18.056 2.75732 18.2657 2.8986 18.4388 3.05811C18.612 3.21305 18.7442 3.39307 18.8353 3.59814C18.931 3.80322 18.9789 4.04704 18.9789 4.32959C18.9789 4.67594 18.9014 4.97673 18.7465 5.23193C18.5961 5.48714 18.3933 5.69906 18.1381 5.86768C17.8829 6.0363 17.5889 6.16162 17.2562 6.24365C16.9235 6.32568 16.5749 6.3667 16.2103 6.3667C15.4903 6.3667 14.8659 6.2277 14.3373 5.94971ZM26.5189 6.20264H24.9467L21.8568 2.83936H21.8295V6.20264H20.7084V-4.16064H21.8295V2.40869H21.8568L24.7963 -0.797363H26.266L23.0189 2.57959L26.5189 6.20264ZM0.733765 23.1826H14.7338V9.18264H0.733765V23.1826Z" fill="#402C1B"/>
</svg>
