<svg width="27" height="18" viewBox="0 0 27 18" fill="none" xmlns="http://www.w3.org/2000/svg">
<path d="M8.03879 -2.31494H5.20871V6.44873H4.06027V-2.31494H1.23703V-3.354H8.03879V-2.31494ZM12.8718 6.44873H11.7507V5.35498H11.7234C11.2357 6.19352 10.518 6.61279 9.57004 6.61279C8.87277 6.61279 8.3259 6.42822 7.92941 6.05908C7.53749 5.68994 7.34152 5.20003 7.34152 4.58936C7.34152 3.28141 8.1117 2.52035 9.65207 2.30615L11.7507 2.01221C11.7507 0.822754 11.2699 0.228027 10.3083 0.228027C9.46522 0.228027 8.70415 0.515137 8.02512 1.08936V-0.059082C8.71327 -0.496582 9.50624 -0.715332 10.404 -0.715332C12.0492 -0.715332 12.8718 0.155111 12.8718 1.896V6.44873ZM11.7507 2.90771L10.0622 3.14014C9.54269 3.21305 9.15077 3.34294 8.88644 3.52979C8.62212 3.71208 8.48996 4.03792 8.48996 4.50732C8.48996 4.84912 8.61073 5.12939 8.85226 5.34814C9.09836 5.56234 9.4242 5.66943 9.8298 5.66943C10.3858 5.66943 10.8438 5.47575 11.2038 5.08838C11.5684 4.69645 11.7507 4.20199 11.7507 3.60498V2.90771ZM14.5603 6.1958V4.99268C15.1709 5.44385 15.8431 5.66943 16.5769 5.66943C17.5612 5.66943 18.0534 5.34131 18.0534 4.68506C18.0534 4.49821 18.0101 4.34098 17.9236 4.21338C17.8415 4.08122 17.7276 3.96501 17.5818 3.86475C17.4405 3.76449 17.2719 3.67562 17.0759 3.59814C16.8845 3.51611 16.6771 3.4318 16.4538 3.34521C16.1439 3.22217 15.8705 3.09912 15.6335 2.97607C15.4011 2.84847 15.2051 2.70719 15.0456 2.55225C14.8907 2.39274 14.7722 2.21273 14.6902 2.01221C14.6127 1.81169 14.5739 1.57699 14.5739 1.30811C14.5739 0.97998 14.6491 0.690592 14.7995 0.439941C14.9499 0.184733 15.1504 -0.027181 15.4011 -0.195801C15.6517 -0.368978 15.9366 -0.498861 16.2556 -0.585449C16.5792 -0.672038 16.9118 -0.715332 17.2536 -0.715332C17.8598 -0.715332 18.4021 -0.610514 18.8806 -0.400879V0.733887C18.3656 0.396647 17.7732 0.228027 17.1032 0.228027C16.8936 0.228027 16.7045 0.253092 16.5359 0.303223C16.3672 0.348796 16.2214 0.414876 16.0984 0.501465C15.9799 0.588053 15.8864 0.692871 15.8181 0.815918C15.7543 0.934408 15.7224 1.06657 15.7224 1.2124C15.7224 1.39469 15.7543 1.54736 15.8181 1.67041C15.8864 1.79346 15.9844 1.90283 16.112 1.99854C16.2396 2.09424 16.3946 2.18083 16.5769 2.2583C16.7592 2.33577 16.9665 2.42008 17.1989 2.51123C17.5088 2.62972 17.7868 2.75277 18.0329 2.88037C18.279 3.00342 18.4887 3.14469 18.6618 3.3042C18.835 3.45915 18.9672 3.63916 19.0583 3.84424C19.154 4.04932 19.2019 4.29313 19.2019 4.57568C19.2019 4.92204 19.1244 5.22282 18.9695 5.47803C18.8191 5.73324 18.6163 5.94515 18.3611 6.11377C18.1058 6.28239 17.8119 6.40771 17.4792 6.48975C17.1465 6.57178 16.7979 6.61279 16.4333 6.61279C15.7133 6.61279 15.0889 6.4738 14.5603 6.1958ZM26.7419 6.44873H25.1696L22.0798 3.08545H22.0525V6.44873H20.9314V-3.91455H22.0525V2.65479H22.0798L25.0193 -0.55127H26.489L23.2419 2.82568L26.7419 6.44873ZM0.956757 23.4287H14.9568V9.42873H0.956757V23.4287Z" fill="#402C1B"/>
</svg>
