<svg width="13" height="14" viewBox="0 0 13 14" fill="none" xmlns="http://www.w3.org/2000/svg">
<path d="M11.1464 1.91117H2.17817C1.93053 1.91117 1.72976 2.11193 1.72976 2.35958V11.3279C1.72976 11.5755 1.93053 11.7763 2.17817 11.7763H11.1464C11.3941 11.7763 11.5949 11.5755 11.5949 11.3279V2.35958C11.5949 2.11193 11.3941 1.91117 11.1464 1.91117ZM2.17817 0.565918H11.1464C12.1371 0.565918 12.9401 1.36897 12.9401 2.35958V11.3279C12.9401 12.3186 12.1371 13.1216 11.1464 13.1216H2.17817C1.18757 13.1216 0.384521 12.3186 0.384521 11.3279V2.35958C0.384521 1.36897 1.18757 0.565918 2.17817 0.565918ZM3.075 3.25642H4.86865V8.63742H3.075V3.25642ZM5.76548 3.25642H7.55913V10.4311H5.76548V3.25642ZM8.45596 3.25642H10.2496V6.84375H8.45596V3.25642Z" fill="#32302C"/>
</svg>
