<svg width="5" height="9" viewBox="0 0 5 9" fill="none" xmlns="http://www.w3.org/2000/svg">
<path d="M4.88026 4.59321C4.88026 4.53223 4.86744 4.476 4.84174 4.42465C4.81928 4.37004 4.78556 4.32026 4.74058 4.27533L0.925569 0.537352C0.838863 0.453857 0.732895 0.412109 0.607653 0.412109C0.527369 0.412109 0.453511 0.431378 0.386074 0.469915C0.318637 0.508451 0.265649 0.561436 0.227116 0.628873C0.18858 0.6931 0.169312 0.766958 0.169312 0.850453C0.169312 0.96927 0.211059 1.07364 0.294553 1.16355L3.80129 4.59321L0.294553 8.02291C0.211059 8.11282 0.169312 8.21717 0.169312 8.336C0.169312 8.41949 0.18858 8.49335 0.227116 8.5576C0.265649 8.62505 0.318637 8.67801 0.386074 8.71657C0.453511 8.75509 0.527369 8.77437 0.607653 8.77437C0.732895 8.77437 0.838863 8.73101 0.925569 8.64428L4.74058 4.91114C4.78556 4.86621 4.81928 4.818 4.84174 4.76666C4.86744 4.71204 4.88026 4.65424 4.88026 4.59321Z" fill="#37352F" fill-opacity="0.4"/>
</svg>
