<svg width="5" height="5" viewBox="0 0 5 5" fill="none" xmlns="http://www.w3.org/2000/svg">
<path d="M4.67389 2.19442C4.67389 2.56281 4.56465 2.92294 4.35998 3.22924C4.15531 3.53555 3.8644 3.77429 3.52405 3.91527C3.1837 4.05625 2.80918 4.09313 2.44787 4.02126C2.08655 3.94939 1.75466 3.77199 1.49416 3.5115C1.23367 3.25101 1.05627 2.91912 0.984399 2.5578C0.912529 2.19649 0.949415 1.82197 1.09039 1.48162C1.23137 1.14127 1.47011 0.850366 1.77642 0.645697C2.08273 0.441029 2.44285 0.331787 2.81125 0.331787C3.30525 0.331787 3.77902 0.528028 4.12834 0.87734C4.47765 1.22665 4.67389 1.70042 4.67389 2.19442Z" fill="#37352F"/>
</svg>
