<svg width="16" height="16" viewBox="0 0 16 16" fill="none" xmlns="http://www.w3.org/2000/svg">
<path d="M7.94652 15.5893C12.1899 15.5893 15.6841 12.0951 15.6841 7.85171C15.6841 3.61571 12.1825 0.114136 7.9391 0.114136C3.70307 0.114136 0.208916 3.61571 0.208916 7.85171C0.208916 12.0951 3.70307 15.5893 7.94652 15.5893ZM7.94652 13.8905C4.60073 13.8905 1.91519 11.1975 1.91519 7.85171C1.91519 4.50593 4.59331 1.81299 7.9391 1.81299C11.2923 1.81299 13.9778 4.50593 13.9852 7.85171C13.9927 11.1975 11.2923 13.8905 7.94652 13.8905ZM7.15273 11.3829C7.43463 11.3829 7.68687 11.2346 7.85007 10.9823L11.1143 5.91546C11.2181 5.75226 11.2997 5.56678 11.2997 5.39616C11.2997 4.99556 10.951 4.72849 10.5727 4.72849C10.3279 4.72849 10.1127 4.86203 9.9495 5.1291L7.13047 9.65441L5.80997 8.00008C5.63192 7.77011 5.44645 7.68109 5.21648 7.68109C4.82328 7.68109 4.50429 7.99266 4.50429 8.39327C4.50429 8.57873 4.57847 8.74936 4.712 8.91999L6.4257 10.9898C6.63342 11.2494 6.8634 11.3829 7.15273 11.3829Z" fill="#6C9B7D"/>
</svg>
