<svg width="26" height="28" viewBox="0 0 26 28" fill="none" xmlns="http://www.w3.org/2000/svg">
<path fill-rule="evenodd" clip-rule="evenodd" d="M16.6404 0.540064L1.88562 1.62912C0.695867 1.7324 0.28125 2.51036 0.28125 3.44301V19.6185C0.28125 20.3452 0.5397 20.9663 1.1612 21.7966L4.62965 26.3071C5.19937 27.0333 5.71713 27.1887 6.80502 27.1367L23.9397 26.0997C25.3889 25.9965 25.8034 25.322 25.8034 24.1815V5.98366C25.8034 5.39411 25.5707 5.22381 24.8846 4.72177C24.8468 4.69415 24.8077 4.66552 24.7673 4.63577L20.0573 1.31781C18.9185 0.488639 18.4523 0.384297 16.6404 0.540064ZM7.1935 5.68531C5.79456 5.77999 5.47669 5.80151 4.68225 5.15463L2.662 3.54749C2.45595 3.33966 2.5593 3.08042 3.07661 3.029L17.2617 1.992C18.4521 1.88809 19.0732 2.30352 19.5393 2.66626L21.9723 4.42916C22.0759 4.48079 22.3343 4.79146 22.0236 4.79146L7.37408 5.67314L7.1935 5.68531ZM5.56177 24.0257V8.57641C5.56177 7.9025 5.76887 7.59125 6.38973 7.53891L23.2142 6.55423C23.7847 6.50239 24.0432 6.86555 24.0432 7.53891V22.8846C24.0432 23.5591 23.9394 24.1302 23.0072 24.1815L6.90747 25.1152C5.97575 25.1666 5.56177 24.856 5.56177 24.0257ZM21.4554 9.40525C21.5587 9.87233 21.4554 10.339 20.9886 10.3914L20.2128 10.5463V21.952C19.5393 22.3148 18.9182 22.5222 18.4007 22.5222C17.5722 22.5222 17.3647 22.2628 16.744 21.4856L11.6699 13.5016V21.2263L13.2755 21.5895C13.2755 21.5895 13.2755 22.5222 11.9801 22.5222L8.40892 22.7299C8.30517 22.5222 8.40892 22.0042 8.77117 21.9004L9.70308 21.6416V11.428L8.40917 11.3241C8.30542 10.857 8.56383 10.1836 9.28917 10.1313L13.1202 9.8725L18.4007 17.9605V10.8056L17.0544 10.6507C16.9511 10.0797 17.3647 9.66508 17.8824 9.61366L21.4554 9.40525Z" fill="black"/>
</svg>
