<svg width="5" height="5" viewBox="0 0 5 5" fill="none" xmlns="http://www.w3.org/2000/svg">
<path d="M4.09149 2.19442C4.09149 2.56281 3.98225 2.92294 3.77758 3.22924C3.57291 3.53555 3.28201 3.77429 2.94165 3.91527C2.6013 4.05625 2.22679 4.09313 1.86547 4.02126C1.50415 3.94939 1.17226 3.77199 0.911766 3.5115C0.651271 3.25101 0.473872 2.91912 0.402002 2.5578C0.330131 2.19649 0.367018 1.82197 0.507997 1.48162C0.648976 1.14127 0.887716 0.850366 1.19403 0.645697C1.50033 0.441029 1.86046 0.331787 2.22885 0.331787C2.72286 0.331787 3.19663 0.528028 3.54594 0.87734C3.89525 1.22665 4.09149 1.70042 4.09149 2.19442Z" fill="#37352F"/>
</svg>
