<svg width="5" height="10" viewBox="0 0 5 10" fill="none" xmlns="http://www.w3.org/2000/svg">
<path d="M4.88026 5.09316C4.88026 5.03218 4.86744 4.97595 4.84174 4.92461C4.81928 4.86999 4.78556 4.82022 4.74058 4.77529L0.925569 1.03735C0.838863 0.953856 0.732895 0.912109 0.607653 0.912109C0.527369 0.912109 0.453511 0.931378 0.386074 0.969914C0.318637 1.00845 0.265649 1.06143 0.227116 1.12887C0.18858 1.1931 0.169312 1.26695 0.169312 1.35045C0.169312 1.46926 0.211059 1.57363 0.294553 1.66355L3.80129 5.09316L0.294553 8.52283C0.211059 8.61274 0.169312 8.71708 0.169312 8.83591C0.169312 8.9194 0.18858 8.99326 0.227116 9.05751C0.265649 9.12495 0.318637 9.17791 0.386074 9.21648C0.453511 9.25499 0.527369 9.27427 0.607653 9.27427C0.732895 9.27427 0.838863 9.23091 0.925569 9.14419L4.74058 5.41109C4.78556 5.36616 4.81928 5.31795 4.84174 5.26661C4.86744 5.21199 4.88026 5.15419 4.88026 5.09316Z" fill="#37352F" fill-opacity="0.4"/>
</svg>
