<svg width="12" height="11" viewBox="0 0 12 11" fill="none" xmlns="http://www.w3.org/2000/svg">
<path fill-rule="evenodd" clip-rule="evenodd" d="M9.67238 0.885757C9.91901 0.885757 10.1208 1.0853 10.1208 1.33417V3.2444C10.1186 3.33633 10.0446 3.41032 9.9504 3.41032C9.90556 3.40807 9.86296 3.39238 9.83157 3.36099L8.45494 1.98437C8.36974 1.89917 8.32266 1.78482 8.32266 1.66599V1.32744C8.32266 1.07857 8.5222 0.879031 8.77107 0.879031L9.67238 0.885757ZM9.67238 10.7508H7.65452C7.40565 10.7508 7.20611 10.549 7.20611 10.3024V7.61194C7.20611 7.36307 7.00432 7.16352 6.7577 7.16352H5.41246C5.16359 7.16352 4.96404 7.36307 4.96404 7.61194V10.3024C4.96404 10.549 4.76226 10.7508 4.51563 10.7508H2.49777C2.2489 10.7508 2.04936 10.549 2.04936 10.3024V6.26222H1.15477H1.15455C0.905678 6.25997 0.703892 6.06043 0.706134 5.81156C0.706134 5.69049 0.753218 5.57839 0.836174 5.49319L5.76648 0.558417C5.94136 0.381294 6.22386 0.381294 6.39874 0.556175L11.3299 5.48871C11.5048 5.66359 11.5048 5.94609 11.3277 6.12097C11.2425 6.20392 11.1282 6.25101 11.0093 6.25101H10.1125V10.289C10.1125 10.5356 9.91072 10.7374 9.66409 10.7374L9.67238 10.7508Z" fill="#55534F"/>
</svg>
