<svg width="12" height="11" viewBox="0 0 12 11" fill="none" xmlns="http://www.w3.org/2000/svg">
<path fill-rule="evenodd" clip-rule="evenodd" d="M9.75199 0.611587C9.99862 0.611587 10.2004 0.811131 10.2004 1.06V2.97023C10.1982 3.06216 10.1242 3.13615 10.03 3.13615C9.98517 3.1339 9.94257 3.11821 9.91118 3.08682L8.53455 1.7102C8.44936 1.625 8.40227 1.51065 8.40227 1.39182V1.05327C8.40227 0.804404 8.60182 0.604861 8.85069 0.604861L9.75199 0.611587ZM9.75199 10.4767H7.73414C7.48527 10.4767 7.28572 10.2749 7.28572 10.0282V7.33777C7.28572 7.0889 7.08394 6.88935 6.83731 6.88935H5.49207C5.2432 6.88935 5.04366 7.0889 5.04366 7.33777V10.0282C5.04366 10.2749 4.84187 10.4767 4.59525 10.4767H2.57739C2.32852 10.4767 2.12898 10.2749 2.12898 10.0282V5.98805H1.23439H1.23417C0.985298 5.9858 0.783513 5.78626 0.785755 5.53739C0.785755 5.41632 0.832838 5.30422 0.915794 5.21902L5.84609 0.284247C6.02098 0.107124 6.30348 0.107124 6.47836 0.282005L11.4096 5.21454C11.5844 5.38942 11.5844 5.67192 11.4073 5.8468C11.3221 5.92975 11.2078 5.97684 11.0889 5.97684H10.1921V10.0148C10.1921 10.2614 9.99033 10.4632 9.7437 10.4632L9.75199 10.4767Z" fill="#55534F"/>
</svg>
