<svg width="16" height="9" viewBox="0 0 16 9" fill="none" xmlns="http://www.w3.org/2000/svg">
<path fill-rule="evenodd" clip-rule="evenodd" d="M15.0579 7.98497H12.2194H12.2172C12.0827 7.98497 11.9638 7.9065 11.91 7.78543L11.9078 7.78318C11.6342 7.18455 11.1813 6.68905 10.6096 6.3662L10.6074 6.36395C10.5401 6.3236 10.5177 6.2384 10.5558 6.17338C10.567 6.15096 10.585 6.13302 10.6074 6.11957H10.6051C11.1387 5.85276 11.7284 5.72048 12.3248 5.73617C14.2059 5.73617 15.1498 6.78546 15.2372 7.74283C15.2507 7.85493 15.17 7.95807 15.0556 7.97376C15.0489 7.97376 15.0422 7.97376 15.0377 7.97376L15.0579 7.98497ZM12.3405 5.29224C11.502 5.29224 10.771 4.57927 10.771 3.43581C10.771 2.4493 11.4033 1.70718 12.3383 1.70718C13.271 1.70718 13.9055 2.4493 13.9055 3.43357C13.9055 4.57702 13.1723 5.29 12.336 5.29L12.3405 5.29224ZM8.08056 5.51869C7.00213 5.51869 6.06046 4.58375 6.06046 3.07932C6.06024 1.78341 6.87433 0.808105 8.07832 0.808105C9.28007 0.808105 10.0962 1.78341 10.0962 3.0782C10.096 4.58039 9.15452 5.51645 8.07608 5.51645L8.08056 5.51869ZM11.6656 8.60154C11.6791 8.73831 11.5804 8.86162 11.4437 8.87731C11.4347 8.87731 11.428 8.87731 11.419 8.87731H4.73316C4.59415 8.87283 4.48205 8.75848 4.48653 8.61948C4.48653 8.61051 4.48653 8.60378 4.48653 8.59481C4.59415 7.44463 5.75554 6.18235 8.0716 6.18235C10.3877 6.18235 11.5468 7.44239 11.6567 8.59257L11.6656 8.60154ZM1.10325 7.98273C0.986666 7.97824 0.896983 7.88183 0.901467 7.76749C0.901467 7.76076 0.901467 7.75404 0.901467 7.74955C0.988908 6.79219 1.93282 5.74066 3.81391 5.74066H3.81167C4.40582 5.72496 4.99772 5.85725 5.53134 6.12181C5.5986 6.15768 5.62326 6.24288 5.58514 6.31014C5.57169 6.33032 5.55376 6.3505 5.53134 6.36171H5.52909C4.95737 6.68457 4.50447 7.18007 4.23318 7.77646V7.77422C4.17937 7.89304 4.0583 7.97152 3.92602 7.97152L1.10325 7.98273ZM3.8184 5.29C2.97986 5.29 2.24895 4.57702 2.24895 3.43357C2.24895 2.44706 2.88121 1.70493 3.81615 1.70493C4.74885 1.70493 5.38336 2.44706 5.38336 3.43133C5.38336 4.57478 4.6502 5.28776 3.81391 5.28776L3.8184 5.29Z" fill="#55534F"/>
</svg>
