<svg width="13" height="13" viewBox="0 0 13 13" fill="none" xmlns="http://www.w3.org/2000/svg">
<path d="M5.63229 0.631348C2.9581 0.631348 0.769348 2.82007 0.769348 5.49427C0.769348 8.16846 2.9581 10.3572 5.63229 10.3572C6.61961 10.3572 7.54271 10.0628 8.31195 9.55177L11.2139 12.4158C11.5937 12.7956 12.2119 12.7956 12.5916 12.4158C12.9715 12.036 12.9715 11.4229 12.5916 11.043L9.68473 8.17394C10.1957 7.4047 10.4952 6.4816 10.4952 5.49427C10.4952 2.82007 8.30646 0.631348 5.63229 0.631348ZM5.63229 2.57652C7.2552 2.57652 8.55004 3.87133 8.55004 5.49427C8.55004 7.11719 7.2552 8.41203 5.63229 8.41203C4.00936 8.41203 2.71452 7.11719 2.71452 5.49427C2.71452 3.87133 4.00936 2.57652 5.63229 2.57652Z" fill="#37352F" fill-opacity="0.6"/>
</svg>
