<svg width="12" height="12" viewBox="0 0 12 12" fill="none" xmlns="http://www.w3.org/2000/svg">
<path d="M6.09032 11.2165C6.4097 11.2165 6.67651 10.9622 6.67651 10.6491V6.3174H10.8842C11.1973 6.3174 11.4649 6.05059 11.4649 5.7312C11.4633 5.57785 11.4015 5.43126 11.2929 5.32296C11.1843 5.21466 11.0376 5.1533 10.8842 5.15207H6.67651V0.813305C6.67651 0.500983 6.4097 0.246731 6.09032 0.246731C5.93837 0.245264 5.79204 0.304061 5.68335 0.41025C5.57466 0.516439 5.51248 0.661367 5.51041 0.813305V5.15207H1.29643C1.14307 5.1533 0.996317 5.21466 0.887725 5.32296C0.779132 5.43126 0.717376 5.57785 0.715736 5.7312C0.715736 6.05059 0.983328 6.3174 1.29643 6.3174H5.51041V10.6491C5.51041 10.9622 5.77094 11.2165 6.09032 11.2165Z" fill="#37352F" fill-opacity="0.65"/>
</svg>
