<svg width="15" height="15" viewBox="0 0 15 15" fill="none" xmlns="http://www.w3.org/2000/svg">
<path d="M3.10284 13.8912C3.40552 14.1182 3.77757 14.0425 4.20636 13.7335L7.48539 11.3247L10.7581 13.7335C11.1869 14.0425 11.559 14.1182 11.8616 13.8912C12.158 13.6642 12.2211 13.2921 12.0508 12.794L10.7581 8.94747L14.0623 6.57645C14.4912 6.27377 14.6677 5.93326 14.5479 5.58014C14.4281 5.22701 14.0939 5.05045 13.5642 5.05676L9.51584 5.08828L8.27994 1.21653C8.11593 0.712069 7.8574 0.440918 7.48539 0.440918C7.10704 0.440918 6.84849 0.712069 6.68455 1.21653L5.45491 5.08828L1.40027 5.05676C0.870582 5.05045 0.536376 5.22701 0.416564 5.57383C0.296759 5.93326 0.479626 6.27377 0.902117 6.57645L4.20636 8.94747L2.91367 12.794C2.74341 13.2921 2.80647 13.6642 3.10284 13.8912ZM4.23159 12.3463C4.21897 12.3337 4.21897 12.3274 4.23159 12.2895L5.42338 8.9285C5.53058 8.61323 5.49905 8.42404 5.20268 8.22855L2.25786 6.21072C2.23264 6.1918 2.22003 6.17919 2.23264 6.16657C2.23895 6.14766 2.25156 6.14766 2.28308 6.14766L5.85218 6.22964C6.18008 6.24224 6.35034 6.13505 6.44492 5.81345L7.44753 2.39572C7.46012 2.35788 7.4665 2.34527 7.48539 2.34527C7.49798 2.34527 7.51057 2.35788 7.51695 2.39572L8.5195 5.81345C8.6141 6.13505 8.78441 6.24224 9.11856 6.22964L12.6814 6.14766C12.7192 6.14766 12.7318 6.14766 12.7381 6.16657C12.7444 6.17919 12.7318 6.1918 12.7066 6.21072L9.76178 8.22855C9.47169 8.42404 9.43391 8.61323 9.5474 8.9285L10.7329 12.2895C10.7455 12.3274 10.7455 12.3337 10.7329 12.3463C10.7266 12.3588 10.7077 12.3526 10.6824 12.3337L7.8574 10.1518C7.59258 9.95002 7.3719 9.95002 7.10704 10.1518L4.28203 12.3337C4.25681 12.3526 4.24419 12.3588 4.23159 12.3463Z" fill="#37352F"/>
</svg>
