<svg width="13" height="14" viewBox="0 0 13 14" fill="none" xmlns="http://www.w3.org/2000/svg">
<path d="M12.8765 7.75822V6.32329L11.1366 5.74932L10.7331 4.77178L11.5223 3.12161L10.5089 2.1082L8.88561 2.92431L7.90807 2.52074L7.28926 0.798828H5.85434L5.28934 2.53868L4.29386 2.94225L2.6437 2.15304L1.63029 3.16646L2.4464 4.78972L2.04283 5.76726L0.320923 6.3771V7.80306L2.06077 8.37703L2.46434 9.35458L1.67513 11.0047L2.68854 12.0182L4.3118 11.202L5.28934 11.6056L5.90815 13.3275H7.3341L7.8991 11.5877L8.89458 11.1841L10.5447 11.9733L11.5582 10.9599L10.7331 9.33664L11.1546 8.35909L12.8765 7.74028V7.75822ZM6.59871 9.75815C5.10997 9.75815 3.90823 8.5564 3.90823 7.06766C3.90823 5.57893 5.10997 4.37718 6.59871 4.37718C8.08744 4.37718 9.28918 5.57893 9.28918 7.06766C9.28918 8.5564 8.08744 9.75815 6.59871 9.75815Z" fill="#37352F" fill-opacity="0.6"/>
</svg>
