<svg width="11" height="12" viewBox="0 0 11 12" fill="none" xmlns="http://www.w3.org/2000/svg">
<path d="M5.37518 11.4494C5.69456 11.4494 5.96137 11.1951 5.96137 10.882V6.55031H10.1691C10.4822 6.55031 10.7498 6.2835 10.7498 5.96411C10.7481 5.81076 10.6864 5.66417 10.5778 5.55587C10.4692 5.44757 10.3224 5.38621 10.1691 5.38498H5.96137V1.04622C5.96137 0.733893 5.69456 0.479641 5.37518 0.479641C5.22324 0.478174 5.0769 0.536971 4.96821 0.64316C4.85952 0.749349 4.79734 0.894277 4.79527 1.04622V5.38498H0.581306C0.427945 5.38621 0.28119 5.44757 0.172598 5.55587C0.064006 5.66417 0.00225013 5.81076 0.000610352 5.96411C0.000610352 6.2835 0.268201 6.55031 0.581306 6.55031H4.79527V10.882C4.79527 11.1951 5.0558 11.4494 5.37518 11.4494Z" fill="#37352F" fill-opacity="0.65"/>
</svg>
