<svg width="13" height="11" viewBox="0 0 13 11" fill="none" xmlns="http://www.w3.org/2000/svg">
<path d="M0.728943 9.6501C0.728943 10.3272 1.10564 10.7325 1.73505 10.7325H7.75737C7.78597 10.7325 7.81463 10.7325 7.84323 10.7277V10.7325H11.4624C12.0918 10.7325 12.4684 10.3272 12.4684 9.6501V3.86136C12.4684 3.18902 12.0918 2.77895 11.4624 2.77895H8.76349V1.45814C8.76349 0.781041 8.38682 0.375732 7.75737 0.375732H1.73505C1.10564 0.375732 0.728943 0.781041 0.728943 1.45814V9.6501ZM1.7732 9.45932V1.64887C1.7732 1.49629 1.85426 1.41999 2.00208 1.41999H7.48561C7.63816 1.41999 7.71921 1.49629 7.71921 1.64887V9.45932C7.71921 9.60713 7.63816 9.68818 7.48561 9.68818H6.48426V8.31969C6.48426 7.91917 6.28399 7.70935 5.90253 7.70935H3.59468C3.20845 7.70935 3.01295 7.91917 3.01295 8.31969V9.68818H2.00208C1.85426 9.68818 1.7732 9.60713 1.7732 9.45932ZM3.20368 3.46559H4.09535C4.20979 3.46559 4.28131 3.38929 4.28131 3.27486V2.40226C4.28131 2.29259 4.20979 2.21629 4.09535 2.21629H3.20368C3.08924 2.21629 3.01772 2.29259 3.01772 2.40226V3.27486C3.01772 3.38929 3.08924 3.46559 3.20368 3.46559ZM5.39232 3.46559H6.28876C6.39843 3.46559 6.47473 3.38929 6.47473 3.27486V2.40226C6.47473 2.29259 6.39843 2.21629 6.28876 2.21629H5.39232C5.28265 2.21629 5.21113 2.29259 5.21113 2.40226V3.27486C5.21113 3.38929 5.28265 3.46559 5.39232 3.46559ZM8.76349 9.6501V3.82321H11.1905C11.3432 3.82321 11.4242 3.90427 11.4242 4.05209V9.45932C11.4242 9.60713 11.3432 9.68818 11.1905 9.68818H8.76349C8.76349 9.67388 8.76349 9.6644 8.76349 9.6501ZM3.20368 5.24893H4.09535C4.20979 5.24893 4.28131 5.17264 4.28131 5.0582V4.1856C4.28131 4.07116 4.20979 3.99964 4.09535 3.99964H3.20368C3.08924 3.99964 3.01772 4.07116 3.01772 4.1856V5.0582C3.01772 5.17264 3.08924 5.24893 3.20368 5.24893ZM5.39232 5.24893H6.28876C6.39843 5.24893 6.47473 5.17264 6.47473 5.0582V4.1856C6.47473 4.07116 6.39843 3.99964 6.28876 3.99964H5.39232C5.28265 3.99964 5.21113 4.07116 5.21113 4.1856V5.0582C5.21113 5.17264 5.28265 5.24893 5.39232 5.24893ZM9.72189 5.58271H10.4657C10.5564 5.58271 10.6184 5.52073 10.6184 5.42536V4.70058C10.6184 4.60998 10.5564 4.54799 10.4657 4.54799H9.72189C9.62654 4.54799 9.56934 4.60998 9.56934 4.70058V5.42536C9.56934 5.52073 9.62654 5.58271 9.72189 5.58271ZM3.20368 7.03225H4.09535C4.20979 7.03225 4.28131 6.95601 4.28131 6.84155V5.96895C4.28131 5.8545 4.20979 5.77821 4.09535 5.77821H3.20368C3.08924 5.77821 3.01772 5.8545 3.01772 5.96895V6.84155C3.01772 6.95601 3.08924 7.03225 3.20368 7.03225ZM5.39232 7.03225H6.28876C6.39843 7.03225 6.47473 6.95601 6.47473 6.84155V5.96895C6.47473 5.8545 6.39843 5.77821 6.28876 5.77821H5.39232C5.28265 5.77821 5.21113 5.8545 5.21113 5.96895V6.84155C5.21113 6.95601 5.28265 7.03225 5.39232 7.03225ZM9.72189 7.29927H10.4657C10.5564 7.29927 10.6184 7.23733 10.6184 7.14198V6.41716C10.6184 6.32657 10.5564 6.26458 10.4657 6.26458H9.72189C9.62654 6.26458 9.56934 6.32657 9.56934 6.41716V7.14198C9.56934 7.23733 9.62654 7.29927 9.72189 7.29927ZM9.72189 9.0159H10.4657C10.5564 9.0159 10.6184 8.95389 10.6184 8.85854V8.13373C10.6184 8.04312 10.5564 7.98118 10.4657 7.98118H9.72189C9.62654 7.98118 9.56934 8.04312 9.56934 8.13373V8.85854C9.56934 8.95389 9.62654 9.0159 9.72189 9.0159ZM3.81402 8.62012C3.81402 8.52477 3.8617 8.47705 3.95707 8.47705H5.54014C5.63073 8.47705 5.68319 8.52477 5.68319 8.62012V9.68818H3.81402V8.62012Z" fill="#37352F" fill-opacity="0.6"/>
</svg>
