<svg width="17" height="16" viewBox="0 0 17 16" fill="none" xmlns="http://www.w3.org/2000/svg">
<path d="M8.47822 1.672C8.9085 1.672 9.25717 1.33075 9.25717 0.915305C9.25717 0.492444 8.9085 0.136353 8.47822 0.136353C8.06278 0.136353 7.72152 0.492444 7.72152 0.915305C7.72152 1.32333 8.0702 1.672 8.47822 1.672ZM10.6371 2.02067C11.0599 2.02067 11.4086 1.672 11.4086 1.25656C11.4086 0.826281 11.0599 0.485025 10.6371 0.485025C10.2142 0.485025 9.87292 0.826281 9.87292 1.25656C9.87292 1.672 10.2142 2.02067 10.6371 2.02067ZM6.34167 2.02067C6.75711 2.02067 7.10577 1.672 7.10577 1.25656C7.10577 0.826281 6.75711 0.485025 6.34167 0.485025C5.9188 0.485025 5.57013 0.826281 5.57013 1.25656C5.57013 1.672 5.9188 2.02067 6.34167 2.02067ZM12.5732 3.00734C12.9961 3.00734 13.3448 2.66609 13.3448 2.24322C13.3448 1.82037 12.9961 1.47169 12.5732 1.47169C12.1578 1.47169 11.8091 1.82037 11.8091 2.24322C11.8091 2.65866 12.1578 3.00734 12.5732 3.00734ZM4.40541 3.00734C4.82086 3.00734 5.16952 2.65866 5.16952 2.24322C5.16952 1.82037 4.82827 1.47169 4.40541 1.47169C3.98255 1.47169 3.63388 1.82037 3.63388 2.24322C3.63388 2.66609 3.98255 3.00734 4.40541 3.00734ZM14.1163 4.5504C14.5392 4.5504 14.8879 4.20173 14.8879 3.78629C14.8879 3.36343 14.5392 3.01476 14.1163 3.01476C13.7009 3.01476 13.3522 3.36343 13.3522 3.78629C13.3522 4.20173 13.7009 4.5504 14.1163 4.5504ZM2.87718 4.5504C3.29262 4.5504 3.6413 4.20173 3.6413 3.78629C3.6413 3.36343 3.29262 3.01476 2.87718 3.01476C2.45432 3.01476 2.10564 3.36343 2.10564 3.78629C2.10564 4.20173 2.45432 4.5504 2.87718 4.5504ZM15.0956 6.47182C15.5185 6.47182 15.8672 6.13057 15.8672 5.7077C15.8672 5.28484 15.5185 4.93617 15.0956 4.93617C14.6802 4.93617 14.3315 5.28484 14.3315 5.7077C14.3315 6.12314 14.6802 6.47182 15.0956 6.47182ZM1.89792 6.47182C2.30595 6.47182 2.65462 6.12314 2.65462 5.7077C2.65462 5.28484 2.31336 4.93617 1.89792 4.93617C1.46764 4.93617 1.12639 5.28484 1.12639 5.7077C1.12639 6.13057 1.46764 6.47182 1.89792 6.47182ZM15.4665 8.62321C15.8894 8.62321 16.2381 8.27453 16.2381 7.85168C16.2381 7.43624 15.8894 7.08756 15.4665 7.08756C15.0511 7.08756 14.7024 7.43624 14.7024 7.85168C14.7024 8.27453 15.0511 8.62321 15.4665 8.62321ZM1.53441 8.62321C1.94986 8.62321 2.29852 8.27453 2.29852 7.85168C2.29852 7.43624 1.94986 7.08756 1.53441 7.08756C1.11155 7.08756 0.762878 7.43624 0.762878 7.85168C0.762878 8.27453 1.11155 8.62321 1.53441 8.62321ZM15.0956 10.7746C15.5185 10.7746 15.8672 10.4259 15.8672 10.0031C15.8672 9.58021 15.5185 9.23894 15.0956 9.23894C14.6802 9.23894 14.3315 9.58762 14.3315 10.0031C14.3315 10.4259 14.6802 10.7746 15.0956 10.7746ZM1.89792 10.7746C2.31336 10.7746 2.65462 10.4259 2.65462 10.0031C2.65462 9.58762 2.30595 9.23894 1.89792 9.23894C1.46764 9.23894 1.12639 9.58021 1.12639 10.0031C1.12639 10.4259 1.46764 10.7746 1.89792 10.7746ZM14.1163 12.696C14.5392 12.696 14.8879 12.3474 14.8879 11.9244C14.8879 11.509 14.5392 11.1604 14.1163 11.1604C13.7009 11.1604 13.3522 11.509 13.3522 11.9244C13.3522 12.3474 13.7009 12.696 14.1163 12.696ZM2.87718 12.696C3.29262 12.696 3.6413 12.3474 3.6413 11.9244C3.6413 11.509 3.29262 11.1604 2.87718 11.1604C2.45432 11.1604 2.10564 11.509 2.10564 11.9244C2.10564 12.3474 2.45432 12.696 2.87718 12.696ZM12.5732 14.239C12.9961 14.239 13.3448 13.8904 13.3448 13.4675C13.3448 13.0447 12.9961 12.7035 12.5732 12.7035C12.1578 12.7035 11.8091 13.0521 11.8091 13.4675C11.8091 13.8904 12.1578 14.239 12.5732 14.239ZM4.40541 14.239C4.82827 14.239 5.16952 13.8904 5.16952 13.4675C5.16952 13.0521 4.82086 12.7035 4.40541 12.7035C3.98255 12.7035 3.63388 13.0447 3.63388 13.4675C3.63388 13.8904 3.98255 14.239 4.40541 14.239ZM10.6371 15.2257C11.0599 15.2257 11.4086 14.8845 11.4086 14.4542C11.4086 14.0388 11.0599 13.6901 10.6371 13.6901C10.2142 13.6901 9.87292 14.0388 9.87292 14.4542C9.87292 14.8845 10.2142 15.2257 10.6371 15.2257ZM6.34167 15.2257C6.75711 15.2257 7.10577 14.8845 7.10577 14.4542C7.10577 14.0388 6.75711 13.6901 6.34167 13.6901C5.9188 13.6901 5.57013 14.0388 5.57013 14.4542C5.57013 14.8845 5.9188 15.2257 6.34167 15.2257ZM8.47822 15.5744C8.9085 15.5744 9.25717 15.2183 9.25717 14.7955C9.25717 14.38 8.9085 14.0388 8.47822 14.0388C8.0702 14.0388 7.72152 14.3875 7.72152 14.7955C7.72152 15.2183 8.06278 15.5744 8.47822 15.5744Z" fill="#91918E"/>
</svg>
