<svg width="17" height="16" viewBox="0 0 17 16" fill="none" xmlns="http://www.w3.org/2000/svg">
<path d="M8.72351 15.5893C12.9669 15.5893 16.4611 12.0951 16.4611 7.85171C16.4611 3.61571 12.9595 0.114136 8.71608 0.114136C4.48006 0.114136 0.985901 3.61571 0.985901 7.85171C0.985901 12.0951 4.48006 15.5893 8.72351 15.5893ZM8.72351 13.8905C5.37772 13.8905 2.69218 11.1975 2.69218 7.85171C2.69218 4.50593 5.37029 1.81299 8.71608 1.81299C12.0693 1.81299 14.7548 4.50593 14.7622 7.85171C14.7697 11.1975 12.0693 13.8905 8.72351 13.8905ZM7.32139 10.7894L11.6168 8.27457C11.9358 8.08911 11.9284 7.62915 11.6168 7.44369L7.32139 4.92138C6.98755 4.72849 6.55727 4.8917 6.55727 5.26263V10.4483C6.55727 10.8118 6.96529 10.9972 7.32139 10.7894Z" fill="#5B97BD"/>
</svg>
