<svg width="17" height="16" viewBox="0 0 17 16" fill="none" xmlns="http://www.w3.org/2000/svg">
<path d="M4.81866 15.2994C4.99689 15.2994 5.16066 15.2513 5.30999 15.1549C5.45931 15.0585 5.64235 14.9141 5.85912 14.7214L8.3519 12.5032H12.9906C13.7083 12.5032 14.3129 12.3755 14.8042 12.1202C15.2955 11.8601 15.6664 11.4844 15.9169 10.9931C16.1722 10.5018 16.2998 9.90206 16.2998 9.194V3.65932C16.2998 2.95124 16.1722 2.35153 15.9169 1.86021C15.6664 1.36888 15.2955 0.995562 14.8042 0.74027C14.3129 0.480155 13.7083 0.350098 12.9906 0.350098H3.68427C2.96654 0.350098 2.36202 0.480155 1.87069 0.74027C1.37936 0.995562 1.00605 1.36888 0.750752 1.86021C0.500271 2.35153 0.375031 2.95124 0.375031 3.65932V9.194C0.375031 9.90206 0.500271 10.5018 0.750752 10.9931C1.00605 11.4844 1.37936 11.8601 1.87069 12.1202C2.36202 12.3755 2.96654 12.5032 3.68427 12.5032H4.03109V14.3818C4.03109 14.6612 4.09853 14.8827 4.2334 15.0465C4.37309 15.2151 4.56818 15.2994 4.81866 15.2994ZM5.1149 13.9772V11.8818C5.1149 11.6843 5.07396 11.5446 4.99207 11.4627C4.91018 11.3809 4.77049 11.3399 4.57299 11.3399H3.68427C2.95209 11.3399 2.41019 11.1593 2.05855 10.798C1.71173 10.432 1.53832 9.8948 1.53832 9.18673V3.65932C1.53832 2.95605 1.71173 2.42378 2.05855 2.06251C2.41019 1.69643 2.95209 1.51338 3.68427 1.51338H12.9906C13.7179 1.51338 14.2574 1.69643 14.6091 2.06251C14.9607 2.42378 15.1365 2.95605 15.1365 3.65932V9.18673C15.1365 9.8948 14.9607 10.432 14.6091 10.798C14.2574 11.1593 13.7179 11.3399 12.9906 11.3399H8.30851C8.10619 11.3399 7.94247 11.3616 7.81723 11.405C7.69199 11.4483 7.5619 11.5398 7.42704 11.6795L5.1149 13.9772ZM4.61635 4.43244H11.9646C12.085 4.43244 12.1837 4.39149 12.2608 4.30961C12.3428 4.22772 12.3836 4.12897 12.3836 4.01337C12.3836 3.89776 12.3428 3.80142 12.2608 3.72435C12.1837 3.64247 12.085 3.60152 11.9646 3.60152H4.61635C4.49593 3.60152 4.39477 3.64247 4.31288 3.72435C4.23581 3.80142 4.19728 3.89776 4.19728 4.01337C4.19728 4.12897 4.23581 4.22772 4.31288 4.30961C4.39477 4.39149 4.49593 4.43244 4.61635 4.43244ZM4.61635 6.78071H11.9646C12.085 6.78071 12.1837 6.74217 12.2608 6.66509C12.3428 6.58316 12.3836 6.48207 12.3836 6.3616C12.3836 6.25082 12.3428 6.15451 12.2608 6.07258C12.1837 5.98588 12.085 5.94256 11.9646 5.94256H4.61635C4.49593 5.94256 4.39477 5.98588 4.31288 6.07258C4.23581 6.15451 4.19728 6.25082 4.19728 6.3616C4.19728 6.48207 4.23581 6.58316 4.31288 6.66509C4.39477 6.74217 4.49593 6.78071 4.61635 6.78071ZM4.61635 9.13615H9.39237C9.50793 9.13615 9.60667 9.09761 9.68859 9.02053C9.77045 8.93867 9.81141 8.83993 9.81141 8.72431C9.81141 8.60391 9.77045 8.50275 9.68859 8.42082C9.60667 8.33897 9.50793 8.298 9.39237 8.298H4.61635C4.49593 8.298 4.39477 8.33897 4.31288 8.42082C4.23581 8.50275 4.19728 8.60391 4.19728 8.72431C4.19728 8.83993 4.23581 8.93867 4.31288 9.02053C4.39477 9.09761 4.49593 9.13615 4.61635 9.13615Z" fill="#37352F"/>
</svg>
