<svg width="4" height="5" viewBox="0 0 4 5" fill="none" xmlns="http://www.w3.org/2000/svg">
<path d="M3.88269 2.19442C3.88269 2.56281 3.77345 2.92294 3.56878 3.22924C3.36411 3.53555 3.07321 3.77429 2.73285 3.91527C2.3925 4.05625 2.01798 4.09313 1.65667 4.02126C1.29535 3.94939 0.96346 3.77199 0.702965 3.5115C0.44247 3.25101 0.265071 2.91912 0.193201 2.5578C0.12133 2.19649 0.158217 1.82197 0.299196 1.48162C0.440174 1.14127 0.678914 0.850366 0.985223 0.645697C1.29153 0.441029 1.65166 0.331787 2.02005 0.331787C2.51405 0.331787 2.98782 0.528028 3.33714 0.87734C3.68645 1.22665 3.88269 1.70042 3.88269 2.19442Z" fill="#37352F"/>
</svg>
