<svg width="13" height="13" viewBox="0 0 13 13" fill="none" xmlns="http://www.w3.org/2000/svg">
<path d="M6.47488 12.6619C6.83989 12.6619 7.14481 12.3713 7.14481 12.0135V7.06295H11.9536C12.3114 7.06295 12.6172 6.75802 12.6172 6.39301C12.6154 6.21775 12.5448 6.05022 12.4207 5.92644C12.2966 5.80267 12.1289 5.73255 11.9536 5.73115H7.14481V0.772546C7.14481 0.415605 6.83989 0.125031 6.47488 0.125031C6.30123 0.123354 6.13399 0.190551 6.00978 0.31191C5.88556 0.433269 5.81449 0.598902 5.81213 0.772546V5.73115H0.996171C0.820902 5.73255 0.653182 5.80267 0.529077 5.92644C0.404972 6.05022 0.334394 6.21775 0.33252 6.39301C0.33252 6.75802 0.638337 7.06295 0.996171 7.06295H5.81213V12.0135C5.81213 12.3713 6.10987 12.6619 6.47488 12.6619Z" fill="#37352F" fill-opacity="0.6"/>
</svg>
