<svg width="15" height="14" viewBox="0 0 15 14" fill="none" xmlns="http://www.w3.org/2000/svg">
<path d="M3.10284 13.7037C3.40552 13.9307 3.77757 13.855 4.20636 13.546L7.48539 11.1372L10.7581 13.546C11.1869 13.855 11.559 13.9307 11.8616 13.7037C12.158 13.4767 12.2211 13.1046 12.0508 12.6065L10.7581 8.75997L14.0623 6.38895C14.4912 6.08627 14.6677 5.74576 14.5479 5.39264C14.4281 5.03951 14.0939 4.86295 13.5642 4.86926L9.51584 4.90078L8.27994 1.02903C8.11593 0.524569 7.8574 0.253418 7.48539 0.253418C7.10704 0.253418 6.84849 0.524569 6.68455 1.02903L5.45491 4.90078L1.40027 4.86926C0.870582 4.86295 0.536376 5.03951 0.416564 5.38633C0.296759 5.74576 0.479626 6.08627 0.902117 6.38895L4.20636 8.75997L2.91367 12.6065C2.74341 13.1046 2.80647 13.4767 3.10284 13.7037ZM4.23159 12.1588C4.21897 12.1462 4.21897 12.1399 4.23159 12.102L5.42338 8.741C5.53058 8.42573 5.49905 8.23654 5.20268 8.04105L2.25786 6.02322C2.23264 6.0043 2.22003 5.99169 2.23264 5.97907C2.23895 5.96016 2.25156 5.96016 2.28308 5.96016L5.85218 6.04214C6.18008 6.05474 6.35034 5.94755 6.44492 5.62595L7.44753 2.20822C7.46012 2.17038 7.4665 2.15777 7.48539 2.15777C7.49798 2.15777 7.51057 2.17038 7.51695 2.20822L8.5195 5.62595C8.6141 5.94755 8.78441 6.05474 9.11856 6.04214L12.6814 5.96016C12.7192 5.96016 12.7318 5.96016 12.7381 5.97907C12.7444 5.99169 12.7318 6.0043 12.7066 6.02322L9.76178 8.04105C9.47169 8.23654 9.43391 8.42573 9.5474 8.741L10.7329 12.102C10.7455 12.1399 10.7455 12.1462 10.7329 12.1588C10.7266 12.1713 10.7077 12.1651 10.6824 12.1462L7.8574 9.9643C7.59258 9.76252 7.3719 9.76252 7.10704 9.9643L4.28203 12.1462C4.25681 12.1651 4.24419 12.1713 4.23159 12.1588Z" fill="#37352F"/>
</svg>
