<svg width="14" height="14" viewBox="0 0 14 14" fill="none" xmlns="http://www.w3.org/2000/svg">
<path d="M6.8926 13.7776C10.468 13.7776 13.4192 10.8266 13.4192 7.25747C13.4192 3.68841 10.4617 0.737305 6.8863 0.737305C3.31722 0.737305 0.372406 3.68841 0.372406 7.25747C0.372406 10.8266 3.32353 13.7776 6.8926 13.7776ZM6.8926 12.4787C3.99825 12.4787 1.68402 10.1519 1.68402 7.25747C1.68402 4.36314 3.99825 2.04261 6.8863 2.04261C9.78064 2.04261 12.1076 4.36314 12.1139 7.25747C12.1201 10.1519 9.78702 12.4787 6.8926 12.4787ZM3.71448 8.05202H6.8863C7.17639 8.05202 7.39706 7.83135 7.39706 7.54756V3.42357C7.39706 3.13981 7.17639 2.9191 6.8863 2.9191C6.60885 2.9191 6.38815 3.13981 6.38815 3.42357V7.04309H3.71448C3.43072 7.04309 3.21002 7.26377 3.21002 7.54756C3.21002 7.83135 3.43072 8.05202 3.71448 8.05202Z" fill="#37352F"/>
</svg>
