<svg width="13" height="13" viewBox="0 0 13 13" fill="none" xmlns="http://www.w3.org/2000/svg">
<path d="M6.61087 12.917C8.21676 12.917 9.82351 12.2987 11.0447 11.0626C13.4872 8.62288 13.487 4.63048 11.0444 2.19097C8.60164 -0.248551 4.60392 -0.248551 2.1612 2.19097C0.973381 3.37714 0.320923 4.96474 0.320923 6.63509C0.320923 8.3219 0.973643 9.89323 2.1612 11.0792C3.39889 12.2986 5.00453 12.917 6.61087 12.917ZM3.66561 6.6473V7.94936V8.12373H3.83991H5.11502H7.7461H7.92045V7.94936V5.31665V3.39212V3.21773H7.7461H6.44398H6.26963V3.39212V6.47289H3.83991H3.66561V6.6473ZM1.97095 6.63509C1.97095 5.39877 2.45626 4.24096 3.33481 3.36363C5.1346 1.5661 8.0767 1.56363 9.87974 3.35622C9.88225 3.35869 9.88459 3.36115 9.88719 3.36363C11.6891 5.16346 11.6894 8.10668 9.88719 9.90659C8.08479 11.7065 5.13716 11.7065 3.33481 9.90659C2.45626 9.02919 1.97095 7.87141 1.97095 6.63509Z" fill="#37352F" fill-opacity="0.6"/>
</svg>
