<svg width="13" height="13" viewBox="0 0 13 13" fill="none" xmlns="http://www.w3.org/2000/svg">
<path d="M11.1464 1.4534H2.17817C1.93053 1.4534 1.72976 1.65417 1.72976 1.90182V10.8702C1.72976 11.1178 1.93053 11.3186 2.17817 11.3186H11.1464C11.3941 11.3186 11.5949 11.1178 11.5949 10.8702V1.90182C11.5949 1.65417 11.3941 1.4534 11.1464 1.4534ZM2.17817 0.108154H11.1464C12.1371 0.108154 12.9401 0.911206 12.9401 1.90182V10.8702C12.9401 11.8608 12.1371 12.6638 11.1464 12.6638H2.17817C1.18757 12.6638 0.384521 11.8608 0.384521 10.8702V1.90182C0.384521 0.911206 1.18757 0.108154 2.17817 0.108154ZM3.075 2.79865H4.86865V8.17965H3.075V2.79865ZM5.76548 2.79865H7.55913V9.97332H5.76548V2.79865ZM8.45596 2.79865H10.2496V6.38599H8.45596V2.79865Z" fill="#37352F"/>
</svg>
