<svg width="323" height="48" viewBox="0 0 323 48" fill="none" xmlns="http://www.w3.org/2000/svg">
<path d="M0.384521 40.6557H40.3845V0.655713H0.384521V40.6557ZM85.5564 37.8557H79.3259V21.0979C79.3259 19.288 79.4041 17.2893 79.5603 15.1018H79.4041C79.0785 16.8206 78.7856 18.0575 78.5251 18.8127L71.9626 37.8557H66.8064L60.1267 19.0081C59.9444 18.5002 59.6514 17.1982 59.2478 15.1018H59.072C59.2413 17.8622 59.3259 20.2841 59.3259 22.3674V37.8557H53.6423V9.8479H62.8806L68.6033 26.4495C69.059 27.7776 69.391 29.1122 69.5994 30.4534H69.7166C70.0681 28.9039 70.4392 27.5562 70.8298 26.4104L76.5525 9.8479H85.5564V37.8557ZM108.787 29.6135H95.74C95.9483 32.5172 97.7778 33.969 101.228 33.969C103.429 33.969 105.362 33.4482 107.029 32.4065V36.8596C105.18 37.8492 102.778 38.344 99.822 38.344C96.5929 38.344 94.0863 37.4521 92.3025 35.6682C90.5186 33.8713 89.6267 31.3713 89.6267 28.1682C89.6267 24.8479 90.5903 22.2177 92.5173 20.2776C94.4444 18.3375 96.8142 17.3674 99.6267 17.3674C102.543 17.3674 104.796 18.2333 106.385 19.9651C107.986 21.6969 108.787 24.0471 108.787 27.0159V29.6135ZM103.064 25.8245C103.064 22.9599 101.905 21.5276 99.5876 21.5276C98.5981 21.5276 97.7387 21.9377 97.0095 22.7581C96.2934 23.5784 95.8572 24.6005 95.7009 25.8245H103.064ZM129.927 29.6135H116.881C117.089 32.5172 118.918 33.969 122.369 33.969C124.569 33.969 126.503 33.4482 128.17 32.4065V36.8596C126.321 37.8492 123.918 38.344 120.963 38.344C117.733 38.344 115.227 37.4521 113.443 35.6682C111.659 33.8713 110.767 31.3713 110.767 28.1682C110.767 24.8479 111.731 22.2177 113.658 20.2776C115.585 18.3375 117.955 17.3674 120.767 17.3674C123.684 17.3674 125.937 18.2333 127.525 19.9651C129.127 21.6969 129.927 24.0471 129.927 27.0159V29.6135ZM124.205 25.8245C124.205 22.9599 123.046 21.5276 120.728 21.5276C119.739 21.5276 118.879 21.9377 118.15 22.7581C117.434 23.5784 116.998 24.6005 116.842 25.8245H124.205ZM145.189 37.6213C144.278 38.1031 142.904 38.344 141.068 38.344C136.719 38.344 134.545 36.0849 134.545 31.5667V22.4065H131.302V17.8557H134.545V13.5393L140.697 11.7815V17.8557H145.189V22.4065H140.697V30.4924C140.697 32.5758 141.524 33.6174 143.177 33.6174C143.829 33.6174 144.499 33.4286 145.189 33.051V37.6213ZM151.31 14.6917C150.269 14.6917 149.416 14.3857 148.752 13.7737C148.088 13.1487 147.756 12.387 147.756 11.4885C147.756 10.564 148.088 9.80884 148.752 9.2229C149.416 8.63696 150.269 8.34399 151.31 8.34399C152.365 8.34399 153.218 8.63696 153.869 9.2229C154.533 9.80884 154.865 10.564 154.865 11.4885C154.865 12.426 154.533 13.1943 153.869 13.7932C153.218 14.3922 152.365 14.6917 151.31 14.6917ZM154.357 37.8557H148.185V17.8557H154.357V37.8557ZM178.369 37.8557H172.217V26.7424C172.217 23.6435 171.11 22.094 168.896 22.094C167.829 22.094 166.95 22.5042 166.26 23.3245C165.569 24.1448 165.224 25.1864 165.224 26.4495V37.8557H159.052V17.8557H165.224V21.0198H165.302C166.774 18.5849 168.916 17.3674 171.728 17.3674C176.155 17.3674 178.369 20.1148 178.369 25.6096V37.8557ZM202.381 35.5706C202.381 39.2815 201.306 42.1526 199.158 44.1838C197.01 46.2281 193.898 47.2502 189.822 47.2502C187.127 47.2502 184.991 46.8661 183.416 46.0979V40.9026C185.473 42.1005 187.55 42.6995 189.646 42.6995C191.73 42.6995 193.344 42.1461 194.49 41.0393C195.636 39.9456 196.209 38.4547 196.209 36.5667V34.9846H196.131C194.724 37.2242 192.648 38.344 189.9 38.344C187.348 38.344 185.323 37.4456 183.826 35.6487C182.329 33.8518 181.58 31.443 181.58 28.4221C181.58 25.0367 182.413 22.3479 184.08 20.3557C185.747 18.3635 187.941 17.3674 190.662 17.3674C193.097 17.3674 194.92 18.3049 196.131 20.1799H196.209V17.8557H202.381V35.5706ZM196.287 28.2463V26.6643C196.287 25.4013 195.909 24.3271 195.154 23.4417C194.412 22.5432 193.442 22.094 192.244 22.094C190.877 22.094 189.802 22.6278 189.021 23.6956C188.24 24.7633 187.849 26.2672 187.849 28.2073C187.849 29.8739 188.22 31.1956 188.963 32.1721C189.705 33.1357 190.72 33.6174 192.01 33.6174C193.286 33.6174 194.314 33.1292 195.095 32.1526C195.89 31.163 196.287 29.8609 196.287 28.2463ZM243.392 37.8557H237.025L225.482 20.2581C224.805 19.2294 224.336 18.4547 224.076 17.9338H223.998C224.102 18.9234 224.154 20.4338 224.154 22.4651V37.8557H218.197V9.8479H224.994L236.107 26.8987C236.615 27.6669 237.084 28.4286 237.513 29.1838H237.592C237.487 28.5328 237.435 27.2502 237.435 25.3362V9.8479H243.392V37.8557ZM258.224 38.344C254.891 38.344 252.267 37.413 250.353 35.551C248.452 33.676 247.502 31.137 247.502 27.9338C247.502 24.6265 248.491 22.0419 250.47 20.1799C252.45 18.3049 255.125 17.3674 258.498 17.3674C261.818 17.3674 264.422 18.3049 266.31 20.1799C268.198 22.0419 269.142 24.5094 269.142 27.5823C269.142 30.9026 268.166 33.5263 266.213 35.4534C264.273 37.3805 261.61 38.344 258.224 38.344ZM258.381 22.094C256.922 22.094 255.789 22.5953 254.982 23.5979C254.175 24.6005 253.771 26.0198 253.771 27.8557C253.771 31.6969 255.321 33.6174 258.42 33.6174C261.375 33.6174 262.853 31.6448 262.853 27.6995C262.853 23.9625 261.362 22.094 258.381 22.094ZM284.736 37.6213C283.825 38.1031 282.451 38.344 280.615 38.344C276.266 38.344 274.092 36.0849 274.092 31.5667V22.4065H270.849V17.8557H274.092V13.5393L280.244 11.7815V17.8557H284.736V22.4065H280.244V30.4924C280.244 32.5758 281.071 33.6174 282.724 33.6174C283.375 33.6174 284.046 33.4286 284.736 33.051V37.6213ZM305.545 29.6135H292.498C292.706 32.5172 294.536 33.969 297.986 33.969C300.187 33.969 302.12 33.4482 303.787 32.4065V36.8596C301.938 37.8492 299.536 38.344 296.58 38.344C293.351 38.344 290.844 37.4521 289.06 35.6682C287.276 33.8713 286.385 31.3713 286.385 28.1682C286.385 24.8479 287.348 22.2177 289.275 20.2776C291.202 18.3375 293.572 17.3674 296.385 17.3674C299.301 17.3674 301.554 18.2333 303.142 19.9651C304.744 21.6969 305.545 24.0471 305.545 27.0159V29.6135ZM299.822 25.8245C299.822 22.9599 298.663 21.5276 296.345 21.5276C295.356 21.5276 294.497 21.9377 293.767 22.7581C293.051 23.5784 292.615 24.6005 292.459 25.8245H299.822ZM307.408 37.3284V32.3284C308.424 32.9403 309.433 33.3961 310.435 33.6956C311.451 33.995 312.408 34.1448 313.306 34.1448C314.4 34.1448 315.26 33.995 315.885 33.6956C316.523 33.3961 316.842 32.9403 316.842 32.3284C316.842 31.9377 316.698 31.6122 316.412 31.3518C316.125 31.0914 315.754 30.8635 315.299 30.6682C314.856 30.4729 314.368 30.2971 313.834 30.1409C313.3 29.9846 312.786 29.8088 312.291 29.6135C311.497 29.314 310.793 28.995 310.181 28.6565C309.582 28.3049 309.075 27.9013 308.658 27.4456C308.254 26.9898 307.942 26.4625 307.72 25.8635C307.512 25.2646 307.408 24.5549 307.408 23.7346C307.408 22.6148 307.649 21.6513 308.131 20.844C308.625 20.0367 309.276 19.3792 310.084 18.8713C310.904 18.3505 311.835 17.9729 312.877 17.7385C313.931 17.4911 315.025 17.3674 316.158 17.3674C317.043 17.3674 317.942 17.439 318.853 17.5823C319.765 17.7125 320.663 17.9078 321.549 18.1682V22.9338C320.767 22.4781 319.927 22.1396 319.029 21.9182C318.144 21.6838 317.271 21.5667 316.412 21.5667C316.008 21.5667 315.624 21.6057 315.26 21.6838C314.908 21.7489 314.595 21.8531 314.322 21.9963C314.049 22.1265 313.834 22.3023 313.677 22.5237C313.521 22.732 313.443 22.9729 313.443 23.2463C313.443 23.6109 313.56 23.9234 313.795 24.1838C314.029 24.4443 314.335 24.6721 314.713 24.8674C315.09 25.0497 315.507 25.219 315.963 25.3752C316.431 25.5185 316.894 25.6682 317.349 25.8245C318.17 26.1109 318.912 26.4234 319.576 26.762C320.24 27.1005 320.806 27.4976 321.275 27.9534C321.757 28.4091 322.122 28.943 322.369 29.5549C322.629 30.1669 322.76 30.8961 322.76 31.7424C322.76 32.9273 322.499 33.943 321.978 34.7893C321.47 35.6226 320.787 36.3062 319.927 36.8401C319.081 37.3609 318.098 37.7385 316.978 37.9729C315.872 38.2203 314.719 38.344 313.521 38.344C311.321 38.344 309.283 38.0055 307.408 37.3284Z" fill="#37352F"/>
</svg>
