<svg width="109" height="17" viewBox="0 0 109 17" fill="none" xmlns="http://www.w3.org/2000/svg">
<path d="M0.392456 14.0745H14.3925V0.0744823H0.392456V14.0745ZM29.3135 13.0945H28.1719V6.51831C28.1719 5.99878 28.2038 5.36304 28.2677 4.61108H28.2403C28.1309 5.05314 28.033 5.36987 27.9464 5.56128L24.5968 13.0945H24.0362L20.6934 5.61597C20.5977 5.39722 20.4997 5.06226 20.3995 4.61108H20.3721C20.4086 5.00301 20.4268 5.64331 20.4268 6.53198V13.0945H19.3194V3.29175H20.837L23.8448 10.1277C24.0772 10.6518 24.2276 11.0437 24.296 11.3035H24.337C24.533 10.7657 24.6902 10.3647 24.8087 10.1003L27.878 3.29175H29.3135V13.0945ZM37.2731 9.87476H32.3307C32.349 10.6541 32.5586 11.2556 32.9596 11.6794C33.3607 12.1033 33.9121 12.3152 34.6139 12.3152C35.4024 12.3152 36.127 12.0554 36.7878 11.5359V12.5886C36.1725 13.0352 35.3591 13.2585 34.3473 13.2585C33.3584 13.2585 32.5814 12.9418 32.0163 12.3083C31.4512 11.6703 31.1686 10.7748 31.1686 9.62183C31.1686 8.53263 31.4762 7.64624 32.0915 6.96265C32.7113 6.2745 33.4792 5.93042 34.3952 5.93042C35.3112 5.93042 36.0199 6.22664 36.5212 6.81909C37.0225 7.41154 37.2731 8.23413 37.2731 9.28687V9.87476ZM36.1247 8.92456C36.1201 8.27743 35.9629 7.77384 35.653 7.41382C35.3477 7.05379 34.9216 6.87378 34.3747 6.87378C33.846 6.87378 33.3971 7.06291 33.028 7.44116C32.6589 7.81942 32.431 8.31388 32.3444 8.92456H36.1247ZM44.5012 9.87476H39.5589C39.5771 10.6541 39.7867 11.2556 40.1878 11.6794C40.5888 12.1033 41.1402 12.3152 41.8421 12.3152C42.6305 12.3152 43.3551 12.0554 44.0159 11.5359V12.5886C43.4007 13.0352 42.5872 13.2585 41.5755 13.2585C40.5865 13.2585 39.8095 12.9418 39.2444 12.3083C38.6793 11.6703 38.3968 10.7748 38.3968 9.62183C38.3968 8.53263 38.7044 7.64624 39.3196 6.96265C39.9394 6.2745 40.7073 5.93042 41.6233 5.93042C42.5393 5.93042 43.248 6.22664 43.7493 6.81909C44.2506 7.41154 44.5012 8.23413 44.5012 9.28687V9.87476ZM43.3528 8.92456C43.3482 8.27743 43.191 7.77384 42.8811 7.41382C42.5758 7.05379 42.1497 6.87378 41.6028 6.87378C41.0742 6.87378 40.6253 7.06291 40.2561 7.44116C39.887 7.81942 39.6591 8.31388 39.5725 8.92456H43.3528ZM49.3505 13.0261C49.0861 13.172 48.7375 13.2449 48.3046 13.2449C47.0787 13.2449 46.4657 12.5613 46.4657 11.1941V7.05151H45.2626V6.09448H46.4657V4.3855L47.5868 4.02319V6.09448H49.3505V7.05151H47.5868V10.9958C47.5868 11.4653 47.6665 11.8002 47.826 12.0007C47.9856 12.2013 48.2499 12.3015 48.619 12.3015C48.9016 12.3015 49.1454 12.224 49.3505 12.0691V13.0261ZM51.3218 4.31714C51.1212 4.31714 50.9503 4.24878 50.8091 4.11206C50.6678 3.97534 50.5971 3.80216 50.5971 3.59253C50.5971 3.38289 50.6678 3.20972 50.8091 3.073C50.9503 2.93172 51.1212 2.86108 51.3218 2.86108C51.5268 2.86108 51.7 2.93172 51.8413 3.073C51.9871 3.20972 52.06 3.38289 52.06 3.59253C52.06 3.79305 51.9871 3.96395 51.8413 4.10522C51.7 4.2465 51.5268 4.31714 51.3218 4.31714ZM51.8686 13.0945H50.7475V6.09448H51.8686V13.0945ZM59.8487 13.0945H58.7276V9.10229C58.7276 7.61662 58.1853 6.87378 57.1007 6.87378C56.5401 6.87378 56.0753 7.08569 55.7061 7.50952C55.3415 7.92879 55.1593 8.45972 55.1593 9.10229V13.0945H54.0382V6.09448H55.1593V7.25659H55.1866C55.7152 6.37248 56.4809 5.93042 57.4835 5.93042C58.2491 5.93042 58.8347 6.17879 59.2403 6.67554C59.6459 7.16772 59.8487 7.88094 59.8487 8.81519V13.0945ZM67.8425 12.5339C67.8425 15.1042 66.612 16.3894 64.1511 16.3894C63.2852 16.3894 62.5287 16.2253 61.8815 15.8972V14.7761C62.6699 15.2136 63.4219 15.4324 64.1374 15.4324C65.86 15.4324 66.7214 14.5164 66.7214 12.6843V11.9187H66.694C66.1608 12.8119 65.3587 13.2585 64.2878 13.2585C63.4173 13.2585 62.7155 12.9486 62.1823 12.3289C61.6537 11.7045 61.3893 10.8682 61.3893 9.82007C61.3893 8.63062 61.6742 7.68498 62.2438 6.98315C62.818 6.28133 63.6019 5.93042 64.5954 5.93042C65.5387 5.93042 66.2383 6.30868 66.694 7.06519H66.7214V6.09448H67.8425V12.5339ZM66.7214 9.92944V8.89722C66.7214 8.34123 66.5322 7.86499 66.154 7.46851C65.7803 7.07202 65.3132 6.87378 64.7526 6.87378C64.0599 6.87378 63.5176 7.12671 63.1257 7.63257C62.7337 8.13387 62.5378 8.83797 62.5378 9.74487C62.5378 10.5242 62.7246 11.1485 63.0983 11.6179C63.4766 12.0828 63.9756 12.3152 64.5954 12.3152C65.2243 12.3152 65.7347 12.0919 66.1266 11.6453C66.5231 11.1986 66.7214 10.6267 66.7214 9.92944ZM81.8065 13.0945H80.3983L75.3534 5.28101C75.2258 5.08504 75.121 4.87996 75.0389 4.66577H74.9979C75.0344 4.87541 75.0526 5.3243 75.0526 6.01245V13.0945H73.9042V3.29175H75.3944L80.3026 10.9822C80.5077 11.3012 80.6399 11.5199 80.6991 11.6384H80.7264C80.6809 11.3559 80.6581 10.8751 80.6581 10.196V3.29175H81.8065V13.0945ZM87.0522 13.2585C86.0177 13.2585 85.1906 12.9327 84.5708 12.281C83.9555 11.6248 83.6479 10.7566 83.6479 9.67651C83.6479 8.50073 83.9692 7.58244 84.6118 6.92163C85.2544 6.26082 86.1225 5.93042 87.2163 5.93042C88.2599 5.93042 89.0734 6.25171 89.6567 6.89429C90.2446 7.53687 90.5386 8.42782 90.5386 9.56714C90.5386 10.6837 90.2218 11.5792 89.5884 12.2537C88.9594 12.9236 88.1141 13.2585 87.0522 13.2585ZM87.1343 6.87378C86.4142 6.87378 85.8445 7.11987 85.4253 7.61206C85.006 8.09969 84.7964 8.77417 84.7964 9.6355C84.7964 10.4649 85.0083 11.1189 85.4321 11.5974C85.8559 12.0759 86.4233 12.3152 87.1343 12.3152C87.8589 12.3152 88.4149 12.0805 88.8022 11.6111C89.1942 11.1417 89.3901 10.474 89.3901 9.60815C89.3901 8.73315 89.1942 8.05868 88.8022 7.58472C88.4149 7.11076 87.8589 6.87378 87.1343 6.87378ZM95.4766 13.0261C95.2123 13.172 94.8637 13.2449 94.4307 13.2449C93.2048 13.2449 92.5919 12.5613 92.5919 11.1941V7.05151H91.3887V6.09448H92.5919V4.3855L93.713 4.02319V6.09448H95.4766V7.05151H93.713V10.9958C93.713 11.4653 93.7927 11.8002 93.9522 12.0007C94.1117 12.2013 94.3761 12.3015 94.7452 12.3015C95.0277 12.3015 95.2716 12.224 95.4766 12.0691V13.0261ZM102.5 9.87476H97.5573C97.5755 10.6541 97.7852 11.2556 98.1862 11.6794C98.5872 12.1033 99.1387 12.3152 99.8405 12.3152C100.629 12.3152 101.354 12.0554 102.014 11.5359V12.5886C101.399 13.0352 100.586 13.2585 99.5739 13.2585C98.585 13.2585 97.8079 12.9418 97.2428 12.3083C96.6777 11.6703 96.3952 10.7748 96.3952 9.62183C96.3952 8.53263 96.7028 7.64624 97.318 6.96265C97.9378 6.2745 98.7057 5.93042 99.6217 5.93042C100.538 5.93042 101.246 6.22664 101.748 6.81909C102.249 7.41154 102.5 8.23413 102.5 9.28687V9.87476ZM101.351 8.92456C101.347 8.27743 101.189 7.77384 100.88 7.41382C100.574 7.05379 100.148 6.87378 99.6012 6.87378C99.0726 6.87378 98.6237 7.06291 98.2546 7.44116C97.8854 7.81942 97.6576 8.31388 97.571 8.92456H101.351ZM103.678 12.8416V11.6384C104.289 12.0896 104.961 12.3152 105.695 12.3152C106.679 12.3152 107.171 11.9871 107.171 11.3308C107.171 11.144 107.128 10.9867 107.041 10.8591C106.959 10.727 106.845 10.6108 106.699 10.5105C106.558 10.4102 106.39 10.3214 106.194 10.2439C106.002 10.1619 105.795 10.0776 105.572 9.99097C105.262 9.86792 104.988 9.74487 104.751 9.62183C104.519 9.49422 104.323 9.35295 104.163 9.198C104.008 9.03849 103.89 8.85848 103.808 8.65796C103.73 8.45744 103.692 8.22274 103.692 7.95386C103.692 7.62573 103.767 7.33634 103.917 7.08569C104.068 6.83049 104.268 6.61857 104.519 6.44995C104.769 6.27677 105.054 6.14689 105.373 6.0603C105.697 5.97371 106.03 5.93042 106.371 5.93042C106.977 5.93042 107.52 6.03524 107.998 6.24487V7.37964C107.483 7.0424 106.891 6.87378 106.221 6.87378C106.011 6.87378 105.822 6.89884 105.654 6.94897C105.485 6.99455 105.339 7.06063 105.216 7.14722C105.098 7.23381 105.004 7.33862 104.936 7.46167C104.872 7.58016 104.84 7.71232 104.84 7.85815C104.84 8.04045 104.872 8.19312 104.936 8.31616C105.004 8.43921 105.102 8.54858 105.23 8.64429C105.357 8.73999 105.512 8.82658 105.695 8.90405C105.877 8.98153 106.084 9.06584 106.317 9.15698C106.627 9.27547 106.905 9.39852 107.151 9.52612C107.397 9.64917 107.606 9.79045 107.78 9.94995C107.953 10.1049 108.085 10.2849 108.176 10.49C108.272 10.6951 108.32 10.9389 108.32 11.2214C108.32 11.5678 108.242 11.8686 108.087 12.1238C107.937 12.379 107.734 12.5909 107.479 12.7595C107.224 12.9281 106.93 13.0535 106.597 13.1355C106.264 13.2175 105.916 13.2585 105.551 13.2585C104.831 13.2585 104.207 13.1195 103.678 12.8416Z" fill="#37352F"/>
</svg>
