<svg width="85" height="17" viewBox="0 0 85 17" fill="none" xmlns="http://www.w3.org/2000/svg">
<path d="M0.352783 14.1758H14.3528V0.175801H0.352783V14.1758ZM19.9036 4.41846C19.703 4.41846 19.5321 4.3501 19.3909 4.21338C19.2496 4.07666 19.179 3.90348 19.179 3.69385C19.179 3.48421 19.2496 3.31104 19.3909 3.17432C19.5321 3.03304 19.703 2.9624 19.9036 2.9624C20.1086 2.9624 20.2818 3.03304 20.4231 3.17432C20.5689 3.31104 20.6418 3.48421 20.6418 3.69385C20.6418 3.89437 20.5689 4.06527 20.4231 4.20654C20.2818 4.34782 20.1086 4.41846 19.9036 4.41846ZM20.4504 13.1958H19.3293V6.1958H20.4504V13.1958ZM26.8215 13.3599C25.4316 13.3599 24.3173 12.9019 23.4788 11.9858C22.6448 11.0698 22.2278 9.87809 22.2278 8.41064C22.2278 6.83382 22.6539 5.57601 23.5061 4.63721C24.3583 3.6984 25.5181 3.229 26.9856 3.229C28.3391 3.229 29.4283 3.68473 30.2532 4.59619C31.0826 5.50765 31.4973 6.69938 31.4973 8.17139C31.4973 9.771 31.0735 11.0356 30.2258 11.9653C29.3782 12.895 28.2434 13.3599 26.8215 13.3599ZM26.9036 4.26807C25.8736 4.26807 25.0374 4.63949 24.3948 5.38232C23.7522 6.12516 23.4309 7.10042 23.4309 8.30811C23.4309 9.51579 23.7431 10.4888 24.3674 11.2271C24.9963 11.9608 25.8144 12.3276 26.8215 12.3276C27.8971 12.3276 28.7447 11.9767 29.3645 11.2749C29.9843 10.5731 30.2942 9.59098 30.2942 8.32861C30.2942 7.03434 29.9934 6.03402 29.3918 5.32764C28.7903 4.62126 27.9609 4.26807 26.9036 4.26807ZM32.967 12.7993V11.4458C33.122 11.5825 33.3066 11.7056 33.5208 11.8149C33.7395 11.9243 33.9674 12.0177 34.2043 12.0952C34.4459 12.1681 34.6874 12.2251 34.929 12.2661C35.1705 12.3071 35.3938 12.3276 35.5989 12.3276C36.3053 12.3276 36.8316 12.1978 37.178 11.938C37.5289 11.6737 37.7043 11.2954 37.7043 10.8032C37.7043 10.5389 37.6451 10.3088 37.5266 10.1128C37.4127 9.91683 37.2532 9.7391 37.0481 9.57959C36.843 9.41553 36.5992 9.26058 36.3167 9.11475C36.0387 8.96436 35.7379 8.80713 35.4143 8.64307C35.0725 8.46989 34.7535 8.29443 34.4573 8.1167C34.1611 7.93896 33.9036 7.743 33.6848 7.52881C33.4661 7.31462 33.2929 7.07308 33.1653 6.8042C33.0422 6.53076 32.9807 6.21175 32.9807 5.84717C32.9807 5.40055 33.0787 5.01318 33.2747 4.68506C33.4706 4.35238 33.7281 4.07894 34.0471 3.86475C34.3661 3.65055 34.7284 3.49105 35.134 3.38623C35.5442 3.28141 35.9612 3.229 36.385 3.229C37.3512 3.229 38.0553 3.34521 38.4973 3.57764V4.86963C37.9185 4.46859 37.1757 4.26807 36.2688 4.26807C36.0181 4.26807 35.7675 4.29541 35.5168 4.3501C35.2662 4.40023 35.0429 4.48454 34.8469 4.60303C34.651 4.72152 34.4915 4.87419 34.3684 5.06104C34.2454 5.24788 34.1838 5.47575 34.1838 5.74463C34.1838 5.99528 34.2294 6.21175 34.3206 6.39404C34.4163 6.57633 34.5553 6.74268 34.7375 6.89307C34.9198 7.04346 35.1409 7.18929 35.4006 7.33057C35.665 7.47184 35.968 7.62679 36.3098 7.79541C36.6607 7.96859 36.9934 8.15088 37.3079 8.34229C37.6223 8.53369 37.898 8.74561 38.135 8.97803C38.372 9.21045 38.5588 9.46794 38.6956 9.75049C38.8368 10.033 38.9075 10.3566 38.9075 10.7212C38.9075 11.2043 38.8118 11.6144 38.6204 11.9517C38.4335 12.2843 38.1783 12.5555 37.8547 12.7651C37.5357 12.9748 37.1666 13.1252 36.7473 13.2163C36.328 13.312 35.886 13.3599 35.4211 13.3599C35.2662 13.3599 35.0748 13.3462 34.8469 13.3188C34.6191 13.2961 34.3866 13.2596 34.1497 13.2095C33.9127 13.1639 33.6871 13.1069 33.4729 13.0386C33.2633 12.9657 33.0946 12.8859 32.967 12.7993ZM44.2463 12.7993V11.4458C44.4013 11.5825 44.5859 11.7056 44.8 11.8149C45.0188 11.9243 45.2467 12.0177 45.4836 12.0952C45.7252 12.1681 45.9667 12.2251 46.2083 12.2661C46.4498 12.3071 46.6731 12.3276 46.8782 12.3276C47.5846 12.3276 48.1109 12.1978 48.4573 11.938C48.8082 11.6737 48.9836 11.2954 48.9836 10.8032C48.9836 10.5389 48.9244 10.3088 48.8059 10.1128C48.692 9.91683 48.5325 9.7391 48.3274 9.57959C48.1223 9.41553 47.8785 9.26058 47.5959 9.11475C47.318 8.96436 47.0172 8.80713 46.6936 8.64307C46.3518 8.46989 46.0328 8.29443 45.7366 8.1167C45.4403 7.93896 45.1829 7.743 44.9641 7.52881C44.7454 7.31462 44.5722 7.07308 44.4446 6.8042C44.3215 6.53076 44.26 6.21175 44.26 5.84717C44.26 5.40055 44.358 5.01318 44.554 4.68506C44.7499 4.35238 45.0074 4.07894 45.3264 3.86475C45.6454 3.65055 46.0077 3.49105 46.4133 3.38623C46.8235 3.28141 47.2405 3.229 47.6643 3.229C48.6305 3.229 49.3346 3.34521 49.7766 3.57764V4.86963C49.1978 4.46859 48.455 4.26807 47.5481 4.26807C47.2974 4.26807 47.0468 4.29541 46.7961 4.3501C46.5455 4.40023 46.3222 4.48454 46.1262 4.60303C45.9303 4.72152 45.7708 4.87419 45.6477 5.06104C45.5247 5.24788 45.4631 5.47575 45.4631 5.74463C45.4631 5.99528 45.5087 6.21175 45.5999 6.39404C45.6956 6.57633 45.8346 6.74268 46.0168 6.89307C46.1991 7.04346 46.4202 7.18929 46.6799 7.33057C46.9443 7.47184 47.2473 7.62679 47.5891 7.79541C47.94 7.96859 48.2727 8.15088 48.5872 8.34229C48.9016 8.53369 49.1773 8.74561 49.4143 8.97803C49.6513 9.21045 49.8381 9.46794 49.9749 9.75049C50.1161 10.033 50.1868 10.3566 50.1868 10.7212C50.1868 11.2043 50.0911 11.6144 49.8997 11.9517C49.7128 12.2843 49.4576 12.5555 49.134 12.7651C48.815 12.9748 48.4459 13.1252 48.0266 13.2163C47.6073 13.312 47.1653 13.3599 46.7004 13.3599C46.5455 13.3599 46.3541 13.3462 46.1262 13.3188C45.8984 13.2961 45.6659 13.2596 45.429 13.2095C45.192 13.1639 44.9664 13.1069 44.7522 13.0386C44.5426 12.9657 44.3739 12.8859 44.2463 12.7993ZM52.5657 4.41846C52.3652 4.41846 52.1943 4.3501 52.053 4.21338C51.9117 4.07666 51.8411 3.90348 51.8411 3.69385C51.8411 3.48421 51.9117 3.31104 52.053 3.17432C52.1943 3.03304 52.3652 2.9624 52.5657 2.9624C52.7708 2.9624 52.9439 3.03304 53.0852 3.17432C53.231 3.31104 53.304 3.48421 53.304 3.69385C53.304 3.89437 53.231 4.06527 53.0852 4.20654C52.9439 4.34782 52.7708 4.41846 52.5657 4.41846ZM53.1125 13.1958H51.9915V6.1958H53.1125V13.1958ZM61.3567 12.6353C61.3567 15.2056 60.1262 16.4907 57.6653 16.4907C56.7994 16.4907 56.0429 16.3267 55.3958 15.9985V14.8774C56.1842 15.3149 56.9361 15.5337 57.6516 15.5337C59.3743 15.5337 60.2356 14.6177 60.2356 12.7856V12.02H60.2083C59.675 12.9132 58.873 13.3599 57.802 13.3599C56.9316 13.3599 56.2297 13.05 55.6965 12.4302C55.1679 11.8058 54.9036 10.9696 54.9036 9.92139C54.9036 8.73193 55.1884 7.7863 55.7581 7.08447C56.3323 6.38265 57.1161 6.03174 58.1096 6.03174C59.053 6.03174 59.7525 6.40999 60.2083 7.1665H60.2356V6.1958H61.3567V12.6353ZM60.2356 10.0308V8.99854C60.2356 8.44255 60.0465 7.96631 59.6682 7.56982C59.2945 7.17334 58.8274 6.9751 58.2668 6.9751C57.5741 6.9751 57.0318 7.22803 56.6399 7.73389C56.248 8.23519 56.052 8.93929 56.052 9.84619C56.052 10.6255 56.2389 11.2498 56.6125 11.7192C56.9908 12.1841 57.4898 12.4165 58.1096 12.4165C58.7385 12.4165 59.2489 12.1932 59.6409 11.7466C60.0374 11.3 60.2356 10.728 60.2356 10.0308ZM69.4368 13.1958H68.3157V9.20361C68.3157 7.71794 67.7734 6.9751 66.6887 6.9751C66.1282 6.9751 65.6633 7.18701 65.2942 7.61084C64.9296 8.03011 64.7473 8.56104 64.7473 9.20361V13.1958H63.6262V6.1958H64.7473V7.35791H64.7747C65.3033 6.4738 66.0689 6.03174 67.0715 6.03174C67.8372 6.03174 68.4228 6.28011 68.8284 6.77686C69.234 7.26904 69.4368 7.98226 69.4368 8.9165V13.1958ZM76.6965 13.1958H75.5481V3.39307H76.6965V13.1958ZM84.9407 13.1958H83.8196V9.20361C83.8196 7.71794 83.2773 6.9751 82.1926 6.9751C81.6321 6.9751 81.1672 7.18701 80.7981 7.61084C80.4335 8.03011 80.2512 8.56104 80.2512 9.20361V13.1958H79.1301V6.1958H80.2512V7.35791H80.2786C80.8072 6.4738 81.5728 6.03174 82.5754 6.03174C83.3411 6.03174 83.9267 6.28011 84.3323 6.77686C84.7379 7.26904 84.9407 7.98226 84.9407 8.9165V13.1958Z" fill="#37352F"/>
</svg>
