<svg width="24" height="17" viewBox="0 0 24 17" fill="none" xmlns="http://www.w3.org/2000/svg">
<path d="M0.733765 6.67458H14.7338V-7.32542H0.733765V6.67458ZM2.01892 21.6946V11.8918H4.80798C5.65564 11.8918 6.32784 12.0992 6.82458 12.5139C7.32133 12.9286 7.5697 13.4687 7.5697 14.134C7.5697 14.69 7.41931 15.1731 7.11853 15.5833C6.81775 15.9934 6.40304 16.2851 5.87439 16.4583V16.4856C6.5352 16.5631 7.06384 16.8137 7.46033 17.2375C7.85681 17.6568 8.05505 18.2037 8.05505 18.8782C8.05505 19.7167 7.75427 20.3958 7.15271 20.9153C6.55115 21.4348 5.79236 21.6946 4.87634 21.6946H2.01892ZM3.16736 12.9309V16.0959H4.34314C4.97205 16.0959 5.46651 15.9456 5.82654 15.6448C6.18656 15.3394 6.36658 14.9111 6.36658 14.3596C6.36658 13.4071 5.73995 12.9309 4.48669 12.9309H3.16736ZM3.16736 17.1282V20.6555H4.72595C5.40043 20.6555 5.92224 20.496 6.29138 20.177C6.66508 19.858 6.85193 19.4205 6.85193 18.8645C6.85193 17.7069 6.06352 17.1282 4.48669 17.1282H3.16736ZM15.5541 21.6946H14.433V20.5872H14.4056C13.9408 21.4348 13.2207 21.8586 12.2455 21.8586C10.5775 21.8586 9.74353 20.8652 9.74353 18.8782V14.6946H10.8578V18.7004C10.8578 20.177 11.4229 20.9153 12.5531 20.9153C13.1 20.9153 13.5489 20.7148 13.8998 20.3137C14.2552 19.9081 14.433 19.3795 14.433 18.7278V14.6946H15.5541V21.6946ZM23.7982 21.134C23.7982 23.7043 22.5677 24.9895 20.1068 24.9895C19.2409 24.9895 18.4844 24.8254 17.8373 24.4973V23.3762C18.6257 23.8137 19.3776 24.0325 20.0931 24.0325C21.8158 24.0325 22.6771 23.1165 22.6771 21.2844V20.5188H22.6498C22.1166 21.412 21.3145 21.8586 20.2435 21.8586C19.3731 21.8586 18.6713 21.5487 18.1381 20.929C17.6094 20.3046 17.3451 19.4683 17.3451 18.4202C17.3451 17.2307 17.6299 16.2851 18.1996 15.5833C18.7738 14.8814 19.5577 14.5305 20.5511 14.5305C21.4945 14.5305 22.1941 14.9088 22.6498 15.6653H22.6771V14.6946H23.7982V21.134ZM22.6771 18.5295V17.4973C22.6771 16.9413 22.488 16.4651 22.1097 16.0686C21.736 15.6721 21.2689 15.4739 20.7084 15.4739C20.0157 15.4739 19.4733 15.7268 19.0814 16.2327C18.6895 16.734 18.4935 17.4381 18.4935 18.345C18.4935 19.1243 18.6804 19.7486 19.0541 20.218C19.4323 20.6829 19.9314 20.9153 20.5511 20.9153C21.1801 20.9153 21.6905 20.692 22.0824 20.2454C22.4789 19.7987 22.6771 19.2268 22.6771 18.5295Z" fill="#5D1715"/>
</svg>
