<svg width="25" height="17" viewBox="0 0 25 17" fill="none" xmlns="http://www.w3.org/2000/svg">
<path d="M0.956757 6.67458H14.9568V-7.32542H0.956757V6.67458ZM2.24191 21.6946V11.8918H5.03098C5.87863 11.8918 6.55083 12.0992 7.04758 12.5139C7.54432 12.9286 7.79269 13.4687 7.79269 14.134C7.79269 14.69 7.6423 15.1731 7.34152 15.5833C7.04074 15.9934 6.62603 16.2851 6.09738 16.4583V16.4856C6.75819 16.5631 7.28683 16.8137 7.68332 17.2375C8.0798 17.6568 8.27805 18.2037 8.27805 18.8782C8.27805 19.7167 7.97726 20.3958 7.3757 20.9153C6.77414 21.4348 6.01535 21.6946 5.09933 21.6946H2.24191ZM3.39035 12.9309V16.0959H4.56613C5.19504 16.0959 5.6895 15.9456 6.04953 15.6448C6.40956 15.3394 6.58957 14.9111 6.58957 14.3596C6.58957 13.4071 5.96294 12.9309 4.70969 12.9309H3.39035ZM3.39035 17.1282V20.6555H4.94894C5.62342 20.6555 6.14523 20.496 6.51437 20.177C6.88807 19.858 7.07492 19.4205 7.07492 18.8645C7.07492 17.7069 6.28651 17.1282 4.70969 17.1282H3.39035ZM15.7771 21.6946H14.656V20.5872H14.6286C14.1638 21.4348 13.4437 21.8586 12.4685 21.8586C10.8005 21.8586 9.96652 20.8652 9.96652 18.8782V14.6946H11.0808V18.7004C11.0808 20.177 11.6459 20.9153 12.7761 20.9153C13.323 20.9153 13.7719 20.7148 14.1228 20.3137C14.4782 19.9081 14.656 19.3795 14.656 18.7278V14.6946H15.7771V21.6946ZM24.0212 21.134C24.0212 23.7043 22.7907 24.9895 20.3298 24.9895C19.4639 24.9895 18.7074 24.8254 18.0603 24.4973V23.3762C18.8487 23.8137 19.6006 24.0325 20.3161 24.0325C22.0388 24.0325 22.9001 23.1165 22.9001 21.2844V20.5188H22.8728C22.3396 21.412 21.5375 21.8586 20.4665 21.8586C19.5961 21.8586 18.8943 21.5487 18.3611 20.929C17.8324 20.3046 17.5681 19.4683 17.5681 18.4202C17.5681 17.2307 17.8529 16.2851 18.4226 15.5833C18.9968 14.8814 19.7806 14.5305 20.7741 14.5305C21.7175 14.5305 22.417 14.9088 22.8728 15.6653H22.9001V14.6946H24.0212V21.134ZM22.9001 18.5295V17.4973C22.9001 16.9413 22.711 16.4651 22.3327 16.0686C21.959 15.6721 21.4919 15.4739 20.9314 15.4739C20.2387 15.4739 19.6963 15.7268 19.3044 16.2327C18.9125 16.734 18.7165 17.4381 18.7165 18.345C18.7165 19.1243 18.9034 19.7486 19.2771 20.218C19.6553 20.6829 20.1543 20.9153 20.7741 20.9153C21.403 20.9153 21.9135 20.692 22.3054 20.2454C22.7019 19.7987 22.9001 19.2268 22.9001 18.5295Z" fill="#5D1715"/>
</svg>
