<svg width="75" height="37" viewBox="0 0 75 37" fill="none" xmlns="http://www.w3.org/2000/svg">
<path d="M0.575806 12.9297H14.5758V-1.07029H0.575806V12.9297ZM5.81213 33.1138C4.42216 33.1138 3.3079 32.6558 2.46936 31.7397C1.63538 30.8237 1.21838 29.632 1.21838 28.1646C1.21838 26.5877 1.64449 25.3299 2.4967 24.3911C3.34892 23.4523 4.50875 22.9829 5.9762 22.9829C7.32971 22.9829 8.4189 23.4386 9.24377 24.3501C10.0732 25.2616 10.4879 26.4533 10.4879 27.9253C10.4879 29.5249 10.0641 30.7896 9.21643 31.7192C8.36877 32.6489 7.23401 33.1138 5.81213 33.1138ZM5.89417 24.022C4.86422 24.022 4.02795 24.3934 3.38538 25.1362C2.7428 25.8791 2.42151 26.8543 2.42151 28.062C2.42151 29.2697 2.73368 30.2427 3.35803 30.981C3.98694 31.7147 4.80497 32.0815 5.81213 32.0815C6.88765 32.0815 7.73531 31.7306 8.3551 31.0288C8.97489 30.327 9.28479 29.3449 9.28479 28.0825C9.28479 26.7882 8.98401 25.7879 8.38245 25.0815C7.78088 24.3752 6.95146 24.022 5.89417 24.022ZM18.0758 32.9497H16.9547V28.9575C16.9547 27.4718 16.4124 26.729 15.3278 26.729C14.7672 26.729 14.3024 26.9409 13.9332 27.3647C13.5686 27.784 13.3864 28.3149 13.3864 28.9575V32.9497H12.2653V25.9497H13.3864V27.1118H13.4137C13.9423 26.2277 14.708 25.7856 15.7106 25.7856C16.4762 25.7856 17.0618 26.034 17.4674 26.5308C17.873 27.0229 18.0758 27.7362 18.0758 28.6704V32.9497ZM21.3434 31.938H21.316V32.9497H20.1949V22.5864H21.316V27.1802H21.3434C21.8948 26.2505 22.7015 25.7856 23.7633 25.7856C24.6611 25.7856 25.3629 26.1001 25.8688 26.729C26.3792 27.3534 26.6344 28.1919 26.6344 29.2446C26.6344 30.4159 26.3496 31.3547 25.7799 32.061C25.2102 32.7629 24.4309 33.1138 23.442 33.1138C22.5169 33.1138 21.8173 32.7218 21.3434 31.938ZM21.316 29.1147V30.0923C21.316 30.6711 21.5029 31.1632 21.8766 31.5688C22.2548 31.9699 22.7334 32.1704 23.3121 32.1704C23.9912 32.1704 24.5221 31.9106 24.9049 31.3911C25.2923 30.8716 25.486 30.1493 25.486 29.2241C25.486 28.4448 25.3059 27.8341 24.9459 27.3921C24.5859 26.95 24.0983 26.729 23.483 26.729C22.8313 26.729 22.3073 26.9569 21.9108 27.4126C21.5143 27.8638 21.316 28.4312 21.316 29.1147ZM31.3512 33.1138C30.3167 33.1138 29.4895 32.7879 28.8698 32.1362C28.2545 31.48 27.9469 30.6118 27.9469 29.5317C27.9469 28.356 28.2682 27.4377 28.9108 26.7769C29.5533 26.116 30.4215 25.7856 31.5153 25.7856C32.5589 25.7856 33.3724 26.1069 33.9557 26.7495C34.5436 27.3921 34.8375 28.283 34.8375 29.4224C34.8375 30.5389 34.5208 31.4344 33.8873 32.1089C33.2584 32.7788 32.413 33.1138 31.3512 33.1138ZM31.4332 26.729C30.7132 26.729 30.1435 26.9751 29.7242 27.4673C29.305 27.9549 29.0953 28.6294 29.0953 29.4907C29.0953 30.3201 29.3073 30.9741 29.7311 31.4526C30.1549 31.9312 30.7223 32.1704 31.4332 32.1704C32.1578 32.1704 32.7138 31.9357 33.1012 31.4663C33.4931 30.9969 33.6891 30.3293 33.6891 29.4634C33.6891 28.5884 33.4931 27.9139 33.1012 27.4399C32.7138 26.966 32.1578 26.729 31.4332 26.729ZM41.6393 32.9497H40.5182V31.856H40.4908C40.0032 32.6945 39.2854 33.1138 38.3375 33.1138C37.6403 33.1138 37.0934 32.9292 36.6969 32.5601C36.305 32.1909 36.109 31.701 36.109 31.0903C36.109 29.7824 36.8792 29.0213 38.4196 28.8071L40.5182 28.5132C40.5182 27.3237 40.0374 26.729 39.0758 26.729C38.2327 26.729 37.4716 27.0161 36.7926 27.5903V26.4419C37.4808 26.0044 38.2737 25.7856 39.1715 25.7856C40.8167 25.7856 41.6393 26.6561 41.6393 28.397V32.9497ZM40.5182 29.4087L38.8297 29.6411C38.3102 29.714 37.9183 29.8439 37.6539 30.0308C37.3896 30.2131 37.2574 30.5389 37.2574 31.0083C37.2574 31.3501 37.3782 31.6304 37.6198 31.8491C37.8658 32.0633 38.1917 32.1704 38.5973 32.1704C39.1533 32.1704 39.6113 31.9767 39.9713 31.5894C40.3359 31.1974 40.5182 30.703 40.5182 30.106V29.4087ZM47.402 27.0845C47.206 26.9341 46.9235 26.8589 46.5543 26.8589C46.0758 26.8589 45.6748 27.0845 45.3512 27.5356C45.0322 27.9868 44.8727 28.6021 44.8727 29.3813V32.9497H43.7516V25.9497H44.8727V27.3921H44.9C45.0595 26.8999 45.3033 26.5171 45.6315 26.2437C45.9596 25.9657 46.3265 25.8267 46.7321 25.8267C47.0237 25.8267 47.247 25.8586 47.402 25.9224V27.0845ZM54.5934 32.9497H53.4723V31.7603H53.4449C52.9254 32.6626 52.1233 33.1138 51.0387 33.1138C50.1591 33.1138 49.455 32.8016 48.9264 32.1772C48.4023 31.5483 48.1403 30.6938 48.1403 29.6138C48.1403 28.4562 48.4319 27.5288 49.0153 26.8315C49.5986 26.1343 50.3756 25.7856 51.3463 25.7856C52.3079 25.7856 53.0074 26.1639 53.4449 26.9204H53.4723V22.5864H54.5934V32.9497ZM53.4723 29.7847V28.7524C53.4723 28.1873 53.2854 27.7088 52.9117 27.3169C52.538 26.925 52.0641 26.729 51.4899 26.729C50.8063 26.729 50.2685 26.9797 49.8766 27.481C49.4847 27.9823 49.2887 28.675 49.2887 29.5591C49.2887 30.3657 49.4755 31.0037 49.8492 31.4731C50.2275 31.938 50.7334 32.1704 51.3668 32.1704C51.9912 32.1704 52.497 31.9448 52.8844 31.4937C53.2763 31.0425 53.4723 30.4728 53.4723 29.7847ZM57.4371 24.1724C57.2366 24.1724 57.0657 24.104 56.9244 23.9673C56.7832 23.8306 56.7125 23.6574 56.7125 23.4478C56.7125 23.2381 56.7832 23.0649 56.9244 22.9282C57.0657 22.7869 57.2366 22.7163 57.4371 22.7163C57.6422 22.7163 57.8154 22.7869 57.9567 22.9282C58.1025 23.0649 58.1754 23.2381 58.1754 23.4478C58.1754 23.6483 58.1025 23.8192 57.9567 23.9604C57.8154 24.1017 57.6422 24.1724 57.4371 24.1724ZM57.984 32.9497H56.8629V25.9497H57.984V32.9497ZM66.0641 32.9497H64.943V28.9575C64.943 27.4718 64.4007 26.729 63.316 26.729C62.7555 26.729 62.2906 26.9409 61.9215 27.3647C61.5569 27.784 61.3746 28.3149 61.3746 28.9575V32.9497H60.2535V25.9497H61.3746V27.1118H61.402C61.9306 26.2277 62.6962 25.7856 63.6989 25.7856C64.4645 25.7856 65.0501 26.034 65.4557 26.5308C65.8613 27.0229 66.0641 27.7362 66.0641 28.6704V32.9497ZM74.1578 32.3892C74.1578 34.9595 72.9274 36.2446 70.4664 36.2446C69.6005 36.2446 68.844 36.0806 68.1969 35.7524V34.6313C68.9853 35.0688 69.7373 35.2876 70.4528 35.2876C72.1754 35.2876 73.0367 34.3716 73.0367 32.5396V31.7739H73.0094C72.4762 32.6672 71.6741 33.1138 70.6031 33.1138C69.7327 33.1138 69.0309 32.8039 68.4977 32.1841C67.969 31.5597 67.7047 30.7235 67.7047 29.6753C67.7047 28.4858 67.9895 27.5402 68.5592 26.8384C69.1334 26.1366 69.9173 25.7856 70.9108 25.7856C71.8541 25.7856 72.5537 26.1639 73.0094 26.9204H73.0367V25.9497H74.1578V32.3892ZM73.0367 29.7847V28.7524C73.0367 28.1965 72.8476 27.7202 72.4694 27.3237C72.0957 26.9272 71.6285 26.729 71.068 26.729C70.3753 26.729 69.833 26.9819 69.441 27.4878C69.0491 27.9891 68.8531 28.6932 68.8531 29.6001C68.8531 30.3794 69.04 31.0037 69.4137 31.4731C69.792 31.938 70.291 32.1704 70.9108 32.1704C71.5397 32.1704 72.0501 31.9471 72.442 31.5005C72.8385 31.0539 73.0367 30.4819 73.0367 29.7847Z" fill="#37352F"/>
</svg>
