<svg width="115" height="17" viewBox="0 0 115 17" fill="none" xmlns="http://www.w3.org/2000/svg">
<path d="M0.575806 14.1758H14.5758V0.175801H0.575806V14.1758ZM19.7028 13.1958V3.39307H22.4098C25.8642 3.39307 27.5914 4.98584 27.5914 8.17139C27.5914 9.68441 27.1106 10.9012 26.149 11.8218C25.192 12.7378 23.9091 13.1958 22.3004 13.1958H19.7028ZM20.8512 4.43213V12.1567H22.3141C23.5992 12.1567 24.5996 11.8127 25.3151 11.1245C26.0306 10.4364 26.3883 9.4611 26.3883 8.19873C26.3883 5.68766 25.053 4.43213 22.3824 4.43213H20.8512ZM34.9948 9.97607H30.0524C30.0706 10.7554 30.2802 11.3569 30.6813 11.7808C31.0823 12.2046 31.6337 12.4165 32.3356 12.4165C33.124 12.4165 33.8486 12.1567 34.5094 11.6372V12.6899C33.8942 13.1366 33.0807 13.3599 32.069 13.3599C31.08 13.3599 30.303 13.0431 29.7379 12.4097C29.1728 11.7716 28.8903 10.8761 28.8903 9.72314C28.8903 8.63395 29.1979 7.74756 29.8131 7.06396C30.4329 6.37581 31.2008 6.03174 32.1168 6.03174C33.0328 6.03174 33.7415 6.32796 34.2428 6.92041C34.7441 7.51286 34.9948 8.33545 34.9948 9.38818V9.97607ZM33.8463 9.02588C33.8418 8.37874 33.6845 7.87516 33.3746 7.51514C33.0693 7.15511 32.6432 6.9751 32.0963 6.9751C31.5677 6.9751 31.1188 7.16423 30.7496 7.54248C30.3805 7.92074 30.1526 8.4152 30.066 9.02588H33.8463ZM36.2731 12.9429V11.7397C36.8837 12.1909 37.5559 12.4165 38.2897 12.4165C39.274 12.4165 39.7662 12.0884 39.7662 11.4321C39.7662 11.2453 39.7229 11.0881 39.6364 10.9604C39.5543 10.8283 39.4404 10.7121 39.2946 10.6118C39.1533 10.5116 38.9847 10.4227 38.7887 10.3452C38.5973 10.2632 38.3899 10.1789 38.1666 10.0923C37.8567 9.96924 37.5833 9.84619 37.3463 9.72314C37.1139 9.59554 36.9179 9.45426 36.7584 9.29932C36.6035 9.13981 36.485 8.9598 36.403 8.75928C36.3255 8.55876 36.2867 8.32406 36.2867 8.05518C36.2867 7.72705 36.3619 7.43766 36.5123 7.18701C36.6627 6.9318 36.8632 6.71989 37.1139 6.55127C37.3645 6.37809 37.6494 6.24821 37.9684 6.16162C38.292 6.07503 38.6246 6.03174 38.9664 6.03174C39.5726 6.03174 40.1149 6.13656 40.5934 6.34619V7.48096C40.0784 7.14372 39.486 6.9751 38.816 6.9751C38.6064 6.9751 38.4173 7.00016 38.2487 7.05029C38.08 7.09587 37.9342 7.16195 37.8112 7.24854C37.6927 7.33512 37.5992 7.43994 37.5309 7.56299C37.4671 7.68148 37.4352 7.81364 37.4352 7.95947C37.4352 8.14176 37.4671 8.29443 37.5309 8.41748C37.5992 8.54053 37.6972 8.6499 37.8248 8.74561C37.9524 8.84131 38.1074 8.9279 38.2897 9.00537C38.472 9.08285 38.6793 9.16715 38.9117 9.2583C39.2216 9.37679 39.4996 9.49984 39.7457 9.62744C39.9918 9.75049 40.2015 9.89176 40.3746 10.0513C40.5478 10.2062 40.68 10.3862 40.7711 10.5913C40.8668 10.7964 40.9147 11.0402 40.9147 11.3228C40.9147 11.6691 40.8372 11.9699 40.6823 12.2251C40.5319 12.4803 40.3291 12.6922 40.0739 12.8608C39.8186 13.0295 39.5247 13.1548 39.192 13.2368C38.8593 13.3188 38.5107 13.3599 38.1461 13.3599C37.4261 13.3599 36.8017 13.2209 36.2731 12.9429ZM48.4547 13.1958H46.8824L43.7926 9.83252H43.7653V13.1958H42.6442V2.83252H43.7653V9.40186H43.7926L46.7321 6.1958H48.2018L44.9547 9.57275L48.4547 13.1958ZM52.8502 13.1274C52.5859 13.2733 52.2373 13.3462 51.8043 13.3462C50.5784 13.3462 49.9655 12.6626 49.9655 11.2954V7.15283H48.7623V6.1958H49.9655V4.48682L51.0865 4.12451V6.1958H52.8502V7.15283H51.0865V11.0972C51.0865 11.5666 51.1663 11.9015 51.3258 12.1021C51.4853 12.3026 51.7496 12.4028 52.1188 12.4028C52.4013 12.4028 52.6451 12.3254 52.8502 12.1704V13.1274ZM57.2731 13.3599C56.2386 13.3599 55.4114 13.034 54.7916 12.3823C54.1764 11.7261 53.8688 10.8579 53.8688 9.77783C53.8688 8.60205 54.1901 7.68376 54.8326 7.02295C55.4752 6.36214 56.3434 6.03174 57.4371 6.03174C58.4808 6.03174 59.2942 6.35303 59.8776 6.99561C60.4655 7.63818 60.7594 8.52913 60.7594 9.66846C60.7594 10.785 60.4427 11.6805 59.8092 12.355C59.1803 13.0249 58.3349 13.3599 57.2731 13.3599ZM57.3551 6.9751C56.6351 6.9751 56.0654 7.22119 55.6461 7.71338C55.2268 8.20101 55.0172 8.87549 55.0172 9.73682C55.0172 10.5662 55.2291 11.2202 55.653 11.6987C56.0768 12.1772 56.6442 12.4165 57.3551 12.4165C58.0797 12.4165 58.6357 12.1818 59.0231 11.7124C59.415 11.243 59.611 10.5754 59.611 9.70947C59.611 8.83447 59.415 8.15999 59.0231 7.68604C58.6357 7.21208 58.0797 6.9751 57.3551 6.9751ZM63.6989 12.1841H63.6715V16.4155H62.5504V6.1958H63.6715V7.42627H63.6989C64.2503 6.49658 65.0569 6.03174 66.1188 6.03174C67.0211 6.03174 67.7252 6.34619 68.2311 6.9751C68.7369 7.59945 68.9899 8.43799 68.9899 9.49072C68.9899 10.6619 68.705 11.6007 68.1354 12.3071C67.5657 13.009 66.7864 13.3599 65.7975 13.3599C64.8906 13.3599 64.191 12.9679 63.6989 12.1841ZM63.6715 9.36084V10.3384C63.6715 10.9172 63.8584 11.4093 64.2321 11.8149C64.6103 12.216 65.0888 12.4165 65.6676 12.4165C66.3466 12.4165 66.8776 12.1567 67.2604 11.6372C67.6477 11.1177 67.8414 10.3953 67.8414 9.47021C67.8414 8.69092 67.6614 8.08024 67.3014 7.63818C66.9414 7.19613 66.4537 6.9751 65.8385 6.9751C65.1868 6.9751 64.6627 7.20296 64.2662 7.65869C63.8698 8.10986 63.6715 8.67725 63.6715 9.36084ZM74.3151 12.7993V11.4458C74.47 11.5825 74.6546 11.7056 74.8688 11.8149C75.0875 11.9243 75.3154 12.0177 75.5524 12.0952C75.7939 12.1681 76.0354 12.2251 76.277 12.2661C76.5185 12.3071 76.7418 12.3276 76.9469 12.3276C77.6533 12.3276 78.1796 12.1978 78.526 11.938C78.8769 11.6737 79.0524 11.2954 79.0524 10.8032C79.0524 10.5389 78.9931 10.3088 78.8746 10.1128C78.7607 9.91683 78.6012 9.7391 78.3961 9.57959C78.191 9.41553 77.9472 9.26058 77.6647 9.11475C77.3867 8.96436 77.0859 8.80713 76.7623 8.64307C76.4205 8.46989 76.1015 8.29443 75.8053 8.1167C75.5091 7.93896 75.2516 7.743 75.0328 7.52881C74.8141 7.31462 74.6409 7.07308 74.5133 6.8042C74.3903 6.53076 74.3287 6.21175 74.3287 5.84717C74.3287 5.40055 74.4267 5.01318 74.6227 4.68506C74.8186 4.35238 75.0761 4.07894 75.3951 3.86475C75.7142 3.65055 76.0765 3.49105 76.4821 3.38623C76.8922 3.28141 77.3092 3.229 77.733 3.229C78.6992 3.229 79.4033 3.34521 79.8453 3.57764V4.86963C79.2666 4.46859 78.5237 4.26807 77.6168 4.26807C77.3662 4.26807 77.1155 4.29541 76.8649 4.3501C76.6142 4.40023 76.3909 4.48454 76.1949 4.60303C75.999 4.72152 75.8395 4.87419 75.7164 5.06104C75.5934 5.24788 75.5319 5.47575 75.5319 5.74463C75.5319 5.99528 75.5774 6.21175 75.6686 6.39404C75.7643 6.57633 75.9033 6.74268 76.0856 6.89307C76.2679 7.04346 76.4889 7.18929 76.7487 7.33057C77.013 7.47184 77.316 7.62679 77.6578 7.79541C78.0087 7.96859 78.3414 8.15088 78.6559 8.34229C78.9703 8.53369 79.2461 8.74561 79.483 8.97803C79.72 9.21045 79.9069 9.46794 80.0436 9.75049C80.1849 10.033 80.2555 10.3566 80.2555 10.7212C80.2555 11.2043 80.1598 11.6144 79.9684 11.9517C79.7815 12.2843 79.5263 12.5555 79.2028 12.7651C78.8837 12.9748 78.5146 13.1252 78.0953 13.2163C77.6761 13.312 77.234 13.3599 76.7692 13.3599C76.6142 13.3599 76.4228 13.3462 76.1949 13.3188C75.9671 13.2961 75.7347 13.2596 75.4977 13.2095C75.2607 13.1639 75.0351 13.1069 74.8209 13.0386C74.6113 12.9657 74.4427 12.8859 74.3151 12.7993ZM82.6344 4.41846C82.4339 4.41846 82.263 4.3501 82.1217 4.21338C81.9804 4.07666 81.9098 3.90348 81.9098 3.69385C81.9098 3.48421 81.9804 3.31104 82.1217 3.17432C82.263 3.03304 82.4339 2.9624 82.6344 2.9624C82.8395 2.9624 83.0127 3.03304 83.1539 3.17432C83.2998 3.31104 83.3727 3.48421 83.3727 3.69385C83.3727 3.89437 83.2998 4.06527 83.1539 4.20654C83.0127 4.34782 82.8395 4.41846 82.6344 4.41846ZM83.1813 13.1958H82.0602V6.1958H83.1813V13.1958ZM91.4254 12.6353C91.4254 15.2056 90.1949 16.4907 87.734 16.4907C86.8681 16.4907 86.1116 16.3267 85.4645 15.9985V14.8774C86.2529 15.3149 87.0048 15.5337 87.7203 15.5337C89.443 15.5337 90.3043 14.6177 90.3043 12.7856V12.02H90.277C89.7438 12.9132 88.9417 13.3599 87.8707 13.3599C87.0003 13.3599 86.2985 13.05 85.7653 12.4302C85.2366 11.8058 84.9723 10.9696 84.9723 9.92139C84.9723 8.73193 85.2571 7.7863 85.8268 7.08447C86.401 6.38265 87.1849 6.03174 88.1783 6.03174C89.1217 6.03174 89.8212 6.40999 90.277 7.1665H90.3043V6.1958H91.4254V12.6353ZM90.3043 10.0308V8.99854C90.3043 8.44255 90.1152 7.96631 89.7369 7.56982C89.3632 7.17334 88.8961 6.9751 88.3356 6.9751C87.6429 6.9751 87.1005 7.22803 86.7086 7.73389C86.3167 8.23519 86.1207 8.93929 86.1207 9.84619C86.1207 10.6255 86.3076 11.2498 86.6813 11.7192C87.0595 12.1841 87.5586 12.4165 88.1783 12.4165C88.8073 12.4165 89.3177 12.1932 89.7096 11.7466C90.1061 11.3 90.3043 10.728 90.3043 10.0308ZM99.5055 13.1958H98.3844V9.20361C98.3844 7.71794 97.8421 6.9751 96.7574 6.9751C96.1969 6.9751 95.7321 7.18701 95.3629 7.61084C94.9983 8.03011 94.816 8.56104 94.816 9.20361V13.1958H93.6949V6.1958H94.816V7.35791H94.8434C95.372 6.4738 96.1377 6.03174 97.1403 6.03174C97.9059 6.03174 98.4915 6.28011 98.8971 6.77686C99.3027 7.26904 99.5055 7.98226 99.5055 8.9165V13.1958ZM106.765 13.1958H105.617V3.39307H106.765V13.1958ZM115.009 13.1958H113.888V9.20361C113.888 7.71794 113.346 6.9751 112.261 6.9751C111.701 6.9751 111.236 7.18701 110.867 7.61084C110.502 8.03011 110.32 8.56104 110.32 9.20361V13.1958H109.199V6.1958H110.32V7.35791H110.347C110.876 6.4738 111.642 6.03174 112.644 6.03174C113.41 6.03174 113.995 6.28011 114.401 6.77686C114.807 7.26904 115.009 7.98226 115.009 8.9165V13.1958Z" fill="#37352F"/>
</svg>
