<svg width="150" height="17" viewBox="0 0 150 17" fill="none" xmlns="http://www.w3.org/2000/svg">
<path d="M0.798828 14.4217H14.7988V0.42165H0.798828V14.4217ZM29.9199 13.4417H28.7783V6.86548C28.7783 6.34595 28.8102 5.71021 28.874 4.95825H28.8467C28.7373 5.40031 28.6393 5.71704 28.5527 5.90845L25.2031 13.4417H24.6426L21.2998 5.96313C21.2041 5.74438 21.1061 5.40942 21.0059 4.95825H20.9785C21.015 5.35018 21.0332 5.99048 21.0332 6.87915V13.4417H19.9258V3.63892H21.4434L24.4512 10.4749C24.6836 10.9989 24.834 11.3909 24.9023 11.6506H24.9434C25.1393 11.1129 25.2965 10.7118 25.415 10.4475L28.4844 3.63892H29.9199V13.4417ZM35.2793 13.6057C34.2448 13.6057 33.4176 13.2799 32.7979 12.6282C32.1826 11.9719 31.875 11.1038 31.875 10.0237C31.875 8.8479 32.1963 7.92961 32.8389 7.2688C33.4814 6.60799 34.3496 6.27759 35.4434 6.27759C36.487 6.27759 37.3005 6.59888 37.8838 7.24146C38.4717 7.88403 38.7656 8.77498 38.7656 9.91431C38.7656 11.0308 38.4489 11.9264 37.8154 12.6008C37.1865 13.2708 36.3411 13.6057 35.2793 13.6057ZM35.3613 7.22095C34.6413 7.22095 34.0716 7.46704 33.6523 7.95923C33.2331 8.44686 33.0234 9.12134 33.0234 9.98267C33.0234 10.8121 33.2354 11.4661 33.6592 11.9446C34.083 12.4231 34.6504 12.6624 35.3613 12.6624C36.0859 12.6624 36.6419 12.4277 37.0293 11.9583C37.4212 11.4889 37.6172 10.8212 37.6172 9.95532C37.6172 9.08032 37.4212 8.40584 37.0293 7.93188C36.6419 7.45793 36.0859 7.22095 35.3613 7.22095ZM41.7051 12.4299H41.6777V13.4417H40.5566V3.07837H41.6777V7.67212H41.7051C42.2565 6.74243 43.0632 6.27759 44.125 6.27759C45.0228 6.27759 45.7246 6.59204 46.2305 7.22095C46.7409 7.8453 46.9961 8.68384 46.9961 9.73657C46.9961 10.9078 46.7113 11.8466 46.1416 12.553C45.5719 13.2548 44.7926 13.6057 43.8037 13.6057C42.8786 13.6057 42.179 13.2138 41.7051 12.4299ZM41.6777 9.60669V10.5842C41.6777 11.163 41.8646 11.6552 42.2383 12.0608C42.6165 12.4618 43.0951 12.6624 43.6738 12.6624C44.3529 12.6624 44.8838 12.4026 45.2666 11.8831C45.654 11.3635 45.8477 10.6412 45.8477 9.71606C45.8477 8.93677 45.6676 8.32609 45.3076 7.88403C44.9476 7.44198 44.46 7.22095 43.8447 7.22095C43.193 7.22095 42.6689 7.44881 42.2725 7.90454C41.876 8.35571 41.6777 8.9231 41.6777 9.60669ZM49.3613 4.66431C49.1608 4.66431 48.9899 4.59595 48.8486 4.45923C48.7074 4.32251 48.6367 4.14933 48.6367 3.9397C48.6367 3.73006 48.7074 3.55688 48.8486 3.42017C48.9899 3.27889 49.1608 3.20825 49.3613 3.20825C49.5664 3.20825 49.7396 3.27889 49.8809 3.42017C50.0267 3.55688 50.0996 3.73006 50.0996 3.9397C50.0996 4.14022 50.0267 4.31112 49.8809 4.45239C49.7396 4.59367 49.5664 4.66431 49.3613 4.66431ZM49.9082 13.4417H48.7871V6.44165H49.9082V13.4417ZM53.2988 13.4417H52.1777V3.07837H53.2988V13.4417ZM61.1943 10.2219H56.252C56.2702 11.0012 56.4798 11.6028 56.8809 12.0266C57.2819 12.4504 57.8333 12.6624 58.5352 12.6624C59.3236 12.6624 60.0482 12.4026 60.709 11.8831V12.9358C60.0938 13.3824 59.2803 13.6057 58.2686 13.6057C57.2796 13.6057 56.5026 13.289 55.9375 12.6555C55.3724 12.0175 55.0898 11.122 55.0898 9.96899C55.0898 8.8798 55.3975 7.99341 56.0127 7.30981C56.6325 6.62166 57.4004 6.27759 58.3164 6.27759C59.2324 6.27759 59.9411 6.57381 60.4424 7.16626C60.9437 7.75871 61.1943 8.5813 61.1943 9.63403V10.2219ZM60.0459 9.27173C60.0413 8.62459 59.8841 8.12101 59.5742 7.76099C59.2689 7.40096 58.8428 7.22095 58.2959 7.22095C57.7673 7.22095 57.3184 7.41007 56.9492 7.78833C56.5801 8.16659 56.3522 8.66105 56.2656 9.27173H60.0459ZM66.4307 13.0452V11.6917C66.5856 11.8284 66.7702 11.9514 66.9844 12.0608C67.2031 12.1702 67.431 12.2636 67.668 12.3411C67.9095 12.414 68.151 12.4709 68.3926 12.512C68.6341 12.553 68.8574 12.5735 69.0625 12.5735C69.7689 12.5735 70.2952 12.4436 70.6416 12.1838C70.9925 11.9195 71.168 11.5413 71.168 11.0491C71.168 10.7847 71.1087 10.5546 70.9902 10.3586C70.8763 10.1627 70.7168 9.98494 70.5117 9.82544C70.3066 9.66138 70.0628 9.50643 69.7803 9.3606C69.5023 9.21021 69.2015 9.05298 68.8779 8.88892C68.5361 8.71574 68.2171 8.54028 67.9209 8.36255C67.6247 8.18481 67.3672 7.98885 67.1484 7.77466C66.9297 7.56047 66.7565 7.31893 66.6289 7.05005C66.5059 6.77661 66.4443 6.4576 66.4443 6.09302C66.4443 5.6464 66.5423 5.25903 66.7383 4.93091C66.9342 4.59823 67.1917 4.32479 67.5107 4.1106C67.8298 3.8964 68.1921 3.7369 68.5977 3.63208C69.0078 3.52726 69.4248 3.47485 69.8486 3.47485C70.8148 3.47485 71.5189 3.59106 71.9609 3.82349V5.11548C71.3822 4.71444 70.6393 4.51392 69.7324 4.51392C69.4818 4.51392 69.2311 4.54126 68.9805 4.59595C68.7298 4.64608 68.5065 4.73039 68.3105 4.84888C68.1146 4.96737 67.9551 5.12004 67.832 5.30688C67.709 5.49373 67.6475 5.7216 67.6475 5.99048C67.6475 6.24113 67.693 6.4576 67.7842 6.63989C67.8799 6.82218 68.0189 6.98853 68.2012 7.13892C68.3835 7.28931 68.6045 7.43514 68.8643 7.57642C69.1286 7.71769 69.4316 7.87264 69.7734 8.04126C70.1243 8.21444 70.457 8.39673 70.7715 8.58813C71.0859 8.77954 71.3617 8.99146 71.5986 9.22388C71.8356 9.4563 72.0225 9.71379 72.1592 9.99634C72.3005 10.2789 72.3711 10.6025 72.3711 10.967C72.3711 11.4501 72.2754 11.8603 72.084 12.1975C71.8971 12.5302 71.6419 12.8014 71.3184 13.011C70.9993 13.2206 70.6302 13.371 70.2109 13.4622C69.7917 13.5579 69.3496 13.6057 68.8848 13.6057C68.7298 13.6057 68.5384 13.592 68.3105 13.5647C68.0827 13.5419 67.8503 13.5055 67.6133 13.4553C67.3763 13.4097 67.1507 13.3528 66.9365 13.2844C66.7269 13.2115 66.5583 13.1318 66.4307 13.0452ZM76.9717 13.3733C76.7074 13.5191 76.3587 13.592 75.9258 13.592C74.6999 13.592 74.0869 12.9084 74.0869 11.5413V7.39868H72.8838V6.44165H74.0869V4.73267L75.208 4.37036V6.44165H76.9717V7.39868H75.208V11.343C75.208 11.8124 75.2878 12.1474 75.4473 12.3479C75.6068 12.5484 75.8711 12.6487 76.2402 12.6487C76.5228 12.6487 76.7666 12.5712 76.9717 12.4163V13.3733ZM83.4795 13.4417H82.3584V12.3479H82.3311C81.8434 13.1864 81.1257 13.6057 80.1777 13.6057C79.4805 13.6057 78.9336 13.4211 78.5371 13.052C78.1452 12.6829 77.9492 12.193 77.9492 11.5823C77.9492 10.2743 78.7194 9.51326 80.2598 9.29907L82.3584 9.00513C82.3584 7.81567 81.8776 7.22095 80.916 7.22095C80.0729 7.22095 79.3118 7.50806 78.6328 8.08228V6.93384C79.321 6.49634 80.1139 6.27759 81.0117 6.27759C82.6569 6.27759 83.4795 7.14803 83.4795 8.88892V13.4417ZM82.3584 9.90063L80.6699 10.1331C80.1504 10.206 79.7585 10.3359 79.4941 10.5227C79.2298 10.705 79.0977 11.0308 79.0977 11.5002C79.0977 11.842 79.2184 12.1223 79.46 12.3411C79.7061 12.5553 80.0319 12.6624 80.4375 12.6624C80.9935 12.6624 81.4515 12.4687 81.8115 12.0813C82.1761 11.6894 82.3584 11.1949 82.3584 10.5979V9.90063ZM89.2422 7.57642C89.0462 7.42603 88.7637 7.35083 88.3945 7.35083C87.916 7.35083 87.515 7.57642 87.1914 8.02759C86.8724 8.47876 86.7129 9.09399 86.7129 9.87329V13.4417H85.5918V6.44165H86.7129V7.88403H86.7402C86.8997 7.39185 87.1436 7.00903 87.4717 6.7356C87.7998 6.4576 88.1667 6.3186 88.5723 6.3186C88.8639 6.3186 89.0872 6.3505 89.2422 6.41431V7.57642ZM93.7061 13.3733C93.4417 13.5191 93.0931 13.592 92.6602 13.592C91.4342 13.592 90.8213 12.9084 90.8213 11.5413V7.39868H89.6182V6.44165H90.8213V4.73267L91.9424 4.37036V6.44165H93.7061V7.39868H91.9424V11.343C91.9424 11.8124 92.0221 12.1474 92.1816 12.3479C92.3411 12.5484 92.6055 12.6487 92.9746 12.6487C93.2572 12.6487 93.501 12.5712 93.7061 12.4163V13.3733ZM106.366 9.47681C106.366 12.2294 105.124 13.6057 102.641 13.6057C100.262 13.6057 99.0723 12.2818 99.0723 9.63403V3.63892H100.221V9.55884C100.221 11.5686 101.068 12.5735 102.764 12.5735C104.4 12.5735 105.218 11.6028 105.218 9.66138V3.63892H106.366V9.47681ZM109.818 12.4299H109.791V16.6614H108.67V6.44165H109.791V7.67212H109.818C110.37 6.74243 111.176 6.27759 112.238 6.27759C113.141 6.27759 113.845 6.59204 114.351 7.22095C114.856 7.8453 115.109 8.68384 115.109 9.73657C115.109 10.9078 114.825 11.8466 114.255 12.553C113.685 13.2548 112.906 13.6057 111.917 13.6057C111.01 13.6057 110.311 13.2138 109.818 12.4299ZM109.791 9.60669V10.5842C109.791 11.163 109.978 11.6552 110.352 12.0608C110.73 12.4618 111.208 12.6624 111.787 12.6624C112.466 12.6624 112.997 12.4026 113.38 11.8831C113.767 11.3635 113.961 10.6412 113.961 9.71606C113.961 8.93677 113.781 8.32609 113.421 7.88403C113.061 7.44198 112.573 7.22095 111.958 7.22095C111.306 7.22095 110.782 7.44881 110.386 7.90454C109.989 8.35571 109.791 8.9231 109.791 9.60669ZM126.689 4.67798H123.859V13.4417H122.711V4.67798H119.888V3.63892H126.689V4.67798ZM128.658 4.66431C128.458 4.66431 128.287 4.59595 128.146 4.45923C128.004 4.32251 127.934 4.14933 127.934 3.9397C127.934 3.73006 128.004 3.55688 128.146 3.42017C128.287 3.27889 128.458 3.20825 128.658 3.20825C128.863 3.20825 129.036 3.27889 129.178 3.42017C129.324 3.55688 129.396 3.73006 129.396 3.9397C129.396 4.14022 129.324 4.31112 129.178 4.45239C129.036 4.59367 128.863 4.66431 128.658 4.66431ZM129.205 13.4417H128.084V6.44165H129.205V13.4417ZM141.414 13.4417H140.293V9.42212C140.293 8.64738 140.172 8.08683 139.931 7.74048C139.694 7.39412 139.293 7.22095 138.728 7.22095C138.249 7.22095 137.841 7.4397 137.504 7.8772C137.171 8.3147 137.005 8.83879 137.005 9.44946V13.4417H135.884V9.2854C135.884 7.9091 135.353 7.22095 134.291 7.22095C133.799 7.22095 133.393 7.4283 133.074 7.84302C132.755 8.25317 132.596 8.78866 132.596 9.44946V13.4417H131.475V6.44165H132.596V7.54907H132.623C133.12 6.70142 133.844 6.27759 134.797 6.27759C135.275 6.27759 135.692 6.41203 136.048 6.68091C136.403 6.94523 136.647 7.29386 136.779 7.72681C137.299 6.76066 138.074 6.27759 139.104 6.27759C140.644 6.27759 141.414 7.22778 141.414 9.12817V13.4417ZM149.159 10.2219H144.217C144.235 11.0012 144.445 11.6028 144.846 12.0266C145.247 12.4504 145.798 12.6624 146.5 12.6624C147.288 12.6624 148.013 12.4026 148.674 11.8831V12.9358C148.059 13.3824 147.245 13.6057 146.233 13.6057C145.244 13.6057 144.467 13.289 143.902 12.6555C143.337 12.0175 143.055 11.122 143.055 9.96899C143.055 8.8798 143.362 7.99341 143.978 7.30981C144.597 6.62166 145.365 6.27759 146.281 6.27759C147.197 6.27759 147.906 6.57381 148.407 7.16626C148.909 7.75871 149.159 8.5813 149.159 9.63403V10.2219ZM148.011 9.27173C148.006 8.62459 147.849 8.12101 147.539 7.76099C147.234 7.40096 146.808 7.22095 146.261 7.22095C145.732 7.22095 145.283 7.41007 144.914 7.78833C144.545 8.16659 144.317 8.66105 144.23 9.27173H148.011Z" fill="#37352F"/>
</svg>
