<svg width="143" height="17" viewBox="0 0 143 17" fill="none" xmlns="http://www.w3.org/2000/svg">
<path d="M0.575806 14.4217H14.5758V0.42165H0.575806V14.4217ZM24.7887 13.4417H19.7028V3.63892H20.8512V12.4026H24.7887V13.4417ZM29.068 13.6057C28.0335 13.6057 27.2063 13.2799 26.5865 12.6282C25.9713 11.9719 25.6637 11.1038 25.6637 10.0237C25.6637 8.8479 25.985 7.92961 26.6276 7.2688C27.2701 6.60799 28.1383 6.27759 29.2321 6.27759C30.2757 6.27759 31.0892 6.59888 31.6725 7.24146C32.2604 7.88403 32.5543 8.77498 32.5543 9.91431C32.5543 11.0308 32.2376 11.9264 31.6041 12.6008C30.9752 13.2708 30.1298 13.6057 29.068 13.6057ZM29.15 7.22095C28.43 7.22095 27.8603 7.46704 27.441 7.95923C27.0218 8.44686 26.8121 9.12134 26.8121 9.98267C26.8121 10.8121 27.024 11.4661 27.4479 11.9446C27.8717 12.4231 28.4391 12.6624 29.15 12.6624C29.8746 12.6624 30.4306 12.4277 30.818 11.9583C31.2099 11.4889 31.4059 10.8212 31.4059 9.95532C31.4059 9.08032 31.2099 8.40584 30.818 7.93188C30.4306 7.45793 29.8746 7.22095 29.15 7.22095ZM40.3199 12.8811C40.3199 15.4514 39.0895 16.7366 36.6285 16.7366C35.7627 16.7366 35.0061 16.5725 34.359 16.2444V15.1233C35.1474 15.5608 35.8994 15.7795 36.6149 15.7795C38.3375 15.7795 39.1989 14.8635 39.1989 13.0315V12.2659H39.1715C38.6383 13.1591 37.8362 13.6057 36.7653 13.6057C35.8948 13.6057 35.193 13.2958 34.6598 12.676C34.1311 12.0517 33.8668 11.2154 33.8668 10.1672C33.8668 8.97778 34.1517 8.03215 34.7213 7.33032C35.2955 6.6285 36.0794 6.27759 37.0729 6.27759C38.0162 6.27759 38.7158 6.65584 39.1715 7.41235H39.1989V6.44165H40.3199V12.8811ZM39.1989 10.2766V9.24438C39.1989 8.6884 39.0097 8.21216 38.6315 7.81567C38.2578 7.41919 37.7906 7.22095 37.2301 7.22095C36.5374 7.22095 35.9951 7.47388 35.6031 7.97974C35.2112 8.48104 35.0153 9.18514 35.0153 10.092C35.0153 10.8713 35.2021 11.4957 35.5758 11.9651C35.9541 12.4299 36.4531 12.6624 37.0729 12.6624C37.7018 12.6624 38.2122 12.439 38.6041 11.9924C39.0006 11.5458 39.1989 10.9739 39.1989 10.2766ZM43.1637 4.66431C42.9632 4.66431 42.7923 4.59595 42.651 4.45923C42.5097 4.32251 42.4391 4.14933 42.4391 3.9397C42.4391 3.73006 42.5097 3.55688 42.651 3.42017C42.7923 3.27889 42.9632 3.20825 43.1637 3.20825C43.3688 3.20825 43.542 3.27889 43.6832 3.42017C43.8291 3.55688 43.902 3.73006 43.902 3.9397C43.902 4.14022 43.8291 4.31112 43.6832 4.45239C43.542 4.59367 43.3688 4.66431 43.1637 4.66431ZM43.7106 13.4417H42.5895V6.44165H43.7106V13.4417ZM51.7906 13.4417H50.6696V9.44946C50.6696 7.96379 50.1272 7.22095 49.0426 7.22095C48.4821 7.22095 48.0172 7.43286 47.6481 7.85669C47.2835 8.27596 47.1012 8.80688 47.1012 9.44946V13.4417H45.9801V6.44165H47.1012V7.60376H47.1285C47.6572 6.71965 48.4228 6.27759 49.4254 6.27759C50.191 6.27759 50.7767 6.52596 51.1823 7.02271C51.5878 7.51489 51.7906 8.22811 51.7906 9.16235V13.4417ZM57.902 13.4417V3.63892H60.691C61.5387 3.63892 62.2109 3.84627 62.7076 4.26099C63.2044 4.6757 63.4528 5.21574 63.4528 5.8811C63.4528 6.43709 63.3024 6.92017 63.0016 7.33032C62.7008 7.74048 62.2861 8.03215 61.7574 8.20532V8.23267C62.4183 8.31014 62.9469 8.56079 63.3434 8.98462C63.7399 9.40389 63.9381 9.95076 63.9381 10.6252C63.9381 11.4638 63.6373 12.1428 63.0358 12.6624C62.4342 13.1819 61.6754 13.4417 60.7594 13.4417H57.902ZM59.0504 4.67798V7.84302H60.2262C60.8551 7.84302 61.3496 7.69263 61.7096 7.39185C62.0696 7.08651 62.2496 6.65812 62.2496 6.10669C62.2496 5.15422 61.623 4.67798 60.3698 4.67798H59.0504ZM59.0504 8.87524V12.4026H60.609C61.2835 12.4026 61.8053 12.2431 62.1744 11.9241C62.5481 11.6051 62.735 11.1676 62.735 10.6116C62.735 9.45402 61.9466 8.87524 60.3698 8.87524H59.0504ZM71.4371 13.4417H70.316V12.3342H70.2887C69.8239 13.1819 69.1038 13.6057 68.1285 13.6057C66.4606 13.6057 65.6266 12.6122 65.6266 10.6252V6.44165H66.7408V10.4475C66.7408 11.9241 67.3059 12.6624 68.4362 12.6624C68.983 12.6624 69.4319 12.4618 69.7828 12.0608C70.1383 11.6552 70.316 11.1265 70.316 10.4749V6.44165H71.4371V13.4417ZM79.6813 12.8811C79.6813 15.4514 78.4508 16.7366 75.9899 16.7366C75.124 16.7366 74.3675 16.5725 73.7203 16.2444V15.1233C74.5087 15.5608 75.2607 15.7795 75.9762 15.7795C77.6989 15.7795 78.5602 14.8635 78.5602 13.0315V12.2659H78.5328C77.9996 13.1591 77.1976 13.6057 76.1266 13.6057C75.2561 13.6057 74.5543 13.2958 74.0211 12.676C73.4925 12.0517 73.2281 11.2154 73.2281 10.1672C73.2281 8.97778 73.513 8.03215 74.0826 7.33032C74.6569 6.6285 75.4407 6.27759 76.4342 6.27759C77.3776 6.27759 78.0771 6.65584 78.5328 7.41235H78.5602V6.44165H79.6813V12.8811ZM78.5602 10.2766V9.24438C78.5602 8.6884 78.3711 8.21216 77.9928 7.81567C77.6191 7.41919 77.152 7.22095 76.5914 7.22095C75.8987 7.22095 75.3564 7.47388 74.9645 7.97974C74.5726 8.48104 74.3766 9.18514 74.3766 10.092C74.3766 10.8713 74.5634 11.4957 74.9371 11.9651C75.3154 12.4299 75.8144 12.6624 76.4342 12.6624C77.0631 12.6624 77.5735 12.439 77.9655 11.9924C78.3619 11.5458 78.5602 10.9739 78.5602 10.2766ZM81.527 13.1887V11.9856C82.1377 12.4368 82.8099 12.6624 83.5436 12.6624C84.528 12.6624 85.0201 12.3342 85.0201 11.678C85.0201 11.4911 84.9768 11.3339 84.8903 11.2063C84.8082 11.0741 84.6943 10.9579 84.5485 10.8577C84.4072 10.7574 84.2386 10.6685 84.0426 10.5911C83.8512 10.509 83.6438 10.4247 83.4205 10.3381C83.1106 10.2151 82.8372 10.092 82.6002 9.96899C82.3678 9.84139 82.1718 9.70011 82.0123 9.54517C81.8574 9.38566 81.7389 9.20565 81.6569 9.00513C81.5794 8.80461 81.5406 8.56991 81.5406 8.30103C81.5406 7.9729 81.6158 7.68351 81.7662 7.43286C81.9166 7.17765 82.1171 6.96574 82.3678 6.79712C82.6184 6.62394 82.9033 6.49406 83.2223 6.40747C83.5459 6.32088 83.8785 6.27759 84.2203 6.27759C84.8265 6.27759 85.3688 6.38241 85.8473 6.59204V7.72681C85.3323 7.38957 84.7399 7.22095 84.0699 7.22095C83.8603 7.22095 83.6712 7.24601 83.5026 7.29614C83.3339 7.34172 83.1881 7.4078 83.0651 7.49438C82.9466 7.58097 82.8531 7.68579 82.7848 7.80884C82.721 7.92733 82.6891 8.05949 82.6891 8.20532C82.6891 8.38761 82.721 8.54028 82.7848 8.66333C82.8531 8.78638 82.9511 8.89575 83.0787 8.99146C83.2063 9.08716 83.3613 9.17375 83.5436 9.25122C83.7259 9.32869 83.9332 9.413 84.1656 9.50415C84.4755 9.62264 84.7535 9.74569 84.9996 9.87329C85.2457 9.99634 85.4554 10.1376 85.6285 10.2971C85.8017 10.4521 85.9339 10.6321 86.025 10.8372C86.1207 11.0422 86.1686 11.2861 86.1686 11.5686C86.1686 11.915 86.0911 12.2157 85.9362 12.4709C85.7858 12.7262 85.583 12.9381 85.3278 13.1067C85.0726 13.2753 84.7786 13.4006 84.4459 13.4827C84.1132 13.5647 83.7646 13.6057 83.4 13.6057C82.68 13.6057 82.0556 13.4667 81.527 13.1887ZM94.6656 13.6057C93.6311 13.6057 92.804 13.2799 92.1842 12.6282C91.569 11.9719 91.2614 11.1038 91.2614 10.0237C91.2614 8.8479 91.5826 7.92961 92.2252 7.2688C92.8678 6.60799 93.736 6.27759 94.8297 6.27759C95.8733 6.27759 96.6868 6.59888 97.2701 7.24146C97.858 7.88403 98.152 8.77498 98.152 9.91431C98.152 11.0308 97.8352 11.9264 97.2018 12.6008C96.5729 13.2708 95.7275 13.6057 94.6656 13.6057ZM94.7477 7.22095C94.0276 7.22095 93.458 7.46704 93.0387 7.95923C92.6194 8.44686 92.4098 9.12134 92.4098 9.98267C92.4098 10.8121 92.6217 11.4661 93.0455 11.9446C93.4694 12.4231 94.0367 12.6624 94.7477 12.6624C95.4723 12.6624 96.0283 12.4277 96.4156 11.9583C96.8076 11.4889 97.0035 10.8212 97.0035 9.95532C97.0035 9.08032 96.8076 8.40584 96.4156 7.93188C96.0283 7.45793 95.4723 7.22095 94.7477 7.22095ZM105.754 13.4417H104.632V9.44946C104.632 7.96379 104.09 7.22095 103.005 7.22095C102.445 7.22095 101.98 7.43286 101.611 7.85669C101.246 8.27596 101.064 8.80688 101.064 9.44946V13.4417H99.943V6.44165H101.064V7.60376H101.091C101.62 6.71965 102.386 6.27759 103.388 6.27759C104.154 6.27759 104.74 6.52596 105.145 7.02271C105.551 7.51489 105.754 8.22811 105.754 9.16235V13.4417ZM117.06 13.4417H111.865V3.63892H116.841V4.67798H113.013V7.93872H116.554V8.97095H113.013V12.4026H117.06V13.4417ZM128.736 13.4417H127.615V9.42212C127.615 8.64738 127.494 8.08683 127.253 7.74048C127.016 7.39412 126.615 7.22095 126.049 7.22095C125.571 7.22095 125.163 7.4397 124.826 7.8772C124.493 8.3147 124.327 8.83879 124.327 9.44946V13.4417H123.206V9.2854C123.206 7.9091 122.675 7.22095 121.613 7.22095C121.121 7.22095 120.715 7.4283 120.396 7.84302C120.077 8.25317 119.918 8.78866 119.918 9.44946V13.4417H118.797V6.44165H119.918V7.54907H119.945C120.442 6.70142 121.166 6.27759 122.119 6.27759C122.597 6.27759 123.014 6.41203 123.37 6.68091C123.725 6.94523 123.969 7.29386 124.101 7.72681C124.621 6.76066 125.395 6.27759 126.425 6.27759C127.966 6.27759 128.736 7.22778 128.736 9.12817V13.4417ZM135.866 13.4417H134.745V12.3479H134.717C134.23 13.1864 133.512 13.6057 132.564 13.6057C131.867 13.6057 131.32 13.4211 130.923 13.052C130.532 12.6829 130.336 12.193 130.336 11.5823C130.336 10.2743 131.106 9.51326 132.646 9.29907L134.745 9.00513C134.745 7.81567 134.264 7.22095 133.302 7.22095C132.459 7.22095 131.698 7.50806 131.019 8.08228V6.93384C131.707 6.49634 132.5 6.27759 133.398 6.27759C135.043 6.27759 135.866 7.14803 135.866 8.88892V13.4417ZM134.745 9.90063L133.056 10.1331C132.537 10.206 132.145 10.3359 131.88 10.5227C131.616 10.705 131.484 11.0308 131.484 11.5002C131.484 11.842 131.605 12.1223 131.846 12.3411C132.092 12.5553 132.418 12.6624 132.824 12.6624C133.38 12.6624 133.838 12.4687 134.198 12.0813C134.562 11.6894 134.745 11.1949 134.745 10.5979V9.90063ZM138.552 4.66431C138.352 4.66431 138.181 4.59595 138.04 4.45923C137.898 4.32251 137.828 4.14933 137.828 3.9397C137.828 3.73006 137.898 3.55688 138.04 3.42017C138.181 3.27889 138.352 3.20825 138.552 3.20825C138.757 3.20825 138.931 3.27889 139.072 3.42017C139.218 3.55688 139.291 3.73006 139.291 3.9397C139.291 4.14022 139.218 4.31112 139.072 4.45239C138.931 4.59367 138.757 4.66431 138.552 4.66431ZM139.099 13.4417H137.978V6.44165H139.099V13.4417ZM142.49 13.4417H141.369V3.07837H142.49V13.4417Z" fill="#37352F"/>
</svg>
