<svg width="175" height="96" viewBox="0 0 175 96" fill="none" xmlns="http://www.w3.org/2000/svg">
<path d="M0.384521 40.7495H40.3845V0.749463H0.384521V40.7495ZM27.0837 85.9495H19.8376L15.4822 78.7424C15.1567 78.1956 14.8442 77.7073 14.5447 77.2776C14.2452 76.8479 13.9392 76.4833 13.6267 76.1838C13.3272 75.8713 13.0082 75.637 12.6697 75.4807C12.3442 75.3114 11.9861 75.2268 11.5955 75.2268H9.89624V85.9495H3.58765V57.9417H13.5876C20.3845 57.9417 23.783 60.4807 23.783 65.5588C23.783 66.5354 23.6332 67.4403 23.3337 68.2737C23.0343 69.094 22.6111 69.8362 22.0642 70.5002C21.5173 71.1643 20.8533 71.7372 20.072 72.219C19.3038 72.7008 18.4444 73.0784 17.4939 73.3518V73.4299C17.9106 73.5601 18.3142 73.775 18.7048 74.0745C19.0955 74.3609 19.4731 74.6995 19.8376 75.0901C20.2022 75.4807 20.5473 75.9039 20.8728 76.3596C21.2113 76.8023 21.5173 77.2385 21.7908 77.6682L27.0837 85.9495ZM9.89624 62.6682V70.4612H12.6306C13.9848 70.4612 15.072 70.0706 15.8923 69.2893C16.7257 68.495 17.1423 67.512 17.1423 66.3401C17.1423 63.8922 15.6775 62.6682 12.7478 62.6682H9.89624ZM37.1306 86.4377C33.7973 86.4377 31.1736 85.5068 29.2595 83.6448C27.3585 81.7698 26.408 79.2307 26.408 76.0276C26.408 72.7203 27.3975 70.1357 29.3767 68.2737C31.3559 66.3987 34.0317 65.4612 37.4041 65.4612C40.7244 65.4612 43.3285 66.3987 45.2166 68.2737C47.1046 70.1357 48.0486 72.6031 48.0486 75.676C48.0486 78.9963 47.072 81.62 45.1189 83.5471C43.1788 85.4742 40.516 86.4377 37.1306 86.4377ZM37.2869 70.1877C35.8285 70.1877 34.6957 70.689 33.8884 71.6917C33.0811 72.6943 32.6775 74.1135 32.6775 75.9495C32.6775 79.7906 34.227 81.7112 37.3259 81.7112C40.2817 81.7112 41.7595 79.7385 41.7595 75.7932C41.7595 72.0562 40.2686 70.1877 37.2869 70.1877ZM67.8025 85.9495H61.9626V83.0784H61.8845C60.5434 85.318 58.5577 86.4377 55.9275 86.4377C53.9874 86.4377 52.4574 85.8909 51.3376 84.7971C50.2309 83.6903 49.6775 82.219 49.6775 80.3831C49.6775 76.5028 51.9757 74.2633 56.572 73.6643L62.0017 72.9417C62.0017 70.7542 60.8168 69.6604 58.447 69.6604C56.0642 69.6604 53.7986 70.37 51.6501 71.7893V67.1409C52.5095 66.6982 53.6814 66.3075 55.1658 65.969C56.6632 65.6305 58.0238 65.4612 59.2478 65.4612C64.9509 65.4612 67.8025 68.3062 67.8025 73.9963V85.9495ZM62.0017 77.8245V76.4768L58.3689 76.9456C56.3637 77.206 55.3611 78.1109 55.3611 79.6604C55.3611 80.3635 55.602 80.943 56.0837 81.3987C56.5785 81.8414 57.2426 82.0627 58.0759 82.0627C59.2348 82.0627 60.1788 81.6656 60.908 80.8713C61.6371 80.064 62.0017 79.0484 62.0017 77.8245ZM91.7556 85.9495H85.5837V83.1956H85.5056C84.0994 85.357 82.0356 86.4377 79.3142 86.4377C76.8142 86.4377 74.8025 85.5588 73.2791 83.801C71.7556 82.0302 70.9939 79.5627 70.9939 76.3987C70.9939 73.0914 71.8337 70.4417 73.5134 68.4495C75.1931 66.4573 77.3936 65.4612 80.115 65.4612C82.6931 65.4612 84.49 66.3857 85.5056 68.2346H85.5837V56.3401H91.7556V85.9495ZM85.7009 76.2229V74.719C85.7009 73.4169 85.3233 72.3362 84.5681 71.4768C83.8129 70.6174 82.8298 70.1877 81.6189 70.1877C80.2517 70.1877 79.184 70.7281 78.4158 71.8088C77.6475 72.8765 77.2634 74.3479 77.2634 76.2229C77.2634 77.9807 77.6345 79.3349 78.3767 80.2854C79.1189 81.2359 80.1475 81.7112 81.4626 81.7112C82.7126 81.7112 83.7283 81.2099 84.5095 80.2073C85.3038 79.2047 85.7009 77.8765 85.7009 76.2229ZM128.209 85.9495H122.056V74.5432C122.056 71.6396 120.989 70.1877 118.853 70.1877C117.838 70.1877 117.011 70.6239 116.373 71.4963C115.735 72.3687 115.416 73.456 115.416 74.7581V85.9495H109.244V74.426C109.244 71.6005 108.196 70.1877 106.099 70.1877C105.045 70.1877 104.198 70.6044 103.56 71.4377C102.935 72.2711 102.623 73.4039 102.623 74.8362V85.9495H96.4509V65.9495H102.623V69.0745H102.701C103.339 68.0068 104.231 67.1409 105.377 66.4768C106.536 65.7997 107.799 65.4612 109.166 65.4612C111.991 65.4612 113.925 66.7047 114.967 69.1917C116.49 66.7047 118.73 65.4612 121.685 65.4612C126.034 65.4612 128.209 68.1435 128.209 73.5081V85.9495ZM149.232 85.9495H143.392V83.0784H143.314C141.973 85.318 139.987 86.4377 137.357 86.4377C135.417 86.4377 133.887 85.8909 132.767 84.7971C131.661 83.6903 131.107 82.219 131.107 80.3831C131.107 76.5028 133.405 74.2633 138.002 73.6643L143.431 72.9417C143.431 70.7542 142.247 69.6604 139.877 69.6604C137.494 69.6604 135.228 70.37 133.08 71.7893V67.1409C133.939 66.6982 135.111 66.3075 136.595 65.969C138.093 65.6305 139.454 65.4612 140.677 65.4612C146.381 65.4612 149.232 68.3062 149.232 73.9963V85.9495ZM143.431 77.8245V76.4768L139.799 76.9456C137.793 77.206 136.791 78.1109 136.791 79.6604C136.791 80.3635 137.032 80.943 137.513 81.3987C138.008 81.8414 138.672 82.0627 139.506 82.0627C140.664 82.0627 141.608 81.6656 142.338 80.8713C143.067 80.064 143.431 79.0484 143.431 77.8245ZM159.865 83.6252H159.787V95.1487H153.615V65.9495H159.787V68.9573H159.865C161.388 66.6265 163.53 65.4612 166.291 65.4612C168.882 65.4612 170.881 66.3531 172.287 68.137C173.706 69.9078 174.416 72.3232 174.416 75.3831C174.416 78.7164 173.589 81.3922 171.935 83.4104C170.295 85.4286 168.107 86.4377 165.373 86.4377C162.964 86.4377 161.128 85.5002 159.865 83.6252ZM159.689 75.4221V77.0237C159.689 78.4039 160.054 79.5302 160.783 80.4026C161.512 81.275 162.469 81.7112 163.654 81.7112C165.06 81.7112 166.148 81.1708 166.916 80.0901C167.697 78.9963 168.088 77.4534 168.088 75.4612C168.088 71.9456 166.72 70.1877 163.986 70.1877C162.723 70.1877 161.688 70.6695 160.881 71.6331C160.086 72.5836 159.689 73.8466 159.689 75.4221Z" fill="#37352F"/>
</svg>
