<svg width="59" height="33" viewBox="0 0 59 33" fill="none" xmlns="http://www.w3.org/2000/svg">
<path d="M0.392456 14.1682H14.3925V0.168232H0.392456V14.1682ZM8.70496 29.1882H7.33777L5.69714 26.4402C5.54675 26.185 5.40092 25.9685 5.25964 25.7908C5.11837 25.6085 4.97253 25.4604 4.82214 25.3464C4.67631 25.2325 4.51681 25.1505 4.34363 25.1003C4.17501 25.0457 3.9836 25.0183 3.76941 25.0183H2.82605V29.1882H1.67761V19.3855H4.60339C5.03178 19.3855 5.42598 19.4402 5.78601 19.5496C6.15059 19.6544 6.46505 19.8162 6.72937 20.0349C6.99825 20.2537 7.20789 20.5271 7.35828 20.8552C7.50867 21.1788 7.58386 21.5593 7.58386 21.9968C7.58386 22.3386 7.53145 22.6531 7.42664 22.9402C7.32638 23.2227 7.18054 23.4757 6.98914 23.699C6.80229 23.9223 6.57442 24.1137 6.30554 24.2732C6.04122 24.4281 5.74272 24.5489 5.41003 24.6355V24.6628C5.5741 24.7358 5.71537 24.8201 5.83386 24.9158C5.95691 25.0069 6.07312 25.1163 6.1825 25.2439C6.29187 25.3715 6.39897 25.5173 6.50378 25.6814C6.61316 25.8409 6.73393 26.0278 6.86609 26.2419L8.70496 29.1882ZM2.82605 20.4246V23.9792H4.38464C4.67175 23.9792 4.93608 23.936 5.17761 23.8494C5.42371 23.7628 5.63562 23.6397 5.81335 23.4802C5.99109 23.3162 6.13009 23.1179 6.23035 22.8855C6.33061 22.6485 6.38074 22.3842 6.38074 22.0925C6.38074 21.5684 6.20984 21.1606 5.86804 20.8689C5.5308 20.5727 5.04089 20.4246 4.39832 20.4246H2.82605ZM12.3237 29.3523C11.2892 29.3523 10.4621 29.0264 9.84226 28.3748C9.22703 27.7185 8.91941 26.8503 8.91941 25.7703C8.91941 24.5945 9.2407 23.6762 9.88328 23.0154C10.5259 22.3546 11.394 22.0242 12.4878 22.0242C13.5314 22.0242 14.3449 22.3455 14.9282 22.988C15.5161 23.6306 15.81 24.5216 15.81 25.6609C15.81 26.7774 15.4933 27.6729 14.8598 28.3474C14.2309 29.0173 13.3856 29.3523 12.3237 29.3523ZM12.4057 22.9675C11.6857 22.9675 11.116 23.2136 10.6968 23.7058C10.2775 24.1934 10.0678 24.8679 10.0678 25.7292C10.0678 26.5587 10.2798 27.2126 10.7036 27.6912C11.1274 28.1697 11.6948 28.4089 12.4057 28.4089C13.1303 28.4089 13.6863 28.1742 14.0737 27.7048C14.4656 27.2354 14.6616 26.5678 14.6616 25.7019C14.6616 24.8269 14.4656 24.1524 14.0737 23.6785C13.6863 23.2045 13.1303 22.9675 12.4057 22.9675ZM22.5118 29.1882H21.3907V28.0945H21.3634C20.8757 28.933 20.158 29.3523 19.21 29.3523C18.5128 29.3523 17.9659 29.1677 17.5694 28.7986C17.1775 28.4294 16.9815 27.9395 16.9815 27.3289C16.9815 26.0209 17.7517 25.2598 19.2921 25.0457L21.3907 24.7517C21.3907 23.5623 20.9099 22.9675 19.9483 22.9675C19.1052 22.9675 18.3441 23.2546 17.6651 23.8289V22.6804C18.3533 22.2429 19.1462 22.0242 20.044 22.0242C21.6892 22.0242 22.5118 22.8946 22.5118 24.6355V29.1882ZM21.3907 25.6472L19.7022 25.8796C19.1827 25.9526 18.7908 26.0824 18.5264 26.2693C18.2621 26.4516 18.13 26.7774 18.13 27.2468C18.13 27.5886 18.2507 27.8689 18.4923 28.0876C18.7384 28.3018 19.0642 28.4089 19.4698 28.4089C20.0258 28.4089 20.4838 28.2153 20.8438 27.8279C21.2084 27.436 21.3907 26.9415 21.3907 26.3445V25.6472ZM30.4987 29.1882H29.3776V27.9988H29.3503C28.8307 28.9011 28.0287 29.3523 26.944 29.3523C26.0645 29.3523 25.3604 29.0401 24.8317 28.4158C24.3076 27.7869 24.0456 26.9324 24.0456 25.8523C24.0456 24.6947 24.3372 23.7673 24.9206 23.0701C25.5039 22.3728 26.2809 22.0242 27.2516 22.0242C28.2132 22.0242 28.9128 22.4024 29.3503 23.1589H29.3776V18.825H30.4987V29.1882ZM29.3776 26.0232V24.991C29.3776 24.4259 29.1908 23.9473 28.8171 23.5554C28.4434 23.1635 27.9694 22.9675 27.3952 22.9675C26.7116 22.9675 26.1738 23.2182 25.7819 23.7195C25.39 24.2208 25.194 24.9135 25.194 25.7976C25.194 26.6042 25.3809 27.2423 25.7546 27.7117C26.1328 28.1765 26.6387 28.4089 27.2721 28.4089C27.8965 28.4089 28.4024 28.1833 28.7897 27.7322C29.1816 27.281 29.3776 26.7113 29.3776 26.0232ZM42.6077 29.1882H41.4866V25.1687C41.4866 24.394 41.3658 23.8334 41.1243 23.4871C40.8873 23.1407 40.4863 22.9675 39.9212 22.9675C39.4427 22.9675 39.0348 23.1863 38.6975 23.6238C38.3649 24.0613 38.1985 24.5854 38.1985 25.196V29.1882H37.0774V25.032C37.0774 23.6557 36.5465 22.9675 35.4846 22.9675C34.9925 22.9675 34.5869 23.1749 34.2678 23.5896C33.9488 23.9998 33.7893 24.5352 33.7893 25.196V29.1882H32.6682V22.1882H33.7893V23.2957H33.8167C34.3134 22.448 35.038 22.0242 35.9905 22.0242C36.469 22.0242 36.886 22.1586 37.2415 22.4275C37.5969 22.6918 37.8408 23.0404 37.9729 23.4734C38.4925 22.5072 39.2672 22.0242 40.2971 22.0242C41.8375 22.0242 42.6077 22.9744 42.6077 24.8748V29.1882ZM49.6376 29.1882H48.5165V28.0945H48.4891C48.0015 28.933 47.2837 29.3523 46.3358 29.3523C45.6385 29.3523 45.0917 29.1677 44.6952 28.7986C44.3033 28.4294 44.1073 27.9395 44.1073 27.3289C44.1073 26.0209 44.8775 25.2598 46.4178 25.0457L48.5165 24.7517C48.5165 23.5623 48.0357 22.9675 47.0741 22.9675C46.231 22.9675 45.4699 23.2546 44.7909 23.8289V22.6804C45.479 22.2429 46.272 22.0242 47.1698 22.0242C48.815 22.0242 49.6376 22.8946 49.6376 24.6355V29.1882ZM48.5165 25.6472L46.828 25.8796C46.3085 25.9526 45.9165 26.0824 45.6522 26.2693C45.3879 26.4516 45.2557 26.7774 45.2557 27.2468C45.2557 27.5886 45.3765 27.8689 45.618 28.0876C45.8641 28.3018 46.19 28.4089 46.5956 28.4089C47.1516 28.4089 47.6096 28.2153 47.9696 27.8279C48.3342 27.436 48.5165 26.9415 48.5165 26.3445V25.6472ZM52.7983 28.1765H52.771V32.408H51.6499V22.1882H52.771V23.4187H52.7983C53.3497 22.489 54.1564 22.0242 55.2182 22.0242C56.1206 22.0242 56.8247 22.3386 57.3305 22.9675C57.8364 23.5919 58.0893 24.4304 58.0893 25.4832C58.0893 26.6544 57.8045 27.5932 57.2348 28.2996C56.6652 29.0014 55.8859 29.3523 54.8969 29.3523C53.99 29.3523 53.2905 28.9604 52.7983 28.1765ZM52.771 25.3533V26.3308C52.771 26.9096 52.9578 27.4018 53.3315 27.8074C53.7098 28.2084 54.1883 28.4089 54.7671 28.4089C55.4461 28.4089 55.977 28.1492 56.3598 27.6296C56.7472 27.1101 56.9409 26.3878 56.9409 25.4626C56.9409 24.6833 56.7609 24.0727 56.4009 23.6306C56.0408 23.1886 55.5532 22.9675 54.938 22.9675C54.2863 22.9675 53.7622 23.1954 53.3657 23.6511C52.9692 24.1023 52.771 24.6697 52.771 25.3533Z" fill="#37352F"/>
</svg>
