<svg width="153" height="18" viewBox="0 0 153 18" fill="none" xmlns="http://www.w3.org/2000/svg">
<path d="M0.352783 14.9297H14.3528V0.929707H0.352783V14.9297ZM27.0676 13.9497H25.7961L24.7571 11.2017H20.6008L19.6233 13.9497H18.345L22.1047 4.14697H23.2942L27.0676 13.9497ZM24.3811 10.1694L22.843 5.99268C22.7929 5.85596 22.7428 5.63721 22.6926 5.33643H22.6653C22.6197 5.61442 22.5673 5.83317 22.5081 5.99268L20.9836 10.1694H24.3811ZM34.177 13.9497H33.0559V9.95752C33.0559 8.47184 32.5136 7.729 31.429 7.729C30.8684 7.729 30.4036 7.94092 30.0344 8.36475C29.6698 8.78402 29.4875 9.31494 29.4875 9.95752V13.9497H28.3665V6.94971H29.4875V8.11182H29.5149C30.0435 7.2277 30.8092 6.78564 31.8118 6.78564C32.5774 6.78564 33.163 7.03402 33.5686 7.53076C33.9742 8.02295 34.177 8.73617 34.177 9.67041V13.9497ZM42.2708 13.9497H41.1497V12.7603H41.1223C40.6028 13.6626 39.8007 14.1138 38.7161 14.1138C37.8365 14.1138 37.1324 13.8016 36.6038 13.1772C36.0797 12.5483 35.8176 11.6938 35.8176 10.6138C35.8176 9.45622 36.1093 8.52881 36.6926 7.83154C37.276 7.13428 38.053 6.78564 39.0237 6.78564C39.9853 6.78564 40.6848 7.1639 41.1223 7.92041H41.1497V3.58643H42.2708V13.9497ZM41.1497 10.7847V9.75244C41.1497 9.18734 40.9628 8.70882 40.5891 8.31689C40.2154 7.92497 39.7415 7.729 39.1672 7.729C38.4836 7.729 37.9459 7.97965 37.554 8.48096C37.162 8.98226 36.9661 9.67497 36.9661 10.5591C36.9661 11.3657 37.1529 12.0037 37.5266 12.4731C37.9049 12.938 38.4107 13.1704 39.0442 13.1704C39.6685 13.1704 40.1744 12.9448 40.5618 12.4937C40.9537 12.0425 41.1497 11.4728 41.1497 10.7847ZM48.1907 8.08447C47.9947 7.93408 47.7122 7.85889 47.343 7.85889C46.8645 7.85889 46.4635 8.08447 46.1399 8.53564C45.8209 8.98682 45.6614 9.60205 45.6614 10.3813V13.9497H44.5403V6.94971H45.6614V8.39209H45.6887C45.8482 7.8999 46.092 7.51709 46.4202 7.24365C46.7483 6.96566 47.1152 6.82666 47.5208 6.82666C47.8124 6.82666 48.0357 6.85856 48.1907 6.92236V8.08447ZM52.3333 14.1138C51.2987 14.1138 50.4716 13.7879 49.8518 13.1362C49.2366 12.48 48.929 11.6118 48.929 10.5317C48.929 9.35596 49.2502 8.43766 49.8928 7.77686C50.5354 7.11605 51.4036 6.78564 52.4973 6.78564C53.5409 6.78564 54.3544 7.10693 54.9377 7.74951C55.5256 8.39209 55.8196 9.28304 55.8196 10.4224C55.8196 11.5389 55.5028 12.4344 54.8694 13.1089C54.2405 13.7788 53.3951 14.1138 52.3333 14.1138ZM52.4153 7.729C51.6952 7.729 51.1256 7.9751 50.7063 8.46729C50.287 8.95492 50.0774 9.62939 50.0774 10.4907C50.0774 11.3201 50.2893 11.9741 50.7131 12.4526C51.137 12.9312 51.7043 13.1704 52.4153 13.1704C53.1399 13.1704 53.6959 12.9357 54.0833 12.4663C54.4752 11.9969 54.6711 11.3293 54.6711 10.4634C54.6711 9.58838 54.4752 8.9139 54.0833 8.43994C53.6959 7.96598 53.1399 7.729 52.4153 7.729ZM58.1848 5.17236C57.9843 5.17236 57.8134 5.104 57.6721 4.96729C57.5308 4.83057 57.4602 4.65739 57.4602 4.44775C57.4602 4.23812 57.5308 4.06494 57.6721 3.92822C57.8134 3.78695 57.9843 3.71631 58.1848 3.71631C58.3899 3.71631 58.5631 3.78695 58.7043 3.92822C58.8502 4.06494 58.9231 4.23812 58.9231 4.44775C58.9231 4.64827 58.8502 4.81917 58.7043 4.96045C58.5631 5.10173 58.3899 5.17236 58.1848 5.17236ZM58.7317 13.9497H57.6106V6.94971H58.7317V13.9497ZM66.9758 13.9497H65.8547V12.7603H65.8274C65.3079 13.6626 64.5058 14.1138 63.4211 14.1138C62.5416 14.1138 61.8375 13.8016 61.3088 13.1772C60.7847 12.5483 60.5227 11.6938 60.5227 10.6138C60.5227 9.45622 60.8144 8.52881 61.3977 7.83154C61.981 7.13428 62.7581 6.78564 63.7288 6.78564C64.6903 6.78564 65.3899 7.1639 65.8274 7.92041H65.8547V3.58643H66.9758V13.9497ZM65.8547 10.7847V9.75244C65.8547 9.18734 65.6679 8.70882 65.2942 8.31689C64.9205 7.92497 64.4465 7.729 63.8723 7.729C63.1887 7.729 62.651 7.97965 62.259 8.48096C61.8671 8.98226 61.6711 9.67497 61.6711 10.5591C61.6711 11.3657 61.858 12.0037 62.2317 12.4731C62.6099 12.938 63.1158 13.1704 63.7493 13.1704C64.3736 13.1704 64.8795 12.9448 65.2668 12.4937C65.6588 12.0425 65.8547 11.4728 65.8547 10.7847ZM79.9094 13.5396C79.1848 13.9224 78.2825 14.1138 77.2024 14.1138C75.8079 14.1138 74.6913 13.6649 73.8528 12.7671C73.0142 11.8693 72.595 10.6912 72.595 9.23291C72.595 7.6652 73.0667 6.39827 74.01 5.43213C74.9534 4.46598 76.1497 3.98291 77.5989 3.98291C78.5286 3.98291 79.2987 4.11735 79.9094 4.38623V5.60986C79.2076 5.21794 78.4329 5.02197 77.5852 5.02197C76.4596 5.02197 75.5458 5.39795 74.844 6.1499C74.1467 6.90186 73.7981 7.90674 73.7981 9.16455C73.7981 10.3586 74.1239 11.311 74.7756 12.022C75.4319 12.7284 76.2909 13.0815 77.3528 13.0815C78.3372 13.0815 79.1894 12.8628 79.9094 12.4253V13.5396ZM84.6809 14.1138C83.6464 14.1138 82.8193 13.7879 82.1995 13.1362C81.5842 12.48 81.2766 11.6118 81.2766 10.5317C81.2766 9.35596 81.5979 8.43766 82.2405 7.77686C82.8831 7.11605 83.7512 6.78564 84.845 6.78564C85.8886 6.78564 86.7021 7.10693 87.2854 7.74951C87.8733 8.39209 88.1672 9.28304 88.1672 10.4224C88.1672 11.5389 87.8505 12.4344 87.217 13.1089C86.5881 13.7788 85.7428 14.1138 84.6809 14.1138ZM84.7629 7.729C84.0429 7.729 83.4732 7.9751 83.054 8.46729C82.6347 8.95492 82.425 9.62939 82.425 10.4907C82.425 11.3201 82.637 11.9741 83.0608 12.4526C83.4846 12.9312 84.052 13.1704 84.7629 13.1704C85.4875 13.1704 86.0435 12.9357 86.4309 12.4663C86.8228 11.9969 87.0188 11.3293 87.0188 10.4634C87.0188 9.58838 86.8228 8.9139 86.4309 8.43994C86.0435 7.96598 85.4875 7.729 84.7629 7.729ZM95.9329 13.9497H94.8118V12.7603H94.7844C94.2649 13.6626 93.4628 14.1138 92.3782 14.1138C91.4986 14.1138 90.7945 13.8016 90.2659 13.1772C89.7418 12.5483 89.4797 11.6938 89.4797 10.6138C89.4797 9.45622 89.7714 8.52881 90.3547 7.83154C90.9381 7.13428 91.7151 6.78564 92.6858 6.78564C93.6474 6.78564 94.3469 7.1639 94.7844 7.92041H94.8118V3.58643H95.9329V13.9497ZM94.8118 10.7847V9.75244C94.8118 9.18734 94.6249 8.70882 94.2512 8.31689C93.8775 7.92497 93.4036 7.729 92.8293 7.729C92.1458 7.729 91.608 7.97965 91.2161 8.48096C90.8241 8.98226 90.6282 9.67497 90.6282 10.5591C90.6282 11.3657 90.815 12.0037 91.1887 12.4731C91.567 12.938 92.0728 13.1704 92.7063 13.1704C93.3306 13.1704 93.8365 12.9448 94.2239 12.4937C94.6158 12.0425 94.8118 11.4728 94.8118 10.7847ZM103.828 10.73H98.886C98.9042 11.5093 99.1139 12.1108 99.5149 12.5347C99.9159 12.9585 100.467 13.1704 101.169 13.1704C101.958 13.1704 102.682 12.9106 103.343 12.3911V13.4438C102.728 13.8905 101.914 14.1138 100.903 14.1138C99.9137 14.1138 99.1366 13.797 98.5715 13.1636C98.0064 12.5256 97.7239 11.63 97.7239 10.4771C97.7239 9.38786 98.0315 8.50146 98.6467 7.81787C99.2665 7.12972 100.034 6.78564 100.95 6.78564C101.866 6.78564 102.575 7.08187 103.076 7.67432C103.578 8.26676 103.828 9.08936 103.828 10.1421V10.73ZM102.68 9.77979C102.675 9.13265 102.518 8.62907 102.208 8.26904C101.903 7.90902 101.477 7.729 100.93 7.729C100.401 7.729 99.9524 7.91813 99.5833 8.29639C99.2141 8.67464 98.9862 9.16911 98.8997 9.77979H102.68ZM116.694 9.98486C116.694 12.7375 115.452 14.1138 112.968 14.1138C110.589 14.1138 109.4 12.7899 109.4 10.1421V4.14697H110.548V10.0669C110.548 12.0767 111.396 13.0815 113.091 13.0815C114.727 13.0815 115.545 12.1108 115.545 10.1694V4.14697H116.694V9.98486ZM120.146 12.938H120.118V17.1694H118.997V6.94971H120.118V8.18018H120.146C120.697 7.25049 121.504 6.78564 122.566 6.78564C123.468 6.78564 124.172 7.1001 124.678 7.729C125.184 8.35335 125.437 9.19189 125.437 10.2446C125.437 11.4159 125.152 12.3547 124.582 13.061C124.013 13.7629 123.233 14.1138 122.244 14.1138C121.337 14.1138 120.638 13.7218 120.146 12.938ZM120.118 10.1147V11.0923C120.118 11.6711 120.305 12.1632 120.679 12.5688C121.057 12.9699 121.536 13.1704 122.115 13.1704C122.794 13.1704 123.324 12.9106 123.707 12.3911C124.095 11.8716 124.288 11.1493 124.288 10.2241C124.288 9.44482 124.108 8.83415 123.748 8.39209C123.388 7.95003 122.901 7.729 122.285 7.729C121.634 7.729 121.11 7.95687 120.713 8.4126C120.317 8.86377 120.118 9.43115 120.118 10.1147ZM133.202 13.9497H132.081V12.7603H132.054C131.534 13.6626 130.732 14.1138 129.648 14.1138C128.768 14.1138 128.064 13.8016 127.535 13.1772C127.011 12.5483 126.749 11.6938 126.749 10.6138C126.749 9.45622 127.041 8.52881 127.624 7.83154C128.208 7.13428 128.985 6.78564 129.955 6.78564C130.917 6.78564 131.616 7.1639 132.054 7.92041H132.081V3.58643H133.202V13.9497ZM132.081 10.7847V9.75244C132.081 9.18734 131.894 8.70882 131.521 8.31689C131.147 7.92497 130.673 7.729 130.099 7.729C129.415 7.729 128.878 7.97965 128.486 8.48096C128.094 8.98226 127.898 9.67497 127.898 10.5591C127.898 11.3657 128.085 12.0037 128.458 12.4731C128.837 12.938 129.342 13.1704 129.976 13.1704C130.6 13.1704 131.106 12.9448 131.493 12.4937C131.885 12.0425 132.081 11.4728 132.081 10.7847ZM140.483 13.9497H139.362V12.856H139.334C138.847 13.6945 138.129 14.1138 137.181 14.1138C136.484 14.1138 135.937 13.9292 135.54 13.5601C135.148 13.1909 134.952 12.701 134.952 12.0903C134.952 10.7824 135.723 10.0213 137.263 9.80713L139.362 9.51318C139.362 8.32373 138.881 7.729 137.919 7.729C137.076 7.729 136.315 8.01611 135.636 8.59033V7.44189C136.324 7.00439 137.117 6.78564 138.015 6.78564C139.66 6.78564 140.483 7.65609 140.483 9.39697V13.9497ZM139.362 10.4087L137.673 10.6411C137.154 10.714 136.762 10.8439 136.497 11.0308C136.233 11.2131 136.101 11.5389 136.101 12.0083C136.101 12.3501 136.222 12.6304 136.463 12.8491C136.709 13.0633 137.035 13.1704 137.441 13.1704C137.997 13.1704 138.455 12.9767 138.815 12.5894C139.179 12.1974 139.362 11.703 139.362 11.106V10.4087ZM145.842 13.8813C145.578 14.0272 145.229 14.1001 144.796 14.1001C143.57 14.1001 142.957 13.4165 142.957 12.0493V7.90674H141.754V6.94971H142.957V5.24072L144.078 4.87842V6.94971H145.842V7.90674H144.078V11.8511C144.078 12.3205 144.158 12.6554 144.318 12.856C144.477 13.0565 144.741 13.1567 145.111 13.1567C145.393 13.1567 145.637 13.0793 145.842 12.9243V13.8813ZM152.965 10.73H148.023C148.041 11.5093 148.251 12.1108 148.652 12.5347C149.053 12.9585 149.604 13.1704 150.306 13.1704C151.094 13.1704 151.819 12.9106 152.48 12.3911V13.4438C151.865 13.8905 151.051 14.1138 150.039 14.1138C149.05 14.1138 148.273 13.797 147.708 13.1636C147.143 12.5256 146.861 11.63 146.861 10.4771C146.861 9.38786 147.168 8.50146 147.783 7.81787C148.403 7.12972 149.171 6.78564 150.087 6.78564C151.003 6.78564 151.712 7.08187 152.213 7.67432C152.714 8.26676 152.965 9.08936 152.965 10.1421V10.73ZM151.817 9.77979C151.812 9.13265 151.655 8.62907 151.345 8.26904C151.04 7.90902 150.614 7.729 150.067 7.729C149.538 7.729 149.089 7.91813 148.72 8.29639C148.351 8.67464 148.123 9.16911 148.036 9.77979H151.817Z" fill="#37352F"/>
</svg>
